<svg xmlns="http://www.w3.org/2000/svg">
<defs>
<font id="GTAmerica-Light" horiz-adv-x="620" >
  <font-face 
    font-family="GT America Light"
    font-weight="300"
    font-stretch="normal"
    units-per-em="1000"
    panose-1="0 0 4 0 0 0 0 0 0 0"
    ascent="800"
    descent="-200"
    x-height="500"
    cap-height="710"
    bbox="-406 -236 1140 937"
    underline-thickness="50"
    underline-position="-200"
    unicode-range="U+000D-FB02"
  />
<missing-glyph horiz-adv-x="1018" 
d="M998 663h-552v-47h552v-48h-552v-47h552v-48h-552v-47h552v-47h-552v-48h552v-47h-978v426h978v-47zM67 667l13 9h-16l-5 15l-4 -15h-16l13 -9l-5 -15l12 9l13 -9zM142 676h-16l13 -9l-5 -15l12 10l13 -10l-5 15l12 9h-15l-5 15zM229 676h-16l13 -9l-5 -15l12 10l13 -10
l-5 15l12 9h-15l-5 15zM315 676h-15l13 -9l-5 -15l12 10l13 -10l-5 15l12 9h-15l-5 15zM415 667l12 9h-15l-5 15l-5 -15h-15l12 -9l-4 -15l12 10l13 -10zM98 632h-15l12 -9l-4 -14l12 9l12 -9l-4 14l12 9h-15l-5 15zM371 623l13 9h-16l-4 15l-5 -15h-15l12 -9l-5 -14l13 9
l12 -9zM273 364v93h94v80h-94v94h-80v-94h-93v-80h93v-93h80zM67 580l13 9h-16l-5 14l-4 -14h-16l13 -9l-5 -15l12 9l13 -9zM142 589h-16l13 -9l-5 -15l12 9l13 -9l-5 15l12 9h-15l-5 14zM315 589h-15l13 -9l-5 -15l12 9l13 -9l-5 15l12 9h-15l-5 14zM415 580l12 9h-15
l-5 14l-5 -14h-15l12 -9l-4 -15l12 9l13 -9zM67 492l13 10h-16l-5 14l-4 -14h-16l13 -10l-5 -14l12 9l13 -9zM415 492l12 10h-15l-5 14l-5 -14h-15l12 -10l-4 -14l12 9l13 -9zM67 405l13 9h-16l-5 15l-4 -15h-16l13 -9l-5 -14l12 9l13 -9zM154 405l12 9h-15l-5 15l-4 -15
h-16l13 -9l-5 -14l12 9l13 -9zM328 405l12 9h-15l-5 15l-5 -15h-15l13 -9l-5 -14l12 9l13 -9zM415 405l12 9h-15l-5 15l-5 -15h-15l12 -9l-4 -14l12 9l13 -9zM115 347l-4 15l12 9h-15l-5 14l-5 -14h-15l12 -9l-4 -15l12 9zM376 347l-5 15l13 9h-16l-4 14l-5 -14h-15l12 -9
l-5 -15l13 9zM72 303l-5 15l13 9h-16l-5 15l-4 -15h-16l13 -9l-5 -15l12 9zM159 303l-5 15l12 9h-15l-5 15l-4 -15h-16l13 -9l-5 -15l12 9zM246 303l-5 15l12 9h-15l-5 15l-4 -15h-16l13 -9l-5 -15l12 9zM333 303l-5 15l12 9h-15l-5 15l-5 -15h-15l13 -9l-5 -15l12 9z

<glyph glyph-name="fi" unicode="fi" horiz-adv-x="600" 
d="M316 500v-58h-130v-442h-69v442h-94v58h94v83q0 68 37.5 108t102.5 40q35 0 59 -7v-60q-28 5 -50 5q-42 0 -61 -23t-19 -72v-74h130zM431 590v110h79v-110h-79zM436 0v500h69v-500h-69z" />
    <glyph glyph-name="fl" unicode="fl" horiz-adv-x="610" 
d="M316 500v-58h-130v-442h-69v442h-94v58h94v83q0 68 37.5 108t102.5 40q35 0 59 -7v-60q-28 5 -50 5q-42 0 -61 -23t-19 -72v-74h130zM510 725v-725h-69v725h69z" />
    <glyph glyph-name="g_g.liga" unicode="gg" horiz-adv-x="1009" 
d="M355 491q11 40 40.5 64.5t74.5 24.5q15 0 30 -3v-61q-26 4 -34 4q-55 0 -76 -54q51 -46 51 -122t-51 -122t-131 -46q-54 0 -96 22q-44 -18 -44 -55q0 -58 85 -58h102q86 0 124.5 -36.5t38.5 -97.5q0 -70 -55 -114t-164 -44q-93 0 -154 33.5t-61 99.5q0 40 24.5 68
t66.5 41q-69 24 -69 89q0 32 19 58t54 38q-53 45 -53 124q0 77 50.5 122.5t131.5 45.5q52 0 96 -21zM950 522q-55 0 -75 -57q50 -45 50 -122q0 -75 -50.5 -121.5t-131.5 -46.5q-52 0 -92 20q-39 -18 -39 -53q0 -57 93 -57h111q85 0 123.5 -37t38.5 -98q0 -69 -58.5 -113
t-170.5 -44q-93 0 -153.5 33t-60.5 99q0 39 24 67t65 41q-74 24 -74 91q0 30 17.5 55.5t49.5 37.5q-56 48 -56 126q0 76 51 122.5t131 46.5q54 0 96 -22q11 40 40.5 64.5t75.5 24.5q15 0 30 -3v-57q-3 0 -14.5 1.5t-20.5 1.5zM259 230q51 0 83.5 31t32.5 83t-32.5 83
t-83.5 31q-52 0 -84 -31t-32 -83t32 -83t84 -31zM743 229q52 0 84 31t32 83t-32.5 83.5t-83.5 31.5t-83.5 -31.5t-32.5 -83.5t32 -83t84 -31zM296 24h-93q-15 0 -39 2q-61 -24 -61 -79q0 -96 161 -96q136 0 136 94q0 79 -104 79zM805 23h-101q-13 0 -37 2q-63 -24 -63 -79
q0 -95 159 -95q146 0 146 93q0 42 -25 60.5t-79 18.5z" />
    <glyph glyph-name=".notdef" horiz-adv-x="1018" 
d="M998 663h-552v-47h552v-48h-552v-47h552v-48h-552v-47h552v-47h-552v-48h552v-47h-978v426h978v-47zM67 667l13 9h-16l-5 15l-4 -15h-16l13 -9l-5 -15l12 9l13 -9zM142 676h-16l13 -9l-5 -15l12 10l13 -10l-5 15l12 9h-15l-5 15zM229 676h-16l13 -9l-5 -15l12 10l13 -10
l-5 15l12 9h-15l-5 15zM315 676h-15l13 -9l-5 -15l12 10l13 -10l-5 15l12 9h-15l-5 15zM415 667l12 9h-15l-5 15l-5 -15h-15l12 -9l-4 -15l12 10l13 -10zM98 632h-15l12 -9l-4 -14l12 9l12 -9l-4 14l12 9h-15l-5 15zM371 623l13 9h-16l-4 15l-5 -15h-15l12 -9l-5 -14l13 9
l12 -9zM273 364v93h94v80h-94v94h-80v-94h-93v-80h93v-93h80zM67 580l13 9h-16l-5 14l-4 -14h-16l13 -9l-5 -15l12 9l13 -9zM142 589h-16l13 -9l-5 -15l12 9l13 -9l-5 15l12 9h-15l-5 14zM315 589h-15l13 -9l-5 -15l12 9l13 -9l-5 15l12 9h-15l-5 14zM415 580l12 9h-15
l-5 14l-5 -14h-15l12 -9l-4 -15l12 9l13 -9zM67 492l13 10h-16l-5 14l-4 -14h-16l13 -10l-5 -14l12 9l13 -9zM415 492l12 10h-15l-5 14l-5 -14h-15l12 -10l-4 -14l12 9l13 -9zM67 405l13 9h-16l-5 15l-4 -15h-16l13 -9l-5 -14l12 9l13 -9zM154 405l12 9h-15l-5 15l-4 -15
h-16l13 -9l-5 -14l12 9l13 -9zM328 405l12 9h-15l-5 15l-5 -15h-15l13 -9l-5 -14l12 9l13 -9zM415 405l12 9h-15l-5 15l-5 -15h-15l12 -9l-4 -14l12 9l13 -9zM115 347l-4 15l12 9h-15l-5 14l-5 -14h-15l12 -9l-4 -15l12 9zM376 347l-5 15l13 9h-16l-4 14l-5 -14h-15l12 -9
l-5 -15l13 9zM72 303l-5 15l13 9h-16l-5 15l-4 -15h-16l13 -9l-5 -15l12 9zM159 303l-5 15l12 9h-15l-5 15l-4 -15h-16l13 -9l-5 -15l12 9zM246 303l-5 15l12 9h-15l-5 15l-4 -15h-16l13 -9l-5 -15l12 9zM333 303l-5 15l12 9h-15l-5 15l-5 -15h-15l13 -9l-5 -15l12 9z
M420 303l-5 15l12 9h-15l-5 15l-5 -15h-15l12 -9l-4 -15l12 9zM20 189v48h977v-48h-977zM20 95v47h978v-47h-978zM20 0v47h978v-47h-978z" />
    <glyph glyph-name=".null" horiz-adv-x="0" 
 />
    <glyph glyph-name=".null" horiz-adv-x="0" 
 />
    <glyph glyph-name="nonmarkingreturn" horiz-adv-x="333" 
 />
    <glyph glyph-name="CR" unicode="&#xd;" horiz-adv-x="0" 
 />
    <glyph glyph-name="space" unicode=" " horiz-adv-x="265" 
 />
    <glyph glyph-name="exclam" unicode="!" horiz-adv-x="299" 
d="M124 184l-19 541h89l-20 -541h-50zM193 104v-104h-87v104h87z" />
    <glyph glyph-name="quotedbl" unicode="&#x22;" horiz-adv-x="372" 
d="M86 458l-14 252h77l-14 -252h-49zM237 458l-14 252h77l-14 -252h-49z" />
    <glyph glyph-name="numbersign" unicode="#" horiz-adv-x="565" 
d="M553 428h-118l-30 -161h114v-57h-125l-39 -210h-65l39 210h-146l-39 -210h-65l39 210h-107v57h118l30 161h-108v57h118l39 209h65l-39 -209h146l39 209h65l-39 -209h108v-57zM340 267l30 161h-146l-30 -161h146z" />
    <glyph glyph-name="dollar" unicode="$" horiz-adv-x="613" 
d="M566 181q0 -85 -62 -138t-170 -59v-91h-51v91q-101 6 -165.5 60.5t-80.5 150.5l75 14q32 -145 171 -159v283l-23 5q-100 22 -146 68.5t-46 123.5q0 76 59 125t156 54v91h51v-91q92 -7 148.5 -54t70.5 -131l-74 -20q-24 126 -145 142v-251l18 -4q112 -24 163 -73t51 -137z
M145 531q0 -49 32.5 -78.5t105.5 -46.5v242q-64 -4 -101 -34t-37 -83zM334 49q73 4 114 38t41 93t-34 90t-121 52v-273z" />
    <glyph glyph-name="percent" unicode="%" horiz-adv-x="762" 
d="M189 364q-76 0 -121.5 48.5t-45.5 131.5q0 80 45.5 128t120.5 48q73 0 119 -49t46 -130q0 -80 -45.5 -128.5t-118.5 -48.5zM127 -15l439 730h68l-438 -730h-69zM189 417q47 0 75 33t28 91t-28.5 92t-75.5 34q-48 0 -77 -33t-29 -90q0 -60 29 -93.5t78 -33.5zM576 -14
q-76 0 -121.5 48.5t-45.5 131.5q0 80 45.5 128t120.5 48q73 0 119 -49t46 -130q0 -80 -45.5 -128.5t-118.5 -48.5zM576 39q47 0 75 33t28 91t-28.5 92t-75.5 34q-48 0 -77 -33t-29 -90q0 -60 29 -93.5t78 -33.5z" />
    <glyph glyph-name="ampersand" unicode="&#x26;" horiz-adv-x="644" 
d="M593 61q26 0 38 4v-64q-26 -4 -43 -4q-75 0 -134 63q-82 -77 -192 -77q-103 0 -165.5 52t-62.5 137q0 60 30 104.5t102 92.5l13 8q-94 111 -94 193q0 77 46 122t124 45q77 0 121.5 -42t44.5 -115q0 -50 -25 -95.5t-69 -76.5l-54 -38l183 -208q53 91 57 220l64 -9
q-3 -152 -78 -261q44 -51 94 -51zM158 574q0 -37 17 -72.5t60 -87.5l45 29q71 46 71 135q0 48 -25 74.5t-71 26.5q-95 0 -97 -105zM108 177q0 -57 45.5 -94t113.5 -37q83 0 146 61l-195 225l-9 -6q-58 -40 -79.5 -71.5t-21.5 -77.5z" />
    <glyph glyph-name="quotesingle" unicode="'" horiz-adv-x="221" 
d="M86 458l-14 252h77l-14 -252h-49z" />
    <glyph glyph-name="parenleft" unicode="(" horiz-adv-x="298" 
d="M233 -135q-80 96 -125.5 218t-45.5 247q0 123 46 240t126 207l51 -28q-79 -101 -115.5 -202.5t-36.5 -219.5q0 -119 36.5 -223t115.5 -210z" />
    <glyph glyph-name="parenright" unicode=")" horiz-adv-x="298" 
d="M65 -135l-52 29q79 106 115.5 210t36.5 223q0 118 -36.5 219.5t-115.5 202.5l51 28q80 -90 126 -207t46 -240q0 -125 -45.5 -247t-125.5 -218z" />
    <glyph glyph-name="asterisk" unicode="*" horiz-adv-x="325" 
d="M303 601l-109 -23l77 -85l-50 -38l-58 101l-59 -101l-49 38l77 85l-110 23l20 59l102 -47l-13 112h63l-13 -112l102 47z" />
    <glyph glyph-name="plus" unicode="+" horiz-adv-x="575" 
d="M522 359v-60h-200v-208h-70v208h-200v60h200v197h70v-197h200z" />
    <glyph glyph-name="comma" unicode="," horiz-adv-x="239" 
d="M89 -132l-19 36q32 16 42.5 36t10.5 57v3h-50v112h95v-106q0 -56 -17 -86.5t-62 -51.5z" />
    <glyph glyph-name="hyphen" unicode="-" horiz-adv-x="394" 
d="M52 311h289v-66h-289v66z" />
    <glyph glyph-name="period" unicode="." horiz-adv-x="238" 
d="M166 112v-112h-94v112h94z" />
    <glyph glyph-name="slash" unicode="/" horiz-adv-x="442" 
d="M113 -117h-66l282 877h66z" />
    <glyph glyph-name="zero" unicode="0" horiz-adv-x="634" 
d="M317 -15q-128 0 -196 96.5t-68 266.5q0 169 68.5 265.5t195.5 96.5t195 -96.5t68 -266.5q0 -169 -68 -265.5t-195 -96.5zM317 47q93 0 141.5 79.5t48.5 220.5t-48.5 221t-141.5 80t-141.5 -79.5t-48.5 -220.5q0 -142 48.5 -221.5t141.5 -79.5z" />
    <glyph glyph-name="one" unicode="1" horiz-adv-x="393" 
d="M194 0v566q-16 -26 -51.5 -40.5t-70.5 -14.5h-32v66h19q54 0 94 31.5t52 86.5h62v-695h-73z" />
    <glyph glyph-name="two" unicode="2" horiz-adv-x="542" 
d="M38 0v61q128 93 250 212q63 63 89.5 115.5t26.5 113.5q0 68 -36.5 106t-102.5 38q-67 0 -105.5 -36.5t-38.5 -99.5q0 -24 8 -64l-74 7q-7 27 -7 58q0 92 59 145.5t162 53.5q100 0 156 -54t56 -153q0 -71 -35 -136t-111 -138q-92 -90 -198 -163h355v-66h-454z" />
    <glyph glyph-name="three" unicode="3" horiz-adv-x="567" 
d="M281 -15q-107 0 -172.5 58t-68.5 155l72 8q3 -74 48.5 -116.5t122.5 -42.5t117 37.5t40 108.5q0 66 -42 102t-121 36h-44v61h38q71 0 108 34t37 94t-37.5 94t-104.5 34q-73 0 -113 -43t-40 -123l-70 14q0 100 60.5 157t166.5 57q100 0 156 -48.5t56 -134.5
q0 -61 -35 -104t-95 -56q74 -11 114 -55t40 -117q0 -99 -62 -154.5t-171 -55.5z" />
    <glyph glyph-name="four" unicode="4" horiz-adv-x="580" 
d="M541 182h-116v-182h-69v182h-332v51l320 462h81v-455h116v-58zM356 529q0 60 2 92h-2q-14 -34 -44 -78l-158 -227q-32 -50 -56 -76h258v289z" />
    <glyph glyph-name="five" unicode="5" horiz-adv-x="564" 
d="M279 -15q-91 0 -152 49.5t-75 133.5l76 8q12 -59 52 -93.5t103 -34.5q75 0 117.5 48t42.5 132t-40.5 133t-115.5 49q-59 0 -99 -33.5t-54 -91.5l-71 7l41 403h379v-64h-324l-27 -261q52 102 173 102q99 0 155.5 -64.5t56.5 -176.5q0 -110 -65 -178t-173 -68z" />
    <glyph glyph-name="six" unicode="6" horiz-adv-x="571" 
d="M313 464q98 0 157 -65t59 -173q0 -107 -63 -174t-164 -67q-124 0 -187 88t-63 261q0 181 66.5 278.5t189.5 97.5q87 0 141 -44.5t70 -129.5l-74 -15q-25 127 -138 127q-90 0 -137 -78t-46 -228q23 57 72.5 89.5t116.5 32.5zM303 47q69 0 110.5 48.5t41.5 129.5
q0 82 -42 129.5t-114 47.5q-64 0 -109 -42t-62 -118q11 -92 57 -143.5t118 -51.5z" />
    <glyph glyph-name="seven" unicode="7" horiz-adv-x="498" 
d="M144 0v11q0 315 251 616h-364v68h447v-59q-123 -134 -188 -292.5t-65 -325.5v-18h-81z" />
    <glyph glyph-name="eight" unicode="8" horiz-adv-x="576" 
d="M374 372q84 -28 121 -73t37 -117q0 -90 -65.5 -143.5t-176.5 -53.5q-113 0 -180 52t-67 141q0 144 152 187q-66 26 -96.5 66.5t-30.5 102.5q0 79 60.5 127.5t159.5 48.5q100 0 159.5 -47.5t59.5 -127.5q0 -126 -133 -163zM142 534q0 -49 29.5 -79.5t96.5 -50.5l36 -11
q72 25 100.5 55.5t28.5 83.5q0 57 -39 89.5t-108 32.5q-67 0 -105.5 -32t-38.5 -88zM290 44q80 0 124.5 36.5t44.5 101.5q0 54 -32 87.5t-103 54.5l-62 19q-75 -24 -109.5 -61t-34.5 -93q0 -67 46.5 -106t125.5 -39z" />
    <glyph glyph-name="nine" unicode="9" horiz-adv-x="573" 
d="M272 710q249 0 249 -351q0 -170 -60.5 -272t-186.5 -102q-93 0 -149 46.5t-73 135.5l74 15q25 -135 149 -135q172 0 172 311v10q-49 -109 -182 -109q-99 0 -161 59.5t-62 164.5q0 99 63 163t167 64zM272 321q63 0 110.5 41.5t60.5 107.5q-22 178 -172 178
q-71 0 -113 -45.5t-42 -118.5q0 -75 43.5 -119t112.5 -44z" />
    <glyph glyph-name="colon" unicode=":" horiz-adv-x="238" 
d="M166 500v-112h-94v112h94zM166 112v-112h-94v112h94z" />
    <glyph glyph-name="semicolon" unicode=";" horiz-adv-x="244" 
d="M172 500v-112h-94v112h94zM94 -132l-19 36q32 16 42.5 36t10.5 57v3h-50v112h95v-106q0 -56 -17 -86.5t-62 -51.5z" />
    <glyph glyph-name="less" unicode="&#x3c;" 
d="M519 85l-465 212v58l465 212v-65l-387 -175l387 -175v-67z" />
    <glyph glyph-name="equal" unicode="=" horiz-adv-x="575" 
d="M52 389v65h470v-65h-470zM52 204v65h470v-65h-470z" />
    <glyph glyph-name="greater" unicode="&#x3e;" 
d="M101 85v67l387 175l-387 175v65l465 -212v-58z" />
    <glyph glyph-name="question" unicode="?" horiz-adv-x="464" 
d="M186 187v39q0 71 60 128l48 45q73 66 73 143q0 56 -36.5 88.5t-98.5 32.5q-64 0 -103.5 -38t-39.5 -106q0 -24 4 -47l-75 8q-3 22 -3 48q0 89 57.5 144t162.5 55q98 0 154 -48.5t56 -135.5q0 -92 -94 -179l-49 -45q-26 -24 -35.5 -46.5t-9.5 -58.5v-27h-71zM180 0v106h85
v-106h-85z" />
    <glyph glyph-name="at" unicode="@" horiz-adv-x="837" 
d="M428 -102q-171 0 -274.5 103.5t-103.5 274.5q0 170 103.5 277t277.5 107q168 0 262 -99t94 -265q0 -103 -40 -163.5t-108 -60.5q-85 0 -105 85q-18 -41 -57 -66t-88 -25q-61 0 -101 33t-40 84q0 55 39 85.5t123 42.5l117 15v8q0 62 -21.5 87t-74.5 25q-95 0 -103 -86h-64
q4 64 49 101t119 37q82 0 118.5 -40.5t36.5 -131.5v-112q0 -50 13.5 -72t44.5 -22q39 0 62 47t23 127q0 148 -76.5 232.5t-220.5 84.5q-151 0 -238 -92t-87 -243q0 -147 90.5 -237t238.5 -90q99 0 192 41l22 -45q-95 -47 -223 -47zM398 117q57 0 93 38t36 98v27l-103 -13
q-59 -8 -84 -27t-25 -54q0 -30 23 -49.5t60 -19.5z" />
    <glyph glyph-name="A" unicode="A" horiz-adv-x="664" 
d="M560 0l-75 207h-306l-75 -207h-81l271 710h77l270 -710h-81zM203 273h258l-105 291q-18 50 -23 69h-2q-9 -34 -23 -69z" />
    <glyph glyph-name="B" unicode="B" horiz-adv-x="658" 
d="M453 367q69 -10 106.5 -56t37.5 -117q0 -37 -11.5 -69.5t-37 -61.5t-72.5 -46t-111 -17h-260v710h241q66 0 113.5 -17t72 -45t35.5 -59t11 -65q0 -56 -31 -99t-94 -58zM346 644h-164v-248h167q152 0 152 122q0 126 -155 126zM360 66q86 0 123 37.5t37 96.5t-36 94.5
t-115 35.5h-187v-264h178z" />
    <glyph glyph-name="C" unicode="C" horiz-adv-x="699" 
d="M366 -17q-156 0 -236 105t-80 269q0 168 83.5 269t235.5 101q124 0 194.5 -67.5t84.5 -182.5l-79 -8q-12 88 -64.5 139.5t-139.5 51.5q-110 0 -172 -82t-62 -220q0 -136 61 -221.5t175 -85.5q82 0 135.5 49t70.5 136l75 -12q-21 -109 -91 -175t-191 -66z" />
    <glyph glyph-name="D" unicode="D" horiz-adv-x="716" 
d="M105 0v710h225q153 0 245 -97.5t92 -256.5q0 -157 -93 -256.5t-246 -99.5h-223zM182 66h145q118 0 187.5 82t69.5 208q0 129 -68 208.5t-187 79.5h-147v-578z" />
    <glyph glyph-name="E" unicode="E" horiz-adv-x="611" 
d="M182 66h363v-66h-440v710h433v-66h-356v-247h339v-66h-339v-265z" />
    <glyph glyph-name="F" unicode="F" horiz-adv-x="580" 
d="M538 644h-356v-247h339v-66h-339v-331h-77v710h433v-66z" />
    <glyph glyph-name="G" unicode="G" horiz-adv-x="723" 
d="M356 -17q-142 0 -224 104t-82 268q0 167 84.5 269.5t235.5 102.5q69 0 122.5 -22t82.5 -57.5t44.5 -69t20.5 -67.5l-77 -10q-5 28 -16.5 53t-33 50.5t-59 41t-87.5 15.5q-112 0 -175 -84t-63 -223q0 -134 61.5 -219t177.5 -85q52 0 92.5 17t63 42t36.5 58t18.5 59t4.5 51
v25h-220v66h290v-368h-57l-11 129q-24 -66 -85 -106t-144 -40z" />
    <glyph glyph-name="H" unicode="H" horiz-adv-x="749" 
d="M645 710v-710h-78v330h-385v-330h-77v710h77v-314h385v314h78z" />
    <glyph glyph-name="I" unicode="I" horiz-adv-x="287" 
d="M182 0h-77v710h77v-710z" />
    <glyph glyph-name="J" unicode="J" horiz-adv-x="387" 
d="M298 180q0 -107 -55 -152t-141 -45q-57 0 -82 8v72q32 -6 82 -6q54 0 86 28t32 102v523h78v-530z" />
    <glyph glyph-name="K" unicode="K" horiz-adv-x="664" 
d="M548 0l-247 371l-119 -130v-241h-77v710h77v-374l337 374h98l-259 -281l-3 -3l283 -426h-90z" />
    <glyph glyph-name="L" unicode="L" horiz-adv-x="541" 
d="M105 0v710h77v-644h337v-66h-414z" />
    <glyph glyph-name="M" unicode="M" horiz-adv-x="879" 
d="M105 0v710h109l207 -568q12 -33 17 -61h2q4 23 18 61l206 568h110v-710h-72v566q0 42 4 71h-4q-7 -38 -20 -75l-205 -562h-75l-205 562q-13 34 -21 75h-3q3 -33 3 -71v-566h-71z" />
    <glyph glyph-name="N" unicode="N" horiz-adv-x="744" 
d="M105 0v710h94l329 -542q29 -50 42 -82h2q-3 36 -3 87v537h70v-710h-94l-329 543q-31 54 -42 82h-2q3 -36 3 -87v-538h-70z" />
    <glyph glyph-name="O" unicode="O" horiz-adv-x="740" 
d="M370 -17q-146 0 -233 101.5t-87 270.5q0 172 87 272t233 100t233 -100t87 -272q0 -171 -87 -271.5t-233 -100.5zM370 49q112 0 175.5 82t63.5 224t-63.5 224t-175.5 82q-111 0 -175 -82t-64 -224q0 -139 64 -222.5t175 -83.5z" />
    <glyph glyph-name="P" unicode="P" horiz-adv-x="608" 
d="M352 710q107 0 170.5 -55t63.5 -148q0 -95 -63.5 -151.5t-170.5 -56.5h-170v-299h-77v710h247zM345 365q73 0 116 38.5t43 103.5q0 63 -43 100t-116 37h-163v-279h163z" />
    <glyph glyph-name="Q" unicode="Q" horiz-adv-x="740" 
d="M485 2q49 -63 129 -63q23 0 53 7v-69q-46 -6 -67 -6q-65 0 -112 31t-71 84q-23 -3 -47 -3q-146 0 -233 101.5t-87 270.5q0 172 87 272t233 100t233 -100t87 -272q0 -134 -54.5 -226t-150.5 -127zM131 355q0 -139 64 -222.5t175 -83.5q112 0 175.5 82t63.5 224t-63.5 224
t-175.5 82q-111 0 -175 -82t-64 -224z" />
    <glyph glyph-name="R" unicode="R" horiz-adv-x="662" 
d="M524 0l-179 303h-163v-303h-77v710h254q66 0 113 -17t71.5 -47t35.5 -64t11 -75q0 -69 -39.5 -123t-123.5 -71l185 -313h-88zM182 644v-275h170q81 0 118.5 37.5t37.5 100.5q0 137 -156 137h-170z" />
    <glyph glyph-name="S" unicode="S" horiz-adv-x="618" 
d="M317 -17q-129 0 -200.5 63t-79.5 167l78 11q9 -78 59.5 -127.5t145.5 -49.5q74 0 122.5 34t48.5 100q0 65 -35.5 94.5t-108.5 43.5l-105 21q-175 34 -175 190q0 89 65.5 143t175.5 54t179 -51t78 -155l-78 -15q-15 159 -181 159q-72 0 -115.5 -34.5t-43.5 -93.5
q0 -104 126 -130l105 -21q91 -18 142 -63t51 -134q0 -91 -66.5 -148.5t-187.5 -57.5z" />
    <glyph glyph-name="T" unicode="T" horiz-adv-x="556" 
d="M546 710v-66h-229v-644h-78v644h-229v66h536z" />
    <glyph glyph-name="U" unicode="U" horiz-adv-x="711" 
d="M90 710h77v-460q0 -92 49 -145t139 -53t139.5 53t49.5 145v460h78v-465q0 -120 -70 -191t-197 -71q-126 0 -195.5 71t-69.5 191v465z" />
    <glyph glyph-name="V" unicode="V" horiz-adv-x="601" 
d="M258 0l-252 710h82l182 -535q18 -49 29 -99h3q11 50 29 99l182 535h82l-252 -710h-85z" />
    <glyph glyph-name="W" unicode="W" horiz-adv-x="909" 
d="M202 0l-177 710h80l137 -591q3 -14 6 -37h3q0 10 7 37l157 591h79l157 -591q6 -24 8 -37h2q3 23 6 37l138 591h79l-176 -710h-95l-151 577q-5 19 -6 33h-3q-1 -14 -6 -33l-150 -577h-95z" />
    <glyph glyph-name="X" unicode="X" horiz-adv-x="628" 
d="M16 0l251 374l-229 336h92l160 -243q17 -27 25 -44h2q7 16 25 43l159 244h87l-228 -343l252 -367h-92l-172 260q-28 43 -35 58h-2q-13 -25 -36 -58l-171 -260h-88z" />
    <glyph glyph-name="Y" unicode="Y" horiz-adv-x="573" 
d="M247 0v285l-245 425h87l173 -307q11 -21 24 -48h2q6 15 24 48l172 307h87l-245 -425v-285h-79z" />
    <glyph glyph-name="Z" unicode="Z" horiz-adv-x="568" 
d="M36 72l411 572h-397v66h480v-72l-412 -572h426v-66h-508v72z" />
    <glyph glyph-name="bracketleft" unicode="[" horiz-adv-x="333" 
d="M105 -114v871h186v-58h-123v-755h123v-58h-186z" />
    <glyph glyph-name="backslash" unicode="\" horiz-adv-x="442" 
d="M329 -117l-282 877h66l282 -877h-66z" />
    <glyph glyph-name="bracketright" unicode="]" horiz-adv-x="333" 
d="M228 -114h-186v58h123v755h-123v58h186v-871z" />
    <glyph glyph-name="asciicircum" unicode="^" horiz-adv-x="388" 
d="M165 709h58l145 -262h-68l-106 201l-106 -201h-68z" />
    <glyph glyph-name="underscore" unicode="_" horiz-adv-x="422" 
d="M0 -99h422v-49h-422v49z" />
    <glyph glyph-name="grave" unicode="`" horiz-adv-x="600" 
d="M233 580h-66l-119 143h86z" />
    <glyph glyph-name="a" unicode="a" horiz-adv-x="538" 
d="M216 -12q-75 0 -120.5 39.5t-45.5 104.5q0 74 61 112q53 31 164 45l111 13v8q0 77 -28.5 110.5t-92.5 33.5q-57 0 -89.5 -28.5t-35.5 -81.5h-75q4 77 58.5 122.5t140.5 45.5q101 0 146.5 -49t45.5 -158v-130q0 -115 16 -175h-73q-7 40 -9 100q-18 -53 -64 -82.5
t-110 -29.5zM232 46q70 0 112.5 47.5t42.5 124.5v32l-142 -20q-64 -9 -93 -32t-29 -64t29.5 -64.5t79.5 -23.5z" />
    <glyph glyph-name="b" unicode="b" horiz-adv-x="588" 
d="M332 -12q-58 0 -102.5 30.5t-63.5 81.5l-13 -100h-53v725h69v-327q20 52 64 83t104 31q92 0 147.5 -72.5t55.5 -189.5q0 -118 -57 -190t-151 -72zM314 50q71 0 111.5 54t40.5 146t-39.5 146t-110.5 54q-68 0 -108 -51.5t-40 -138.5v-24q0 -84 39.5 -135t106.5 -51z" />
    <glyph glyph-name="c" unicode="c" horiz-adv-x="526" 
d="M275 -12q-104 0 -165.5 70.5t-61.5 191.5q0 122 61 192t166 70q86 0 139.5 -48t62.5 -133l-71 -8q-7 62 -42 95t-92 33q-70 0 -110 -53t-40 -147q0 -96 40.5 -149t112.5 -53q115 0 135 128l67 -10q-14 -85 -67 -132t-135 -47z" />
    <glyph glyph-name="d" unicode="d" horiz-adv-x="588" 
d="M254 -12q-93 0 -149.5 72.5t-56.5 189.5q0 116 59.5 189t154.5 73q113 0 157 -103v316h70v-725h-66v106q-22 -56 -66 -87t-103 -31zM271 50q68 0 108.5 52.5t40.5 136.5v21q0 86 -39.5 138t-108.5 52q-70 0 -110 -53t-40 -147q0 -93 39.5 -146.5t109.5 -53.5z" />
    <glyph glyph-name="e" unicode="e" horiz-adv-x="534" 
d="M481 280v-48h-363q1 -84 44 -133t116 -49q52 0 88.5 28t52.5 79l59 -24q-23 -70 -76 -107.5t-129 -37.5q-107 0 -166 67t-59 192q0 123 59.5 194t162.5 71q101 0 156 -59.5t55 -172.5zM410 289v9q0 77 -37 117.5t-104 40.5q-69 0 -109 -44.5t-42 -122.5h292z" />
    <glyph glyph-name="f" unicode="f" horiz-adv-x="341" 
d="M316 500v-58h-130v-442h-69v442h-94v58h94v83q0 68 37.5 108t102.5 40q35 0 59 -7v-60q-28 5 -50 5q-42 0 -61 -23t-19 -72v-74h130z" />
    <glyph glyph-name="g" unicode="g" horiz-adv-x="528" 
d="M473 519q-62 0 -82 -54q50 -47 50 -121t-49.5 -121.5t-132.5 -47.5q-54 0 -96 22q-43 -17 -43 -55q0 -26 21 -41.5t64 -15.5h131q80 0 121.5 -35t41.5 -101q0 -73 -60 -114.5t-181 -41.5q-117 0 -170 38t-53 101q0 37 21.5 65t61.5 41q-60 24 -60 86q0 70 71 96
q-52 49 -52 124q0 74 49.5 121t132.5 47q56 0 98 -22q26 90 118 90q14 0 29 -3v-62q-18 4 -31 4zM259 229q52 0 84 31.5t32 82.5t-32 83t-84 32t-84 -31.5t-32 -82.5t32 -83t84 -32zM321 24h-118q-15 0 -39 2q-61 -24 -61 -82q0 -93 163 -93t163 94q0 79 -108 79z" />
    <glyph glyph-name="h" unicode="h" horiz-adv-x="586" 
d="M100 0v725h69v-331q45 120 171 120q82 0 124.5 -52t42.5 -152v-310h-70v306q0 146 -120 146q-68 0 -108 -50.5t-40 -138.5v-263h-69z" />
    <glyph glyph-name="i" unicode="i" horiz-adv-x="259" 
d="M90 590v110h79v-110h-79zM95 0v500h69v-500h-69z" />
    <glyph glyph-name="j" unicode="j" horiz-adv-x="255" 
d="M86 590v110h79v-110h-79zM38 -202q-35 0 -58 6v60q26 -2 48 -2q32 0 47.5 18.5t15.5 67.5v552h70v-559q0 -65 -29.5 -104t-93.5 -39z" />
    <glyph glyph-name="k" unicode="k" horiz-adv-x="540" 
d="M430 0l-160 258l-101 -101v-157h-69v725h69v-486l242 261h92l-184 -192l197 -308h-86z" />
    <glyph glyph-name="l" unicode="l" horiz-adv-x="269" 
d="M169 725v-725h-69v725h69z" />
    <glyph glyph-name="m" unicode="m" horiz-adv-x="840" 
d="M95 500h65v-97q39 111 148 111q111 0 144 -109q45 109 154 109q73 0 113.5 -49t40.5 -138v-327h-70v321q0 131 -105 131q-57 0 -90 -39.5t-33 -108.5v-304h-69v325q0 61 -27 94t-77 33q-57 0 -91 -43.5t-34 -116.5v-292h-69v500z" />
    <glyph glyph-name="n" unicode="n" horiz-adv-x="581" 
d="M95 0v500h66v-110q45 124 171 124q170 0 170 -205v-309h-70v305q0 147 -121 147q-68 0 -107.5 -50.5t-39.5 -138.5v-263h-69z" />
    <glyph glyph-name="o" unicode="o" horiz-adv-x="555" 
d="M278 -12q-105 0 -167.5 70.5t-62.5 191.5t62.5 191.5t167.5 70.5q104 0 166.5 -70.5t62.5 -191.5t-62.5 -191.5t-166.5 -70.5zM278 49q73 0 114 52t41 149t-41 149t-114 52t-114.5 -52t-41.5 -149t41.5 -149t114.5 -52z" />
    <glyph glyph-name="p" unicode="p" horiz-adv-x="583" 
d="M95 -195v695h66v-106q23 56 67.5 87t103.5 31q92 0 147.5 -72t55.5 -190q0 -119 -57.5 -190.5t-150.5 -71.5q-59 0 -102 29.5t-61 76.5v-289h-69zM311 50q70 0 110 53.5t40 146.5t-38.5 146.5t-107.5 53.5q-70 0 -111 -52t-41 -136v-22q0 -85 40 -137.5t108 -52.5z" />
    <glyph glyph-name="q" unicode="q" horiz-adv-x="583" 
d="M419 -195v295q-20 -52 -63.5 -82t-101.5 -30q-93 0 -149.5 71.5t-56.5 190.5q0 118 59.5 190t153.5 72q117 0 161 -106l15 94h52v-695h-70zM270 50q68 0 109 51.5t41 135.5v25q0 85 -39.5 136.5t-109.5 51.5q-69 0 -109 -53.5t-40 -146.5t39.5 -146.5t108.5 -53.5z" />
    <glyph glyph-name="r" unicode="r" horiz-adv-x="356" 
d="M160 378q18 60 58.5 97t96.5 37q12 0 19 -1v-68h-8q-67 0 -107 -38q-55 -55 -55 -176v-229h-69v500h65v-122z" />
    <glyph glyph-name="s" unicode="s" horiz-adv-x="492" 
d="M256 -12q-88 0 -143.5 40t-67.5 115l71 12q9 -53 45.5 -81t96.5 -28q54 0 84 24t30 62q0 35 -20 53t-61 26l-98 19q-129 25 -129 137q0 64 50 104.5t134 40.5q83 0 134 -36t58 -102l-69 -15q-16 96 -126 96q-52 0 -82.5 -22.5t-30.5 -62.5q0 -34 21 -52.5t62 -27.5
l98 -19q128 -25 128 -133q0 -68 -49.5 -109t-135.5 -41z" />
    <glyph glyph-name="t" unicode="t" horiz-adv-x="349" 
d="M21 442v58h92v132l70 30v-162h129v-58h-129v-300q0 -85 78 -85q21 0 51 7v-64q-32 -9 -69 -9q-130 0 -130 148v303h-92z" />
    <glyph glyph-name="u" unicode="u" horiz-adv-x="574" 
d="M251 -12q-171 0 -171 195v317h69v-310q0 -71 30.5 -106.5t83.5 -35.5q67 0 106.5 50.5t39.5 128.5v273h70v-500h-66v103q-18 -51 -62 -83t-100 -32z" />
    <glyph glyph-name="v" unicode="v" horiz-adv-x="468" 
d="M196 0l-185 500h76l124 -354q15 -47 21 -74h3q4 17 22 74l124 354h76l-185 -500h-76z" />
    <glyph glyph-name="w" unicode="w" horiz-adv-x="725" 
d="M170 0l-144 500h72l99 -369q10 -43 12 -60h2q3 20 14 60l100 369h74l101 -369q1 -5 6.5 -26.5t7.5 -33.5h2q2 17 12 60l99 369h72l-144 -500h-76l-104 374q-7 27 -12 55h-1q-5 -28 -12 -55l-104 -374h-76z" />
    <glyph glyph-name="x" unicode="x" horiz-adv-x="488" 
d="M18 0l184 259l-171 241h83l97 -144q22 -33 34 -56h1q13 26 33 56l92 144h86l-168 -246l181 -254h-83l-111 161q-21 33 -31 54h-1q-15 -27 -33 -55l-110 -160h-83z" />
    <glyph glyph-name="y" unicode="y" horiz-adv-x="476" 
d="M87 -201q-24 0 -44 4v62q18 -3 35 -3q47 0 74 25.5t46 79.5l13 37l-200 496h78l134 -357q13 -34 22 -68h2q7 29 21 69l122 356h75l-195 -532q-33 -91 -76.5 -130t-106.5 -39z" />
    <glyph glyph-name="z" unicode="z" horiz-adv-x="455" 
d="M38 54l286 387h-274v59h358v-52l-283 -388h297v-60h-384v54z" />
    <glyph glyph-name="braceleft" unicode="{" horiz-adv-x="353" 
d="M275 -116q-65 0 -105.5 35.5t-40.5 100.5v179q0 52 -13 76.5t-59 25.5v56q46 1 58.5 23t12.5 75v172q0 69 43.5 106.5t115.5 37.5h21v-51h-14q-47 0 -73.5 -25t-26.5 -75v-159q0 -52 -14.5 -85.5t-53.5 -45.5q67 -26 67 -138v-161q0 -48 27 -72t70 -24h21v-51h-36z" />
    <glyph glyph-name="bar" unicode="|" horiz-adv-x="259" 
d="M100 -117v877h59v-877h-59z" />
    <glyph glyph-name="braceright" unicode="}" horiz-adv-x="353" 
d="M78 -116h-36v51h21q43 0 70 24t27 72v161q0 112 67 138q-39 12 -53.5 45.5t-14.5 85.5v159q0 50 -26.5 75t-73.5 25h-14v51h21q72 0 115.5 -37.5t43.5 -106.5v-172q0 -53 12.5 -75t58.5 -23v-56q-46 -1 -59 -25.5t-13 -76.5v-179q0 -65 -40.5 -100.5t-105.5 -35.5z" />
    <glyph glyph-name="asciitilde" unicode="~" 
d="M408 235q-39 0 -74 21t-65.5 42t-56.5 21q-60 0 -77 -74l-58 9q12 59 47.5 92t88.5 33q30 0 59 -13t48 -28.5t43 -28.5t45 -13q60 0 77 74l58 -10q-11 -59 -46.5 -92t-88.5 -33z" />
    <glyph glyph-name="uni00A0" unicode="&#xa0;" horiz-adv-x="265" 
 />
    <glyph glyph-name="exclamdown" unicode="&#xa1;" horiz-adv-x="299" 
d="M193 476h-87v104h87v-104zM124 396h50l20 -541h-89z" />
    <glyph glyph-name="cent" unicode="&#xa2;" horiz-adv-x="544" 
d="M304 47q53 5 85.5 36.5t39.5 83.5l66 -12q-14 -75 -63.5 -118.5t-127.5 -47.5v-78h-50v78q-97 10 -151.5 79t-54.5 183t54 182t152 77v84h50v-83q80 -5 131.5 -50.5t59.5 -120.5l-68 -9q-17 110 -123 121v-405zM119 252q0 -88 35 -140.5t100 -63.5v403q-65 -9 -100 -61
t-35 -138z" />
    <glyph glyph-name="sterling" unicode="&#xa3;" horiz-adv-x="603" 
d="M518 164l66 -12q-9 -80 -52 -123.5t-113 -43.5q-41 0 -108.5 14t-118.5 14q-63 0 -153 -20l-16 52q145 46 145 191q0 49 -9 101h-111v53h99q-15 68 -15 117q0 94 54 148.5t150 54.5q168 0 199 -158l-72 -17q-20 114 -128 114q-125 0 -125 -139q0 -51 15 -120h189v-53
h-178q7 -45 7 -87q0 -133 -104 -184q36 9 82 9q39 0 100 -11t98 -11q43 0 69 29t30 82z" />
    <glyph glyph-name="currency" unicode="&#xa4;" horiz-adv-x="552" 
d="M500 303q0 -88 -51 -150l54 -57l-34 -31l-53 56q-58 -44 -137 -44q-81 0 -141 46l-55 -59l-34 31l56 61q-48 62 -48 147q0 87 49 147l-58 62l34 30l57 -59q59 46 140 46q77 0 136 -43l54 57l34 -31l-54 -59q51 -61 51 -150zM279 136q69 0 112.5 46.5t43.5 120.5
t-43.5 120.5t-112.5 46.5t-113.5 -46.5t-44.5 -120.5t44.5 -120.5t113.5 -46.5z" />
    <glyph glyph-name="yen" unicode="&#xa5;" horiz-adv-x="527" 
d="M524 695l-219 -363h181v-51h-185v-56h185v-50h-185v-175h-75v175h-185v50h185v56h-185v51h181l-220 363h83l131 -221q31 -54 46 -91h3q12 31 46 91l130 221h83z" />
    <glyph glyph-name="brokenbar" unicode="&#xa6;" horiz-adv-x="258" 
d="M159 760v-378h-59v378h59zM159 261v-378h-59v378h59z" />
    <glyph glyph-name="section" unicode="&#xa7;" horiz-adv-x="504" 
d="M457 277q0 -71 -57 -113q37 -37 37 -97q0 -72 -51.5 -112.5t-142.5 -40.5q-89 0 -142.5 40.5t-63.5 116.5l64 11q21 -109 146 -109q120 0 120 89q0 35 -19.5 56.5t-73.5 44.5l-108 45q-65 27 -93.5 62t-28.5 88q0 70 62 105q-45 39 -45 103q0 68 50 108.5t136 40.5
q80 0 130 -37.5t60 -105.5l-69 -16q-14 102 -124 102q-53 0 -83.5 -22.5t-30.5 -61.5q0 -37 21 -58.5t82 -46.5l99 -39q66 -27 95.5 -63t29.5 -90zM236 252l73 -31q28 -11 51 -26q29 29 29 70q0 40 -25 63.5t-97 54.5l-93 39q-11 4 -29 14q-33 -25 -33 -67q0 -40 23.5 -62.5
t100.5 -54.5z" />
    <glyph glyph-name="dieresis" unicode="&#xa8;" horiz-adv-x="600" 
d="M50 592v106h79v-106h-79zM252 592v106h79v-106h-79z" />
    <glyph glyph-name="copyright" unicode="&#xa9;" horiz-adv-x="842" 
d="M421 -17q-156 0 -263.5 102.5t-107.5 269.5q0 168 107.5 270t263.5 102t263.5 -102t107.5 -270q0 -167 -107.5 -269.5t-263.5 -102.5zM421 23q137 0 232 91.5t95 240.5q0 150 -95 241t-232 91t-232 -91t-95 -241q0 -149 95 -240.5t232 -91.5zM423 142q-86 0 -136 57
t-50 155q0 97 50 155.5t136 58.5q68 0 111.5 -37.5t47.5 -98.5l-59 -6q-5 42 -31.5 67t-70.5 25q-58 0 -92 -44.5t-34 -119.5q0 -74 34.5 -118t93.5 -44q41 0 69 25t33 65l58 -8q-9 -59 -53.5 -95.5t-106.5 -36.5z" />
    <glyph glyph-name="ordfeminine" unicode="&#xaa;" horiz-adv-x="434" 
d="M172 301q-57 0 -91 29t-34 76q0 53 39.5 77.5t114.5 33.5l100 13l1 8q0 54 -21 77.5t-67 23.5q-42 0 -66.5 -20.5t-25.5 -59.5h-64q3 59 44.5 92t111.5 33q78 0 114 -36t36 -114v-101q0 -75 10 -123h-62q-6 41 -7 76q-14 -40 -49 -62.5t-84 -22.5zM191 345q50 0 81 32.5
t31 83.5v33l-97 -13q-95 -13 -95 -71q0 -29 21.5 -47t58.5 -18z" />
    <glyph glyph-name="guillemotleft" unicode="&#xab;" horiz-adv-x="500" 
d="M207 67l-170 208l171 208h74l-166 -208l166 -208h-75zM394 67l-170 208l171 208h74l-166 -208l166 -208h-75z" />
    <glyph glyph-name="logicalnot" unicode="&#xac;" 
d="M73 367h458v-236h-66v170h-392v66z" />
    <glyph glyph-name="registered" unicode="&#xae;" horiz-adv-x="842" 
d="M421 727q156 0 263.5 -102t107.5 -270q0 -167 -107.5 -269.5t-263.5 -102.5t-263.5 102.5t-107.5 269.5q0 168 107.5 270t263.5 102zM421 23q137 0 232 91.5t95 240.5q0 150 -95 241t-232 91t-232 -91t-95 -241q0 -149 95 -240.5t232 -91.5zM571 446q0 -39 -22 -68.5
t-64 -41.5l101 -180h-64l-94 175h-80v-175h-55v406h142q66 0 101 -30.5t35 -85.5zM348 515v-137h84q84 0 84 68q0 69 -80 69h-88z" />
    <glyph glyph-name="macron" unicode="&#xaf;" horiz-adv-x="600" 
d="M50 619v56h291v-56h-291z" />
    <glyph glyph-name="degree" unicode="&#xb0;" horiz-adv-x="408" 
d="M204 374q-74 0 -123 47.5t-49 124.5q0 76 48.5 123.5t123.5 47.5q74 0 123 -47.5t49 -123.5q0 -77 -49 -124.5t-123 -47.5zM204 435q47 0 77 31t30 80t-30 79.5t-77 30.5t-77 -30.5t-30 -79.5t30 -80t77 -31z" />
    <glyph glyph-name="plusminus" unicode="&#xb1;" 
d="M343 361h202v-60h-202v-169h-69v169h-199v60h199v172h69v-172zM75 0v65h470v-65h-470z" />
    <glyph glyph-name="acute" unicode="&#xb4;" horiz-adv-x="600" 
d="M48 580l99 143h86l-119 -143h-66z" />
    <glyph glyph-name="uni00B5" unicode="&#xb5;" horiz-adv-x="589" 
d="M424 500h70v-500h-66v103q-18 -51 -62 -83t-100 -32q-68 0 -109 30v-213h-62v695h69v-310q0 -71 30.5 -106.5t83.5 -35.5q67 0 106.5 50.5t39.5 128.5v273z" />
    <glyph glyph-name="paragraph" unicode="&#xb6;" horiz-adv-x="665" 
d="M279 361q-231 0 -231 178q0 65 34.5 107t85 58t116.5 16h312v-48h-100v-772h-55v772h-107v-772h-55v461z" />
    <glyph glyph-name="periodcentered" unicode="&#xb7;" horiz-adv-x="238" 
d="M166 398v-112h-94v112h94z" />
    <glyph glyph-name="cedilla" unicode="&#xb8;" horiz-adv-x="600" 
d="M118 5h46l-37 -61q14 12 42 12q32 0 52 -20t20 -54q0 -37 -27 -59.5t-71 -22.5q-77 0 -95 63l49 7q8 -31 45 -31q20 0 32.5 12t12.5 32q0 19 -11.5 30.5t-31.5 11.5q-21 0 -37 -16l-33 11z" />
    <glyph glyph-name="ordmasculine" unicode="&#xba;" horiz-adv-x="444" 
d="M222 301q-80 0 -128 51t-48 141q0 89 48 140t128 51t128 -51t48 -140q0 -90 -48 -141t-128 -51zM222 348q53 0 83.5 37.5t30.5 107.5q0 69 -30.5 106.5t-83.5 37.5t-83.5 -37.5t-30.5 -106.5q0 -70 30.5 -107.5t83.5 -37.5z" />
    <glyph glyph-name="guillemotright" unicode="&#xbb;" horiz-adv-x="500" 
d="M106 67h-75l166 208l-166 208h74l171 -208zM293 67h-75l166 208l-166 208h74l171 -208z" />
    <glyph glyph-name="onequarter" unicode="&#xbc;" horiz-adv-x="764" 
d="M107 -17l431 744h62l-430 -744h-63zM121 333v294q-29 -37 -81 -37h-12v54h8q75 0 96 67h47v-378h-58zM732 92h-64v-92h-56v92h-196v43l190 243h62v-242h64v-44zM612 323l-147 -187h147v187z" />
    <glyph glyph-name="onehalf" unicode="&#xbd;" horiz-adv-x="804" 
d="M107 -17l431 744h62l-430 -744h-63zM121 333v294q-29 -37 -81 -37h-12v54h8q75 0 96 67h47v-378h-58zM480 0v44q69 42 110.5 71t75.5 70.5t34 81.5q0 35 -20 54t-56 19q-38 0 -59.5 -19t-21.5 -53q0 -12 5 -30l-61 5q-3 13 -3 31q0 53 38 83t105 30q63 0 98.5 -30
t35.5 -85q0 -64 -59 -123.5t-142 -103.5h210v-45h-290z" />
    <glyph glyph-name="threequarters" unicode="&#xbe;" horiz-adv-x="869" 
d="M212 -17l431 744h62l-430 -744h-63zM181 325q-68 0 -107.5 32t-40.5 88l59 5q2 -38 25.5 -59t63.5 -21q85 0 85 71q0 30 -22.5 46.5t-63.5 16.5h-37v43h33q37 0 58.5 17t21.5 45q0 32 -20 49.5t-57 17.5q-39 0 -62 -21.5t-23 -59.5l-58 5q0 56 39 88t107 32
q63 0 98.5 -28t35.5 -77q0 -33 -23 -57.5t-60 -28.5q43 -4 69.5 -29t26.5 -64q0 -52 -39.5 -81.5t-108.5 -29.5zM837 92h-64v-92h-56v92h-196v43l190 243h62v-242h64v-44zM717 323l-147 -187h147v187z" />
    <glyph glyph-name="questiondown" unicode="&#xbf;" horiz-adv-x="464" 
d="M284 580v-106h-85v106h85zM278 393v-39q0 -71 -60 -128l-48 -45q-73 -66 -73 -143q0 -56 36.5 -88.5t98.5 -32.5q64 0 103.5 38t39.5 106q0 24 -4 47l75 -8q3 -22 3 -48q0 -89 -57.5 -144t-162.5 -55q-98 0 -154 48.5t-56 135.5q0 92 94 179l49 45q26 24 35.5 46.5
t9.5 58.5v27h71z" />
    <glyph glyph-name="Agrave" unicode="&#xc0;" horiz-adv-x="664" 
d="M366 753h-68l-102 103h79zM560 0l-75 207h-306l-75 -207h-81l271 710h77l270 -710h-81zM203 273h258l-105 291q-18 50 -23 69h-2q-9 -34 -23 -69z" />
    <glyph glyph-name="Aacute" unicode="&#xc1;" horiz-adv-x="664" 
d="M468 856l-102 -103h-68l91 103h79zM560 0l-75 207h-306l-75 -207h-81l271 710h77l270 -710h-81zM203 273h258l-105 291q-18 50 -23 69h-2q-9 -34 -23 -69z" />
    <glyph glyph-name="Acircumflex" unicode="&#xc2;" horiz-adv-x="664" 
d="M332 826l-71 -73h-73l101 103h86l100 -103h-72zM560 0l-75 207h-306l-75 -207h-81l271 710h77l270 -710h-81zM203 273h258l-105 291q-18 50 -23 69h-2q-9 -34 -23 -69z" />
    <glyph glyph-name="Atilde" unicode="&#xc3;" horiz-adv-x="664" 
d="M265 805q-40 0 -50 -53l-49 9q7 47 33 72.5t68 25.5q35 0 73.5 -28.5t59.5 -28.5q39 0 49 53l49 -8q-6 -48 -32 -73.5t-69 -25.5q-35 0 -73 28.5t-59 28.5zM560 0l-75 207h-306l-75 -207h-81l271 710h77l270 -710h-81zM203 273h258l-105 291q-18 50 -23 69h-2
q-9 -34 -23 -69z" />
    <glyph glyph-name="Adieresis" unicode="&#xc4;" horiz-adv-x="664" 
d="M263 849v-96h-79v96h79zM481 849v-96h-79v96h79zM560 0l-75 207h-306l-75 -207h-81l271 710h77l270 -710h-81zM203 273h258l-105 291q-18 50 -23 69h-2q-9 -34 -23 -69z" />
    <glyph glyph-name="Aring" unicode="&#xc5;" horiz-adv-x="664" 
d="M332 738q-46 0 -75.5 27.5t-29.5 71.5t29.5 72t75.5 28q47 0 76 -28t29 -72t-29 -71.5t-76 -27.5zM332 896q-25 0 -41 -16.5t-16 -42.5t16 -42t41 -16q26 0 41.5 16t15.5 42t-15.5 42.5t-41.5 16.5zM560 0l-75 207h-306l-75 -207h-81l271 710h77l270 -710h-81zM203 273
h258l-105 291q-18 50 -23 69h-2q-9 -34 -23 -69z" />
    <glyph glyph-name="AE" unicode="&#xc6;" horiz-adv-x="929" 
d="M522 66h341v-66h-419v177h-262l-100 -177h-83l418 710h439v-66h-334v-247h317v-66h-317v-265zM219 242h225v397z" />
    <glyph glyph-name="Ccedilla" unicode="&#xc7;" horiz-adv-x="699" 
d="M367 51q82 0 135.5 49t70.5 136l75 -12q-20 -104 -85 -169t-177 -71l-24 -40q14 12 42 12q32 0 52 -20t20 -54q0 -37 -27 -59.5t-71 -22.5q-77 0 -95 63l49 7q8 -31 45 -31q20 0 32.5 12t12.5 32q0 19 -11.5 30.5t-31.5 11.5q-21 0 -37 -16l-33 11l33 64
q-144 9 -218 112.5t-74 260.5q0 168 83.5 269t235.5 101q124 0 194.5 -67.5t84.5 -182.5l-79 -8q-12 88 -64.5 139.5t-139.5 51.5q-110 0 -172 -82t-62 -220q0 -136 61 -221.5t175 -85.5z" />
    <glyph glyph-name="Egrave" unicode="&#xc8;" horiz-adv-x="611" 
d="M357 753h-68l-102 103h79zM182 66h363v-66h-440v710h433v-66h-356v-247h339v-66h-339v-265z" />
    <glyph glyph-name="Eacute" unicode="&#xc9;" horiz-adv-x="611" 
d="M459 856l-102 -103h-68l91 103h79zM182 66h363v-66h-440v710h433v-66h-356v-247h339v-66h-339v-265z" />
    <glyph glyph-name="Ecircumflex" unicode="&#xca;" horiz-adv-x="611" 
d="M323 826l-71 -73h-73l101 103h86l100 -103h-72zM182 66h363v-66h-440v710h433v-66h-356v-247h339v-66h-339v-265z" />
    <glyph glyph-name="Edieresis" unicode="&#xcb;" horiz-adv-x="611" 
d="M254 849v-96h-79v96h79zM472 849v-96h-79v96h79zM182 66h363v-66h-440v710h433v-66h-356v-247h339v-66h-339v-265z" />
    <glyph glyph-name="Igrave" unicode="&#xcc;" horiz-adv-x="287" 
d="M176 753h-63l-69 103h73zM182 0h-77v710h77v-710z" />
    <glyph glyph-name="Iacute" unicode="&#xcd;" horiz-adv-x="287" 
d="M112 753l59 103h73l-69 -103h-63zM182 0h-77v710h77v-710z" />
    <glyph glyph-name="Icircumflex" unicode="&#xce;" horiz-adv-x="287" 
d="M261 753h-69l-48 73l-49 -73h-68l74 103h86zM182 0h-77v710h77v-710z" />
    <glyph glyph-name="Idieresis" unicode="&#xcf;" horiz-adv-x="287" 
d="M31 753v96h79v-96h-79zM179 753v96h79v-96h-79zM182 0h-77v710h77v-710z" />
    <glyph glyph-name="Eth" unicode="&#xd0;" horiz-adv-x="716" 
d="M330 710q153 0 245 -97.5t92 -256.5q0 -157 -93 -256.5t-246 -99.5h-223v341h-87v60h87v309h225zM327 66q118 0 187.5 82t69.5 208q0 129 -68 208.5t-187 79.5h-147v-243h184v-60h-184v-275h145z" />
    <glyph glyph-name="Ntilde" unicode="&#xd1;" horiz-adv-x="744" 
d="M437 748q-35 0 -73 28.5t-59 28.5q-40 0 -50 -53l-49 9q7 47 33 72.5t68 25.5q35 0 73.5 -28.5t59.5 -28.5q39 0 49 53l49 -8q-6 -48 -32 -73.5t-69 -25.5zM105 0v710h94l329 -542q29 -50 42 -82h2q-3 36 -3 87v537h70v-710h-94l-329 543q-31 54 -42 82h-2q3 -36 3 -87
v-538h-70z" />
    <glyph glyph-name="Ograve" unicode="&#xd2;" horiz-adv-x="740" 
d="M404 753h-68l-102 103h79zM370 -17q-146 0 -233 101.5t-87 270.5q0 172 87 272t233 100t233 -100t87 -272q0 -171 -87 -271.5t-233 -100.5zM370 49q112 0 175.5 82t63.5 224t-63.5 224t-175.5 82q-111 0 -175 -82t-64 -224q0 -139 64 -222.5t175 -83.5z" />
    <glyph glyph-name="Oacute" unicode="&#xd3;" horiz-adv-x="740" 
d="M336 753l91 103h79l-102 -103h-68zM370 -17q-146 0 -233 101.5t-87 270.5q0 172 87 272t233 100t233 -100t87 -272q0 -171 -87 -271.5t-233 -100.5zM370 49q112 0 175.5 82t63.5 224t-63.5 224t-175.5 82q-111 0 -175 -82t-64 -224q0 -139 64 -222.5t175 -83.5z" />
    <glyph glyph-name="Ocircumflex" unicode="&#xd4;" horiz-adv-x="740" 
d="M513 753h-72l-71 73l-71 -73h-73l101 103h86zM370 -17q-146 0 -233 101.5t-87 270.5q0 172 87 272t233 100t233 -100t87 -272q0 -171 -87 -271.5t-233 -100.5zM370 49q112 0 175.5 82t63.5 224t-63.5 224t-175.5 82q-111 0 -175 -82t-64 -224q0 -139 64 -222.5t175 -83.5
z" />
    <glyph glyph-name="Otilde" unicode="&#xd5;" horiz-adv-x="740" 
d="M435 748q-35 0 -73 28.5t-59 28.5q-40 0 -50 -53l-49 9q7 47 33 72.5t68 25.5q35 0 73.5 -28.5t59.5 -28.5q39 0 49 53l49 -8q-6 -48 -32 -73.5t-69 -25.5zM370 -17q-146 0 -233 101.5t-87 270.5q0 172 87 272t233 100t233 -100t87 -272q0 -171 -87 -271.5t-233 -100.5z
M370 49q112 0 175.5 82t63.5 224t-63.5 224t-175.5 82q-111 0 -175 -82t-64 -224q0 -139 64 -222.5t175 -83.5z" />
    <glyph glyph-name="Odieresis" unicode="&#xd6;" horiz-adv-x="740" 
d="M222 753v96h79v-96h-79zM440 753v96h79v-96h-79zM370 -17q-146 0 -233 101.5t-87 270.5q0 172 87 272t233 100t233 -100t87 -272q0 -171 -87 -271.5t-233 -100.5zM370 49q112 0 175.5 82t63.5 224t-63.5 224t-175.5 82q-111 0 -175 -82t-64 -224q0 -139 64 -222.5
t175 -83.5z" />
    <glyph glyph-name="multiply" unicode="&#xd7;" 
d="M548 518l-191 -191l191 -190l-47 -48l-191 191l-191 -191l-47 47l191 191l-191 191l47 47l191 -190l190 190z" />
    <glyph glyph-name="Oslash" unicode="&#xd8;" horiz-adv-x="740" 
d="M610 619q80 -100 80 -264q0 -171 -87 -271.5t-233 -100.5q-118 0 -200 69l-48 -61l-45 33l53 69q-80 100 -80 262q0 172 87 272t233 100q119 0 201 -68l46 59l45 -33zM131 355q0 -119 48 -200l347 446q-62 60 -156 60q-111 0 -175 -82t-64 -224zM370 49q112 0 175.5 82
t63.5 224q0 120 -48 201l-346 -446q61 -61 155 -61z" />
    <glyph glyph-name="Ugrave" unicode="&#xd9;" horiz-adv-x="711" 
d="M390 753h-68l-102 103h79zM90 710h77v-460q0 -92 49 -145t139 -53t139.5 53t49.5 145v460h78v-465q0 -120 -70 -191t-197 -71q-126 0 -195.5 71t-69.5 191v465z" />
    <glyph glyph-name="Uacute" unicode="&#xda;" horiz-adv-x="711" 
d="M322 753l91 103h79l-102 -103h-68zM90 710h77v-460q0 -92 49 -145t139 -53t139.5 53t49.5 145v460h78v-465q0 -120 -70 -191t-197 -71q-126 0 -195.5 71t-69.5 191v465z" />
    <glyph glyph-name="Ucircumflex" unicode="&#xdb;" horiz-adv-x="711" 
d="M499 753h-72l-71 73l-71 -73h-73l101 103h86zM90 710h77v-460q0 -92 49 -145t139 -53t139.5 53t49.5 145v460h78v-465q0 -120 -70 -191t-197 -71q-126 0 -195.5 71t-69.5 191v465z" />
    <glyph glyph-name="Udieresis" unicode="&#xdc;" horiz-adv-x="711" 
d="M208 753v96h79v-96h-79zM426 753v96h79v-96h-79zM90 710h77v-460q0 -92 49 -145t139 -53t139.5 53t49.5 145v460h78v-465q0 -120 -70 -191t-197 -71q-126 0 -195.5 71t-69.5 191v465z" />
    <glyph glyph-name="Yacute" unicode="&#xdd;" horiz-adv-x="573" 
d="M253 753l91 103h79l-102 -103h-68zM247 0v285l-245 425h87l173 -307q11 -21 24 -48h2q6 15 24 48l172 307h87l-245 -425v-285h-79z" />
    <glyph glyph-name="Thorn" unicode="&#xde;" horiz-adv-x="569" 
d="M328 568q101 0 160 -51.5t59 -140.5q0 -88 -60 -142t-159 -54h-146v-180h-77v710h77v-142h146zM324 246q63 0 101.5 36t38.5 94t-38 92t-102 34h-142v-256h142z" />
    <glyph glyph-name="germandbls" unicode="&#xdf;" horiz-adv-x="568" 
d="M90 526q0 101 52 156t146 55q88 0 138.5 -43t50.5 -123q0 -70 -38 -115.5t-103 -52.5q89 -8 137.5 -57.5t48.5 -134.5q0 -104 -60.5 -160t-173.5 -56q-37 0 -61 5v58q25 -4 59 -4q80 0 121 40t41 117q0 153 -185 159h-40v59h41q67 3 103 38.5t36 98.5q0 54 -32 84.5
t-88 30.5q-124 0 -124 -158v-523h-69v526z" />
    <glyph glyph-name="agrave" unicode="&#xe0;" horiz-adv-x="538" 
d="M297 580h-66l-119 143h86zM216 -12q-75 0 -120.5 39.5t-45.5 104.5q0 74 61 112q53 31 164 45l111 13v8q0 77 -28.5 110.5t-92.5 33.5q-57 0 -89.5 -28.5t-35.5 -81.5h-75q4 77 58.5 122.5t140.5 45.5q101 0 146.5 -49t45.5 -158v-130q0 -115 16 -175h-73q-7 40 -9 100
q-18 -53 -64 -82.5t-110 -29.5zM232 46q70 0 112.5 47.5t42.5 124.5v32l-142 -20q-64 -9 -93 -32t-29 -64t29.5 -64.5t79.5 -23.5z" />
    <glyph glyph-name="aacute" unicode="&#xe1;" horiz-adv-x="538" 
d="M234 580l99 143h86l-119 -143h-66zM216 -12q-75 0 -120.5 39.5t-45.5 104.5q0 74 61 112q53 31 164 45l111 13v8q0 77 -28.5 110.5t-92.5 33.5q-57 0 -89.5 -28.5t-35.5 -81.5h-75q4 77 58.5 122.5t140.5 45.5q101 0 146.5 -49t45.5 -158v-130q0 -115 16 -175h-73
q-7 40 -9 100q-18 -53 -64 -82.5t-110 -29.5zM232 46q70 0 112.5 47.5t42.5 124.5v32l-142 -20q-64 -9 -93 -32t-29 -64t29.5 -64.5t79.5 -23.5z" />
    <glyph glyph-name="acircumflex" unicode="&#xe2;" horiz-adv-x="538" 
d="M414 580h-66l-82 107l-81 -107h-66l111 143h72zM216 -12q-75 0 -120.5 39.5t-45.5 104.5q0 74 61 112q53 31 164 45l111 13v8q0 77 -28.5 110.5t-92.5 33.5q-57 0 -89.5 -28.5t-35.5 -81.5h-75q4 77 58.5 122.5t140.5 45.5q101 0 146.5 -49t45.5 -158v-130
q0 -115 16 -175h-73q-7 40 -9 100q-18 -53 -64 -82.5t-110 -29.5zM232 46q70 0 112.5 47.5t42.5 124.5v32l-142 -20q-64 -9 -93 -32t-29 -64t29.5 -64.5t79.5 -23.5z" />
    <glyph glyph-name="atilde" unicode="&#xe3;" horiz-adv-x="538" 
d="M338 590q-31 0 -57 17.5t-48 35t-43 17.5q-39 0 -51 -61l-49 8q7 52 33.5 81t69.5 29q25 0 46.5 -11t35 -24.5t31.5 -24.5t35 -11q40 0 52 62l48 -9q-6 -52 -33 -80.5t-70 -28.5zM216 -12q-75 0 -120.5 39.5t-45.5 104.5q0 74 61 112q53 31 164 45l111 13v8
q0 77 -28.5 110.5t-92.5 33.5q-57 0 -89.5 -28.5t-35.5 -81.5h-75q4 77 58.5 122.5t140.5 45.5q101 0 146.5 -49t45.5 -158v-130q0 -115 16 -175h-73q-7 40 -9 100q-18 -53 -64 -82.5t-110 -29.5zM232 46q70 0 112.5 47.5t42.5 124.5v32l-142 -20q-64 -9 -93 -32t-29 -64
t29.5 -64.5t79.5 -23.5z" />
    <glyph glyph-name="adieresis" unicode="&#xe4;" horiz-adv-x="538" 
d="M126 592v106h79v-106h-79zM328 592v106h79v-106h-79zM216 -12q-75 0 -120.5 39.5t-45.5 104.5q0 74 61 112q53 31 164 45l111 13v8q0 77 -28.5 110.5t-92.5 33.5q-57 0 -89.5 -28.5t-35.5 -81.5h-75q4 77 58.5 122.5t140.5 45.5q101 0 146.5 -49t45.5 -158v-130
q0 -115 16 -175h-73q-7 40 -9 100q-18 -53 -64 -82.5t-110 -29.5zM232 46q70 0 112.5 47.5t42.5 124.5v32l-142 -20q-64 -9 -93 -32t-29 -64t29.5 -64.5t79.5 -23.5z" />
    <glyph glyph-name="aring" unicode="&#xe5;" horiz-adv-x="538" 
d="M266 559q-47 0 -76.5 27.5t-29.5 71.5t29.5 71.5t76.5 27.5t76 -27.5t29 -71.5t-29 -71.5t-76 -27.5zM266 599q25 0 40.5 16.5t15.5 42.5t-15.5 42.5t-40.5 16.5t-41 -16.5t-16 -42.5t16 -42.5t41 -16.5zM216 -12q-75 0 -120.5 39.5t-45.5 104.5q0 74 61 112
q53 31 164 45l111 13v8q0 77 -28.5 110.5t-92.5 33.5q-57 0 -89.5 -28.5t-35.5 -81.5h-75q4 77 58.5 122.5t140.5 45.5q101 0 146.5 -49t45.5 -158v-130q0 -115 16 -175h-73q-7 40 -9 100q-18 -53 -64 -82.5t-110 -29.5zM232 46q70 0 112.5 47.5t42.5 124.5v32l-142 -20
q-64 -9 -93 -32t-29 -64t29.5 -64.5t79.5 -23.5z" />
    <glyph glyph-name="ae" unicode="&#xe6;" horiz-adv-x="848" 
d="M794 269v-36h-342q1 -85 40.5 -134t107.5 -49q49 0 84 28t49 79l58 -24q-22 -70 -72.5 -107.5t-122.5 -37.5q-140 0 -187 126q-24 -61 -75 -93.5t-121 -32.5q-74 0 -118.5 38t-44.5 102q0 130 177 148l154 16v20q0 141 -121 141q-57 0 -89 -28t-35 -81h-71q5 79 56 123.5
t139 44.5q124 0 164 -93q54 93 171 93q96 0 147.5 -63.5t51.5 -179.5zM722 290q1 78 -32.5 122.5t-94.5 44.5q-62 0 -102 -45.5t-41 -121.5h270zM382 218v21l-134 -14q-67 -7 -96 -30.5t-29 -67.5q0 -36 28.5 -58.5t74.5 -22.5q64 0 110 43.5t46 128.5z" />
    <glyph glyph-name="ccedilla" unicode="&#xe7;" horiz-adv-x="526" 
d="M275 49q115 0 135 128l67 -10q-13 -79 -59.5 -125t-119.5 -53l-27 -45q14 12 42 12q32 0 52 -20t20 -54q0 -37 -27 -59.5t-71 -22.5q-77 0 -95 63l49 7q8 -31 45 -31q20 0 32.5 12t12.5 32q0 19 -11.5 30.5t-31.5 11.5q-21 0 -37 -16l-33 11l36 69q-96 8 -151 77.5
t-55 183.5q0 122 61 192t166 70q86 0 139.5 -48t62.5 -133l-71 -8q-7 62 -42 95t-92 33q-70 0 -110 -53t-40 -147q0 -96 40.5 -149t112.5 -53z" />
    <glyph glyph-name="egrave" unicode="&#xe8;" horiz-adv-x="534" 
d="M296 580h-66l-119 143h86zM481 280v-48h-363q1 -84 44 -133t116 -49q52 0 88.5 28t52.5 79l59 -24q-23 -70 -76 -107.5t-129 -37.5q-107 0 -166 67t-59 192q0 123 59.5 194t162.5 71q101 0 156 -59.5t55 -172.5zM410 289v9q0 77 -37 117.5t-104 40.5q-69 0 -109 -44.5
t-42 -122.5h292z" />
    <glyph glyph-name="eacute" unicode="&#xe9;" horiz-adv-x="534" 
d="M418 723l-119 -143h-66l99 143h86zM481 280v-48h-363q1 -84 44 -133t116 -49q52 0 88.5 28t52.5 79l59 -24q-23 -70 -76 -107.5t-129 -37.5q-107 0 -166 67t-59 192q0 123 59.5 194t162.5 71q101 0 156 -59.5t55 -172.5zM410 289v9q0 77 -37 117.5t-104 40.5
q-69 0 -109 -44.5t-42 -122.5h292z" />
    <glyph glyph-name="ecircumflex" unicode="&#xea;" horiz-adv-x="534" 
d="M265 687l-81 -107h-66l111 143h72l112 -143h-66zM481 280v-48h-363q1 -84 44 -133t116 -49q52 0 88.5 28t52.5 79l59 -24q-23 -70 -76 -107.5t-129 -37.5q-107 0 -166 67t-59 192q0 123 59.5 194t162.5 71q101 0 156 -59.5t55 -172.5zM410 289v9q0 77 -37 117.5
t-104 40.5q-69 0 -109 -44.5t-42 -122.5h292z" />
    <glyph glyph-name="edieresis" unicode="&#xeb;" horiz-adv-x="534" 
d="M204 698v-106h-79v106h79zM406 698v-106h-79v106h79zM481 280v-48h-363q1 -84 44 -133t116 -49q52 0 88.5 28t52.5 79l59 -24q-23 -70 -76 -107.5t-129 -37.5q-107 0 -166 67t-59 192q0 123 59.5 194t162.5 71q101 0 156 -59.5t55 -172.5zM410 289v9q0 77 -37 117.5
t-104 40.5q-69 0 -109 -44.5t-42 -122.5h292z" />
    <glyph glyph-name="igrave" unicode="&#xec;" horiz-adv-x="259" 
d="M162 580h-65l-76 143h78zM95 0v500h69v-500h-69z" />
    <glyph glyph-name="iacute" unicode="&#xed;" horiz-adv-x="259" 
d="M99 580l63 143h78l-76 -143h-65zM95 0v500h69v-500h-69z" />
    <glyph glyph-name="icircumflex" unicode="&#xee;" horiz-adv-x="259" 
d="M246 580h-62l-54 107l-54 -107h-61l79 143h72zM95 0v500h69v-500h-69z" />
    <glyph glyph-name="idieresis" unicode="&#xef;" horiz-adv-x="259" 
d="M21 592v106h79v-106h-79zM159 592v106h79v-106h-79zM95 0v500h69v-500h-69z" />
    <glyph glyph-name="eth" unicode="&#xf0;" horiz-adv-x="536" 
d="M375 623q124 -143 122 -365q0 -120 -63 -195t-164 -75q-103 0 -162.5 71t-59.5 193q0 119 59 189.5t157 70.5t138 -83h2q-24 98 -91 171l-137 -52l-17 37l122 46q-53 44 -112 61l43 45q75 -27 133 -82l80 30l16 -37zM273 50q72 0 112.5 53t40.5 149t-40 148.5t-113 52.5
q-70 0 -110.5 -53.5t-40.5 -147.5t40.5 -148t110.5 -54z" />
    <glyph glyph-name="ntilde" unicode="&#xf1;" horiz-adv-x="581" 
d="M383 590q-31 0 -57 17.5t-48 35t-43 17.5q-39 0 -51 -61l-49 8q7 52 33.5 81t69.5 29q25 0 46.5 -11t35 -24.5t31.5 -24.5t35 -11q40 0 52 62l48 -9q-6 -52 -33 -80.5t-70 -28.5zM95 0v500h66v-110q45 124 171 124q170 0 170 -205v-309h-70v305q0 147 -121 147
q-68 0 -107.5 -50.5t-39.5 -138.5v-263h-69z" />
    <glyph glyph-name="ograve" unicode="&#xf2;" horiz-adv-x="555" 
d="M309 580h-66l-119 143h86zM278 -12q-105 0 -167.5 70.5t-62.5 191.5t62.5 191.5t167.5 70.5q104 0 166.5 -70.5t62.5 -191.5t-62.5 -191.5t-166.5 -70.5zM278 49q73 0 114 52t41 149t-41 149t-114 52t-114.5 -52t-41.5 -149t41.5 -149t114.5 -52z" />
    <glyph glyph-name="oacute" unicode="&#xf3;" horiz-adv-x="555" 
d="M246 580l99 143h86l-119 -143h-66zM278 -12q-105 0 -167.5 70.5t-62.5 191.5t62.5 191.5t167.5 70.5q104 0 166.5 -70.5t62.5 -191.5t-62.5 -191.5t-166.5 -70.5zM278 49q73 0 114 52t41 149t-41 149t-114 52t-114.5 -52t-41.5 -149t41.5 -149t114.5 -52z" />
    <glyph glyph-name="ocircumflex" unicode="&#xf4;" horiz-adv-x="555" 
d="M426 580h-66l-82 107l-81 -107h-66l111 143h72zM278 -12q-105 0 -167.5 70.5t-62.5 191.5t62.5 191.5t167.5 70.5q104 0 166.5 -70.5t62.5 -191.5t-62.5 -191.5t-166.5 -70.5zM278 49q73 0 114 52t41 149t-41 149t-114 52t-114.5 -52t-41.5 -149t41.5 -149t114.5 -52z
" />
    <glyph glyph-name="otilde" unicode="&#xf5;" horiz-adv-x="555" 
d="M350 590q-31 0 -57 17.5t-48 35t-43 17.5q-39 0 -51 -61l-49 8q7 52 33.5 81t69.5 29q25 0 46.5 -11t35 -24.5t31.5 -24.5t35 -11q40 0 52 62l48 -9q-6 -52 -33 -80.5t-70 -28.5zM278 -12q-105 0 -167.5 70.5t-62.5 191.5t62.5 191.5t167.5 70.5q104 0 166.5 -70.5
t62.5 -191.5t-62.5 -191.5t-166.5 -70.5zM278 49q73 0 114 52t41 149t-41 149t-114 52t-114.5 -52t-41.5 -149t41.5 -149t114.5 -52z" />
    <glyph glyph-name="odieresis" unicode="&#xf6;" horiz-adv-x="555" 
d="M138 592v106h79v-106h-79zM340 592v106h79v-106h-79zM278 -12q-105 0 -167.5 70.5t-62.5 191.5t62.5 191.5t167.5 70.5q104 0 166.5 -70.5t62.5 -191.5t-62.5 -191.5t-166.5 -70.5zM278 49q73 0 114 52t41 149t-41 149t-114 52t-114.5 -52t-41.5 -149t41.5 -149
t114.5 -52z" />
    <glyph glyph-name="divide" unicode="&#xf7;" horiz-adv-x="575" 
d="M285 469q-20 0 -33.5 13t-13.5 34t13 33.5t34 12.5t34 -12.5t13 -33.5t-13.5 -34t-33.5 -13zM52 296v62h470v-62h-470zM285 91q-20 0 -33.5 13t-13.5 34t13.5 34t33.5 13q21 0 34 -13t13 -34t-13.5 -34t-33.5 -13z" />
    <glyph glyph-name="oslash" unicode="&#xf8;" horiz-adv-x="555" 
d="M452 433q55 -71 55 -183q0 -121 -62.5 -191.5t-166.5 -70.5q-85 0 -143 47l-37 -47l-36 27l41 52q-55 71 -55 183q0 121 62.5 191.5t167.5 70.5q84 0 142 -47l37 47l37 -26zM122 250q0 -78 27 -126l230 289q-40 38 -101 38q-73 0 -114.5 -52t-41.5 -149zM278 49
q73 0 114 52t41 149q0 77 -26 126l-231 -289q40 -38 102 -38z" />
    <glyph glyph-name="ugrave" unicode="&#xf9;" horiz-adv-x="574" 
d="M311 580h-66l-119 143h86zM251 -12q-171 0 -171 195v317h69v-310q0 -71 30.5 -106.5t83.5 -35.5q67 0 106.5 50.5t39.5 128.5v273h70v-500h-66v103q-18 -51 -62 -83t-100 -32z" />
    <glyph glyph-name="uacute" unicode="&#xfa;" horiz-adv-x="574" 
d="M248 580l99 143h86l-119 -143h-66zM251 -12q-171 0 -171 195v317h69v-310q0 -71 30.5 -106.5t83.5 -35.5q67 0 106.5 50.5t39.5 128.5v273h70v-500h-66v103q-18 -51 -62 -83t-100 -32z" />
    <glyph glyph-name="ucircumflex" unicode="&#xfb;" horiz-adv-x="574" 
d="M428 580h-66l-82 107l-81 -107h-66l111 143h72zM251 -12q-171 0 -171 195v317h69v-310q0 -71 30.5 -106.5t83.5 -35.5q67 0 106.5 50.5t39.5 128.5v273h70v-500h-66v103q-18 -51 -62 -83t-100 -32z" />
    <glyph glyph-name="udieresis" unicode="&#xfc;" horiz-adv-x="574" 
d="M140 592v106h79v-106h-79zM342 592v106h79v-106h-79zM251 -12q-171 0 -171 195v317h69v-310q0 -71 30.5 -106.5t83.5 -35.5q67 0 106.5 50.5t39.5 128.5v273h70v-500h-66v103q-18 -51 -62 -83t-100 -32z" />
    <glyph glyph-name="yacute" unicode="&#xfd;" horiz-adv-x="476" 
d="M207 580l99 143h86l-119 -143h-66zM87 -201q-24 0 -44 4v62q18 -3 35 -3q47 0 74 25.5t46 79.5l13 37l-200 496h78l134 -357q13 -34 22 -68h2q7 29 21 69l122 356h75l-195 -532q-33 -91 -76.5 -130t-106.5 -39z" />
    <glyph glyph-name="thorn" unicode="&#xfe;" horiz-adv-x="588" 
d="M100 -195v920h69v-324q24 53 67 82t99 29q94 0 149.5 -74.5t55.5 -187.5q0 -114 -55.5 -188t-149.5 -74q-117 0 -166 102v-285h-69zM317 50q69 0 109 56.5t40 143.5t-39.5 143.5t-108.5 56.5q-70 0 -110 -52t-40 -135v-25q0 -85 39.5 -136.5t109.5 -51.5z" />
    <glyph glyph-name="ydieresis" unicode="&#xff;" horiz-adv-x="476" 
d="M99 592v106h79v-106h-79zM301 592v106h79v-106h-79zM87 -201q-24 0 -44 4v62q18 -3 35 -3q47 0 74 25.5t46 79.5l13 37l-200 496h78l134 -357q13 -34 22 -68h2q7 29 21 69l122 356h75l-195 -532q-33 -91 -76.5 -130t-106.5 -39z" />
    <glyph glyph-name="Amacron" unicode="&#x100;" horiz-adv-x="664" 
d="M481 827v-57h-298v57h298zM560 0l-75 207h-306l-75 -207h-81l271 710h77l270 -710h-81zM203 273h258l-105 291q-18 50 -23 69h-2q-9 -34 -23 -69z" />
    <glyph glyph-name="amacron" unicode="&#x101;" horiz-adv-x="538" 
d="M120 619v56h291v-56h-291zM216 -12q-75 0 -120.5 39.5t-45.5 104.5q0 74 61 112q53 31 164 45l111 13v8q0 77 -28.5 110.5t-92.5 33.5q-57 0 -89.5 -28.5t-35.5 -81.5h-75q4 77 58.5 122.5t140.5 45.5q101 0 146.5 -49t45.5 -158v-130q0 -115 16 -175h-73q-7 40 -9 100
q-18 -53 -64 -82.5t-110 -29.5zM232 46q70 0 112.5 47.5t42.5 124.5v32l-142 -20q-64 -9 -93 -32t-29 -64t29.5 -64.5t79.5 -23.5z" />
    <glyph glyph-name="Abreve" unicode="&#x102;" horiz-adv-x="664" 
d="M332 748q-66 0 -102.5 28.5t-41.5 79.5h60q8 -60 84 -60q74 0 84 60h59q-5 -51 -41.5 -79.5t-101.5 -28.5zM560 0l-75 207h-306l-75 -207h-81l271 710h77l270 -710h-81zM203 273h258l-105 291q-18 50 -23 69h-2q-9 -34 -23 -69z" />
    <glyph glyph-name="abreve" unicode="&#x103;" horiz-adv-x="538" 
d="M179 723q6 -97 87 -97q39 0 61.5 24.5t24.5 72.5h60q-4 -75 -43.5 -111.5t-102.5 -36.5t-103 36.5t-43 111.5h59zM216 -12q-75 0 -120.5 39.5t-45.5 104.5q0 74 61 112q53 31 164 45l111 13v8q0 77 -28.5 110.5t-92.5 33.5q-57 0 -89.5 -28.5t-35.5 -81.5h-75
q4 77 58.5 122.5t140.5 45.5q101 0 146.5 -49t45.5 -158v-130q0 -115 16 -175h-73q-7 40 -9 100q-18 -53 -64 -82.5t-110 -29.5zM232 46q70 0 112.5 47.5t42.5 124.5v32l-142 -20q-64 -9 -93 -32t-29 -64t29.5 -64.5t79.5 -23.5z" />
    <glyph glyph-name="Aogonek" unicode="&#x104;" horiz-adv-x="664" 
d="M604 -104l50 -6q-14 -93 -100 -93q-43 0 -69 23t-26 62q0 79 100 120l-74 205h-306l-75 -207h-81l271 710h77l270 -710h-15q-59 -18 -86 -47.5t-27 -63.5q0 -22 12 -34t32 -12q39 0 47 53zM203 273h258l-105 291q-18 50 -23 69h-2q-9 -34 -23 -69z" />
    <glyph glyph-name="aogonek" unicode="&#x105;" horiz-adv-x="538" 
d="M447 -104l50 -6q-14 -93 -100 -93q-43 0 -69 23t-26 62q0 77 97 118q-7 40 -9 100q-18 -53 -64 -82.5t-110 -29.5q-75 0 -120.5 39.5t-45.5 104.5q0 74 61 112q53 31 164 45l111 13v8q0 77 -28.5 110.5t-92.5 33.5q-57 0 -89.5 -28.5t-35.5 -81.5h-75q4 77 58.5 122.5
t140.5 45.5q101 0 146.5 -49t45.5 -158v-130q0 -115 16 -175h-3q-59 -18 -86 -47.5t-27 -63.5q0 -22 12 -34t32 -12q39 0 47 53zM387 218v32l-142 -20q-64 -9 -93 -32t-29 -64t29.5 -64.5t79.5 -23.5q70 0 112.5 47.5t42.5 124.5z" />
    <glyph glyph-name="Cacute" unicode="&#x106;" horiz-adv-x="699" 
d="M332 753l91 103h79l-102 -103h-68zM366 -17q-156 0 -236 105t-80 269q0 168 83.5 269t235.5 101q124 0 194.5 -67.5t84.5 -182.5l-79 -8q-12 88 -64.5 139.5t-139.5 51.5q-110 0 -172 -82t-62 -220q0 -136 61 -221.5t175 -85.5q82 0 135.5 49t70.5 136l75 -12
q-21 -109 -91 -175t-191 -66z" />
    <glyph glyph-name="cacute" unicode="&#x107;" horiz-adv-x="526" 
d="M230 580l99 143h86l-119 -143h-66zM275 -12q-104 0 -165.5 70.5t-61.5 191.5q0 122 61 192t166 70q86 0 139.5 -48t62.5 -133l-71 -8q-7 62 -42 95t-92 33q-70 0 -110 -53t-40 -147q0 -96 40.5 -149t112.5 -53q115 0 135 128l67 -10q-14 -85 -67 -132t-135 -47z" />
    <glyph glyph-name="Ccircumflex" unicode="&#x108;" horiz-adv-x="699" 
d="M509 753h-72l-71 73l-71 -73h-73l101 103h86zM366 -17q-156 0 -236 105t-80 269q0 168 83.5 269t235.5 101q124 0 194.5 -67.5t84.5 -182.5l-79 -8q-12 88 -64.5 139.5t-139.5 51.5q-110 0 -172 -82t-62 -220q0 -136 61 -221.5t175 -85.5q82 0 135.5 49t70.5 136l75 -12
q-21 -109 -91 -175t-191 -66z" />
    <glyph glyph-name="ccircumflex" unicode="&#x109;" horiz-adv-x="526" 
d="M410 580h-66l-82 107l-81 -107h-66l111 143h72zM275 -12q-104 0 -165.5 70.5t-61.5 191.5q0 122 61 192t166 70q86 0 139.5 -48t62.5 -133l-71 -8q-7 62 -42 95t-92 33q-70 0 -110 -53t-40 -147q0 -96 40.5 -149t112.5 -53q115 0 135 128l67 -10q-14 -85 -67 -132
t-135 -47z" />
    <glyph glyph-name="Cdotaccent" unicode="&#x10a;" horiz-adv-x="699" 
d="M323 753v103h86v-103h-86zM366 -17q-156 0 -236 105t-80 269q0 168 83.5 269t235.5 101q124 0 194.5 -67.5t84.5 -182.5l-79 -8q-12 88 -64.5 139.5t-139.5 51.5q-110 0 -172 -82t-62 -220q0 -136 61 -221.5t175 -85.5q82 0 135.5 49t70.5 136l75 -12q-21 -109 -91 -175
t-191 -66z" />
    <glyph glyph-name="cdotaccent" unicode="&#x10b;" horiz-adv-x="526" 
d="M222 590v110h79v-110h-79zM275 -12q-104 0 -165.5 70.5t-61.5 191.5q0 122 61 192t166 70q86 0 139.5 -48t62.5 -133l-71 -8q-7 62 -42 95t-92 33q-70 0 -110 -53t-40 -147q0 -96 40.5 -149t112.5 -53q115 0 135 128l67 -10q-14 -85 -67 -132t-135 -47z" />
    <glyph glyph-name="Ccaron" unicode="&#x10c;" horiz-adv-x="699" 
d="M509 851l-100 -103h-86l-101 103h73l71 -73l71 73h72zM366 -17q-156 0 -236 105t-80 269q0 168 83.5 269t235.5 101q124 0 194.5 -67.5t84.5 -182.5l-79 -8q-12 88 -64.5 139.5t-139.5 51.5q-110 0 -172 -82t-62 -220q0 -136 61 -221.5t175 -85.5q82 0 135.5 49t70.5 136
l75 -12q-21 -109 -91 -175t-191 -66z" />
    <glyph glyph-name="ccaron" unicode="&#x10d;" horiz-adv-x="526" 
d="M114 718h66l82 -107l81 107h66l-111 -143h-72zM275 -12q-104 0 -165.5 70.5t-61.5 191.5q0 122 61 192t166 70q86 0 139.5 -48t62.5 -133l-71 -8q-7 62 -42 95t-92 33q-70 0 -110 -53t-40 -147q0 -96 40.5 -149t112.5 -53q115 0 135 128l67 -10q-14 -85 -67 -132
t-135 -47z" />
    <glyph glyph-name="Dcaron" unicode="&#x10e;" horiz-adv-x="716" 
d="M486 851l-100 -103h-86l-101 103h73l71 -73l71 73h72zM105 0v710h225q153 0 245 -97.5t92 -256.5q0 -157 -93 -256.5t-246 -99.5h-223zM182 66h145q118 0 187.5 82t69.5 208q0 129 -68 208.5t-187 79.5h-147v-578z" />
    <glyph glyph-name="dcaron" unicode="&#x10f;" horiz-adv-x="588" 
d="M254 -12q-93 0 -149.5 72.5t-56.5 189.5q0 116 59.5 189t154.5 73q113 0 157 -103v316h70v-725h-66v106q-22 -56 -66 -87t-103 -31zM560 540l-16 29q22 10 30.5 23.5t8.5 38.5h-42v79h80v-72q0 -40 -14.5 -62.5t-46.5 -35.5zM271 50q68 0 108.5 52.5t40.5 136.5v21
q0 86 -39.5 138t-108.5 52q-70 0 -110 -53t-40 -147q0 -93 39.5 -146.5t109.5 -53.5z" />
    <glyph glyph-name="Dcroat" unicode="&#x110;" horiz-adv-x="716" 
d="M330 710q153 0 245 -97.5t92 -256.5q0 -157 -93 -256.5t-246 -99.5h-223v341h-87v60h87v309h225zM327 66q118 0 187.5 82t69.5 208q0 129 -68 208.5t-187 79.5h-147v-243h184v-60h-184v-275h145z" />
    <glyph glyph-name="dcroat" unicode="&#x111;" horiz-adv-x="588" 
d="M591 638v-43h-102v-595h-66v106q-22 -56 -66 -87t-103 -31q-93 0 -149.5 72.5t-56.5 189.5q0 116 59.5 189t154.5 73q113 0 157 -103v186h-184v43h184v87h70v-87h102zM420 239v21q0 86 -39.5 138t-108.5 52q-70 0 -110 -53t-40 -147q0 -93 39.5 -146.5t109.5 -53.5
q68 0 108.5 52.5t40.5 136.5z" />
    <glyph glyph-name="Emacron" unicode="&#x112;" horiz-adv-x="611" 
d="M472 827v-57h-298v57h298zM182 66h363v-66h-440v710h433v-66h-356v-247h339v-66h-339v-265z" />
    <glyph glyph-name="emacron" unicode="&#x113;" horiz-adv-x="534" 
d="M410 675v-56h-291v56h291zM481 280v-48h-363q1 -84 44 -133t116 -49q52 0 88.5 28t52.5 79l59 -24q-23 -70 -76 -107.5t-129 -37.5q-107 0 -166 67t-59 192q0 123 59.5 194t162.5 71q101 0 156 -59.5t55 -172.5zM410 289v9q0 77 -37 117.5t-104 40.5q-69 0 -109 -44.5
t-42 -122.5h292z" />
    <glyph glyph-name="Ebreve" unicode="&#x114;" horiz-adv-x="611" 
d="M323 748q-66 0 -102.5 28.5t-41.5 79.5h60q8 -60 84 -60q74 0 84 60h59q-5 -51 -41.5 -79.5t-101.5 -28.5zM182 66h363v-66h-440v710h433v-66h-356v-247h339v-66h-339v-265z" />
    <glyph glyph-name="ebreve" unicode="&#x115;" horiz-adv-x="534" 
d="M265 575q-63 0 -103 36.5t-43 111.5h59q6 -97 87 -97q39 0 61.5 24.5t24.5 72.5h60q-4 -75 -43.5 -111.5t-102.5 -36.5zM481 280v-48h-363q1 -84 44 -133t116 -49q52 0 88.5 28t52.5 79l59 -24q-23 -70 -76 -107.5t-129 -37.5q-107 0 -166 67t-59 192q0 123 59.5 194
t162.5 71q101 0 156 -59.5t55 -172.5zM410 289v9q0 77 -37 117.5t-104 40.5q-69 0 -109 -44.5t-42 -122.5h292z" />
    <glyph glyph-name="Edotaccent" unicode="&#x116;" horiz-adv-x="611" 
d="M366 856v-103h-86v103h86zM182 66h363v-66h-440v710h433v-66h-356v-247h339v-66h-339v-265z" />
    <glyph glyph-name="edotaccent" unicode="&#x117;" horiz-adv-x="534" 
d="M304 700v-110h-79v110h79zM481 280v-48h-363q1 -84 44 -133t116 -49q52 0 88.5 28t52.5 79l59 -24q-23 -70 -76 -107.5t-129 -37.5q-107 0 -166 67t-59 192q0 123 59.5 194t162.5 71q101 0 156 -59.5t55 -172.5zM410 289v9q0 77 -37 117.5t-104 40.5q-69 0 -109 -44.5
t-42 -122.5h292z" />
    <glyph glyph-name="Eogonek" unicode="&#x118;" horiz-adv-x="611" 
d="M527 -104l50 -6q-14 -93 -100 -93q-43 0 -69 23t-26 62q0 77 96 118h-373v710h433v-66h-356v-247h339v-66h-339v-265h363v-66h4q-59 -18 -86 -47.5t-27 -63.5q0 -22 12 -34t32 -12q39 0 47 53z" />
    <glyph glyph-name="eogonek" unicode="&#x119;" horiz-adv-x="534" 
d="M481 280v-48h-363q1 -84 44 -133t116 -49q52 0 88.5 28t52.5 79l59 -24q-36 -109 -140 -137q-101 -35 -101 -107q0 -22 12 -34t32 -12q39 0 47 53l50 -6q-14 -93 -100 -93q-43 0 -69 23t-26 62q0 67 73 106q-100 6 -154 72.5t-54 186.5q0 123 59.5 194t162.5 71
q101 0 156 -59.5t55 -172.5zM410 289v9q0 77 -37 117.5t-104 40.5q-69 0 -109 -44.5t-42 -122.5h292z" />
    <glyph glyph-name="Ecaron" unicode="&#x11a;" horiz-adv-x="611" 
d="M366 748h-86l-101 103h73l71 -73l71 73h72zM182 66h363v-66h-440v710h433v-66h-356v-247h339v-66h-339v-265z" />
    <glyph glyph-name="ecaron" unicode="&#x11b;" horiz-adv-x="534" 
d="M301 575h-72l-112 143h66l82 -107l81 107h66zM481 280v-48h-363q1 -84 44 -133t116 -49q52 0 88.5 28t52.5 79l59 -24q-23 -70 -76 -107.5t-129 -37.5q-107 0 -166 67t-59 192q0 123 59.5 194t162.5 71q101 0 156 -59.5t55 -172.5zM410 289v9q0 77 -37 117.5t-104 40.5
q-69 0 -109 -44.5t-42 -122.5h292z" />
    <glyph glyph-name="Gcircumflex" unicode="&#x11c;" horiz-adv-x="723" 
d="M509 753h-72l-71 73l-71 -73h-73l101 103h86zM356 -17q-142 0 -224 104t-82 268q0 167 84.5 269.5t235.5 102.5q69 0 122.5 -22t82.5 -57.5t44.5 -69t20.5 -67.5l-77 -10q-5 28 -16.5 53t-33 50.5t-59 41t-87.5 15.5q-112 0 -175 -84t-63 -223q0 -134 61.5 -219
t177.5 -85q52 0 92.5 17t63 42t36.5 58t18.5 59t4.5 51v25h-220v66h290v-368h-57l-11 129q-24 -66 -85 -106t-144 -40z" />
    <glyph glyph-name="gcircumflex" unicode="&#x11d;" horiz-adv-x="528" 
d="M263 687l-81 -97h-66l111 133h72l112 -133h-66zM473 519q-62 0 -82 -54q50 -47 50 -121t-49.5 -121.5t-132.5 -47.5q-54 0 -96 22q-43 -17 -43 -55q0 -26 21 -41.5t64 -15.5h131q80 0 121.5 -35t41.5 -101q0 -73 -60 -114.5t-181 -41.5q-117 0 -170 38t-53 101
q0 37 21.5 65t61.5 41q-60 24 -60 86q0 70 71 96q-52 49 -52 124q0 74 49.5 121t132.5 47q56 0 98 -22q26 90 118 90q14 0 29 -3v-62q-18 4 -31 4zM259 229q52 0 84 31.5t32 82.5t-32 83t-84 32t-84 -31.5t-32 -82.5t32 -83t84 -32zM321 24h-118q-15 0 -39 2
q-61 -24 -61 -82q0 -93 163 -93t163 94q0 79 -108 79z" />
    <glyph glyph-name="Gbreve" unicode="&#x11e;" horiz-adv-x="723" 
d="M282 856q8 -60 84 -60q74 0 84 60h59q-5 -51 -41.5 -79.5t-101.5 -28.5q-66 0 -102.5 28.5t-41.5 79.5h60zM356 -17q-142 0 -224 104t-82 268q0 167 84.5 269.5t235.5 102.5q69 0 122.5 -22t82.5 -57.5t44.5 -69t20.5 -67.5l-77 -10q-5 28 -16.5 53t-33 50.5t-59 41
t-87.5 15.5q-112 0 -175 -84t-63 -223q0 -134 61.5 -219t177.5 -85q52 0 92.5 17t63 42t36.5 58t18.5 59t4.5 51v25h-220v66h290v-368h-57l-11 129q-24 -66 -85 -106t-144 -40z" />
    <glyph glyph-name="gbreve" unicode="&#x11f;" horiz-adv-x="528" 
d="M263 575q-63 0 -103 36.5t-43 111.5h59q6 -97 87 -97q39 0 61.5 24.5t24.5 72.5h60q-4 -75 -43.5 -111.5t-102.5 -36.5zM473 519q-62 0 -82 -54q50 -47 50 -121t-49.5 -121.5t-132.5 -47.5q-54 0 -96 22q-43 -17 -43 -55q0 -26 21 -41.5t64 -15.5h131q80 0 121.5 -35
t41.5 -101q0 -73 -60 -114.5t-181 -41.5q-117 0 -170 38t-53 101q0 37 21.5 65t61.5 41q-60 24 -60 86q0 70 71 96q-52 49 -52 124q0 74 49.5 121t132.5 47q56 0 98 -22q26 90 118 90q14 0 29 -3v-62q-18 4 -31 4zM259 229q52 0 84 31.5t32 82.5t-32 83t-84 32t-84 -31.5
t-32 -82.5t32 -83t84 -32zM321 24h-118q-15 0 -39 2q-61 -24 -61 -82q0 -93 163 -93t163 94q0 79 -108 79z" />
    <glyph glyph-name="Gdotaccent" unicode="&#x120;" horiz-adv-x="723" 
d="M323 753v103h86v-103h-86zM356 -17q-142 0 -224 104t-82 268q0 167 84.5 269.5t235.5 102.5q69 0 122.5 -22t82.5 -57.5t44.5 -69t20.5 -67.5l-77 -10q-5 28 -16.5 53t-33 50.5t-59 41t-87.5 15.5q-112 0 -175 -84t-63 -223q0 -134 61.5 -219t177.5 -85q52 0 92.5 17
t63 42t36.5 58t18.5 59t4.5 51v25h-220v66h290v-368h-57l-11 129q-24 -66 -85 -106t-144 -40z" />
    <glyph glyph-name="gdotaccent" unicode="&#x121;" horiz-adv-x="528" 
d="M302 700v-110h-79v110h79zM473 519q-62 0 -82 -54q50 -47 50 -121t-49.5 -121.5t-132.5 -47.5q-54 0 -96 22q-43 -17 -43 -55q0 -26 21 -41.5t64 -15.5h131q80 0 121.5 -35t41.5 -101q0 -73 -60 -114.5t-181 -41.5q-117 0 -170 38t-53 101q0 37 21.5 65t61.5 41
q-60 24 -60 86q0 70 71 96q-52 49 -52 124q0 74 49.5 121t132.5 47q56 0 98 -22q26 90 118 90q14 0 29 -3v-62q-18 4 -31 4zM259 229q52 0 84 31.5t32 82.5t-32 83t-84 32t-84 -31.5t-32 -82.5t32 -83t84 -32zM321 24h-118q-15 0 -39 2q-61 -24 -61 -82q0 -93 163 -93
t163 94q0 79 -108 79z" />
    <glyph glyph-name="Gcommaaccent" unicode="&#x122;" horiz-adv-x="723" 
d="M356 -17q-142 0 -224 104t-82 268q0 167 84.5 269.5t235.5 102.5q69 0 122.5 -22t82.5 -57.5t44.5 -69t20.5 -67.5l-77 -10q-5 28 -16.5 53t-33 50.5t-59 41t-87.5 15.5q-112 0 -175 -84t-63 -223q0 -134 61.5 -219t177.5 -85q52 0 92.5 17t63 42t36.5 58t18.5 59t4.5 51
v25h-220v66h290v-368h-57l-11 129q-24 -66 -85 -106t-144 -40zM346 -229l-18 32q25 11 32.5 25.5t7.5 43.5h-42v78h80v-72q0 -81 -60 -107z" />
    <glyph glyph-name="gcommaaccent" unicode="&#x123;" horiz-adv-x="528" 
d="M303 658v-78h-80v72q0 81 60 107l18 -32q-25 -11 -32.5 -25.5t-7.5 -43.5h42zM473 519q-62 0 -82 -54q50 -47 50 -121t-49.5 -121.5t-132.5 -47.5q-54 0 -96 22q-43 -17 -43 -55q0 -26 21 -41.5t64 -15.5h131q80 0 121.5 -35t41.5 -101q0 -73 -60 -114.5t-181 -41.5
q-117 0 -170 38t-53 101q0 37 21.5 65t61.5 41q-60 24 -60 86q0 70 71 96q-52 49 -52 124q0 74 49.5 121t132.5 47q56 0 98 -22q26 90 118 90q14 0 29 -3v-62q-18 4 -31 4zM259 229q52 0 84 31.5t32 82.5t-32 83t-84 32t-84 -31.5t-32 -82.5t32 -83t84 -32zM321 24h-118
q-15 0 -39 2q-61 -24 -61 -82q0 -93 163 -93t163 94q0 79 -108 79z" />
    <glyph glyph-name="Hcircumflex" unicode="&#x124;" horiz-adv-x="749" 
d="M518 753h-72l-71 73l-71 -73h-73l101 103h86zM645 710v-710h-78v330h-385v-330h-77v710h77v-314h385v314h78z" />
    <glyph glyph-name="hcircumflex" unicode="&#x125;" horiz-adv-x="586" 
d="M278 753h-72l-71 73l-71 -73h-73l101 103h86zM100 0v725h69v-331q45 120 171 120q82 0 124.5 -52t42.5 -152v-310h-70v306q0 146 -120 146q-68 0 -108 -50.5t-40 -138.5v-263h-69z" />
    <glyph glyph-name="Hbar" unicode="&#x126;" horiz-adv-x="749" 
d="M723 574v-49h-78v-525h-78v330h-385v-330h-77v525h-78v49h78v136h77v-136h385v136h78v-136h78zM567 396v129h-385v-129h385z" />
    <glyph glyph-name="hbar" unicode="&#x127;" horiz-adv-x="563" 
d="M340 514q82 0 124.5 -52t42.5 -152v-310h-70v306q0 146 -120 146q-68 0 -108 -50.5t-40 -138.5v-263h-69v581h-100v43h100v101h69v-101h209v-43h-209v-187q45 120 171 120z" />
    <glyph glyph-name="Itilde" unicode="&#x128;" horiz-adv-x="287" 
d="M199 750q-19 0 -35 8.5t-25.5 18t-21.5 18t-24 8.5q-24 0 -27 -41l-49 8q2 41 22.5 64t53.5 23q24 0 43 -13.5t34 -26.5t29 -13q24 0 27 42l49 -9q-2 -41 -22.5 -64t-53.5 -23zM182 0h-77v710h77v-710z" />
    <glyph glyph-name="itilde" unicode="&#x129;" horiz-adv-x="259" 
d="M184 590q-18 0 -33 11t-23.5 24t-19.5 24t-21 11q-26 0 -30 -56l-49 8q9 105 79 105q18 0 33 -11t23.5 -24.5t19.5 -24.5t21 -11q26 0 30 57l49 -9q-9 -104 -79 -104zM95 0v500h69v-500h-69z" />
    <glyph glyph-name="Imacron" unicode="&#x12a;" horiz-adv-x="287" 
d="M37 770v57h214v-57h-214zM182 0h-77v710h77v-710z" />
    <glyph glyph-name="imacron" unicode="&#x12b;" horiz-adv-x="259" 
d="M19 619v56h223v-56h-223zM95 0v500h69v-500h-69z" />
    <glyph glyph-name="Ibreve" unicode="&#x12c;" horiz-adv-x="287" 
d="M85 856q0 -57 59 -57q57 0 59 57h59q-2 -51 -32.5 -79.5t-85.5 -28.5q-56 0 -86.5 28.5t-32.5 79.5h60zM182 0h-77v710h77v-710z" />
    <glyph glyph-name="ibreve" unicode="&#x12d;" horiz-adv-x="259" 
d="M79 723q0 -53 12.5 -75t38.5 -22q27 0 39.5 21.5t12.5 75.5h59q0 -148 -111 -148q-110 0 -111 148h60zM95 0v500h69v-500h-69z" />
    <glyph glyph-name="Iogonek" unicode="&#x12e;" horiz-adv-x="287" 
d="M153 -104l50 -6q-14 -93 -100 -93q-43 0 -69 23t-26 62q0 77 97 118v710h77v-710h-7q-59 -18 -86 -47.5t-27 -63.5q0 -22 12 -34t32 -12q39 0 47 53z" />
    <glyph glyph-name="iogonek" unicode="&#x12f;" horiz-adv-x="259" 
d="M169 700v-110h-79v110h79zM139 -104l50 -6q-14 -93 -100 -93q-43 0 -69 23t-26 62q0 79 101 120v498h69v-500h-3q-59 -18 -86 -47.5t-27 -63.5q0 -22 12 -34t32 -12q39 0 47 53z" />
    <glyph glyph-name="Idotaccent" unicode="&#x130;" horiz-adv-x="287" 
d="M101 753v103h86v-103h-86zM182 0h-77v710h77v-710z" />
    <glyph glyph-name="dotlessi" unicode="&#x131;" horiz-adv-x="259" 
d="M95 0v500h69v-500h-69z" />
    <glyph glyph-name="IJ" unicode="&#x132;" horiz-adv-x="674" 
d="M182 0h-77v710h77v-710zM585 180q0 -107 -55 -152t-141 -45q-57 0 -82 8v72q32 -6 82 -6q54 0 86 28t32 102v523h78v-530z" />
    <glyph glyph-name="ij" unicode="&#x133;" horiz-adv-x="514" 
d="M90 590v110h79v-110h-79zM345 590v110h79v-110h-79zM95 0v500h69v-500h-69zM297 -202q-35 0 -58 6v60q26 -2 48 -2q32 0 47.5 18.5t15.5 67.5v552h70v-559q0 -65 -29.5 -104t-93.5 -39z" />
    <glyph glyph-name="Jcircumflex" unicode="&#x134;" horiz-adv-x="387" 
d="M376 753h-69l-48 73l-49 -73h-68l74 103h86zM298 180q0 -107 -55 -152t-141 -45q-57 0 -82 8v72q32 -6 82 -6q54 0 86 28t32 102v523h78v-530z" />
    <glyph glyph-name="jcircumflex" unicode="&#x135;" horiz-adv-x="255" 
d="M242 580h-62l-54 107l-54 -107h-61l79 143h72zM38 -202q-35 0 -58 6v60q26 -2 48 -2q32 0 47.5 18.5t15.5 67.5v552h70v-559q0 -65 -29.5 -104t-93.5 -39z" />
    <glyph glyph-name="Kcommaaccent" unicode="&#x136;" horiz-adv-x="664" 
d="M355 426l283 -426h-90l-247 371l-119 -130v-241h-77v710h77v-374l337 374h98l-259 -281zM301 -128v78h80v-72q0 -81 -60 -107l-18 32q25 11 32.5 25.5t7.5 43.5h-42z" />
    <glyph glyph-name="kcommaaccent" unicode="&#x137;" horiz-adv-x="540" 
d="M319 308l197 -308h-86l-160 258l-101 -101v-157h-69v725h69v-486l242 261h92zM230 -128v78h80v-72q0 -81 -60 -107l-18 32q25 11 32.5 25.5t7.5 43.5h-42z" />
    <glyph glyph-name="kgreenlandic" unicode="&#x138;" horiz-adv-x="535" 
d="M425 0l-160 258l-101 -101v-157h-69v500h69v-261l242 261h92l-184 -192l197 -308h-86z" />
    <glyph glyph-name="Lacute" unicode="&#x139;" horiz-adv-x="541" 
d="M110 753l91 103h79l-102 -103h-68zM105 0v710h77v-644h337v-66h-414z" />
    <glyph glyph-name="lacute" unicode="&#x13a;" horiz-adv-x="269" 
d="M101 753l91 103h79l-102 -103h-68zM169 725v-725h-69v725h69z" />
    <glyph glyph-name="Lcommaaccent" unicode="&#x13b;" horiz-adv-x="541" 
d="M105 0v710h77v-644h337v-66h-414zM285 -229l-18 32q25 11 32.5 25.5t7.5 43.5h-42v78h80v-72q0 -81 -60 -107z" />
    <glyph glyph-name="lcommaaccent" unicode="&#x13c;" horiz-adv-x="269" 
d="M169 725v-725h-69v725h69zM115 -229l-18 32q25 11 32.5 25.5t7.5 43.5h-42v78h80v-72q0 -81 -60 -107z" />
    <glyph glyph-name="Lcaron" unicode="&#x13d;" horiz-adv-x="541" 
d="M105 0v710h77v-644h337v-66h-414zM284 540l-16 29q22 10 30.5 23.5t8.5 38.5h-42v79h80v-72q0 -40 -14.5 -62.5t-46.5 -35.5z" />
    <glyph glyph-name="lcaron" unicode="&#x13e;" horiz-adv-x="278" 
d="M169 725v-725h-69v725h69zM239 540l-16 29q22 10 30.5 23.5t8.5 38.5h-42v79h80v-72q0 -40 -14.5 -62.5t-46.5 -35.5z" />
    <glyph glyph-name="Ldot" unicode="&#x13f;" horiz-adv-x="541" 
d="M105 0v710h77v-644h337v-66h-414zM424 501v-112h-94v112h94z" />
    <glyph glyph-name="ldot" unicode="&#x140;" horiz-adv-x="338" 
d="M169 725v-725h-69v725h69zM350 501v-112h-94v112h94z" />
    <glyph glyph-name="Lslash" unicode="&#x141;" horiz-adv-x="541" 
d="M182 66h337v-66h-414v280l-97 -51v62l97 51v368h77v-328l221 115v-62l-221 -115v-254z" />
    <glyph glyph-name="lslash" unicode="&#x142;" horiz-adv-x="269" 
d="M220 506v-53l-51 -49v-404h-69v339l-52 -50v54l52 49v333h69v-267z" />
    <glyph glyph-name="Nacute" unicode="&#x143;" horiz-adv-x="744" 
d="M338 753l91 103h79l-102 -103h-68zM105 0v710h94l329 -542q29 -50 42 -82h2q-3 36 -3 87v537h70v-710h-94l-329 543q-31 54 -42 82h-2q3 -36 3 -87v-538h-70z" />
    <glyph glyph-name="nacute" unicode="&#x144;" horiz-adv-x="581" 
d="M279 580l99 143h86l-119 -143h-66zM95 0v500h66v-110q45 124 171 124q170 0 170 -205v-309h-70v305q0 147 -121 147q-68 0 -107.5 -50.5t-39.5 -138.5v-263h-69z" />
    <glyph glyph-name="Ncommaaccent" unicode="&#x145;" horiz-adv-x="744" 
d="M105 0v710h94l329 -542q29 -50 42 -82h2q-3 36 -3 87v537h70v-710h-94l-329 543q-31 54 -42 82h-2q3 -36 3 -87v-538h-70zM352 -229l-18 32q25 11 32.5 25.5t7.5 43.5h-42v78h80v-72q0 -81 -60 -107z" />
    <glyph glyph-name="ncommaaccent" unicode="&#x146;" horiz-adv-x="581" 
d="M95 0v500h66v-110q45 124 171 124q170 0 170 -205v-309h-70v305q0 147 -121 147q-68 0 -107.5 -50.5t-39.5 -138.5v-263h-69zM271 -229l-18 32q25 11 32.5 25.5t7.5 43.5h-42v78h80v-72q0 -81 -60 -107z" />
    <glyph glyph-name="Ncaron" unicode="&#x147;" horiz-adv-x="744" 
d="M515 851l-100 -103h-86l-101 103h73l71 -73l71 73h72zM105 0v710h94l329 -542q29 -50 42 -82h2q-3 36 -3 87v537h70v-710h-94l-329 543q-31 54 -42 82h-2q3 -36 3 -87v-538h-70z" />
    <glyph glyph-name="ncaron" unicode="&#x148;" horiz-adv-x="581" 
d="M163 718h66l82 -107l81 107h66l-111 -143h-72zM95 0v500h66v-110q45 124 171 124q170 0 170 -205v-309h-70v305q0 147 -121 147q-68 0 -107.5 -50.5t-39.5 -138.5v-263h-69z" />
    <glyph glyph-name="napostrophe" unicode="&#x149;" horiz-adv-x="581" 
d="M62 540l-16 29q22 10 30.5 23.5t8.5 38.5h-42v79h80v-72q0 -40 -14.5 -62.5t-46.5 -35.5zM95 0v500h66v-110q45 124 171 124q170 0 170 -205v-309h-70v305q0 147 -121 147q-68 0 -107.5 -50.5t-39.5 -138.5v-263h-69z" />
    <glyph glyph-name="Eng" unicode="&#x14a;" horiz-adv-x="744" 
d="M569 710h70v-726q0 -104 -51 -148t-132 -44q-43 0 -80 7v68q32 -6 81 -6q112 0 112 115v24h-24l-329 543q-31 54 -42 82h-2q3 -36 3 -87v-538h-70v710h94l329 -542q29 -50 42 -82h2q-3 36 -3 87v537z" />
    <glyph glyph-name="eng" unicode="&#x14b;" horiz-adv-x="581" 
d="M502 309v-309h-1v-40q0 -162 -121 -162q-32 0 -58 6v60q36 -3 42 -3q36 0 52 21.5t16 68.5v354q0 147 -121 147q-68 0 -107.5 -50.5t-39.5 -138.5v-263h-69v500h66v-110q45 124 171 124q170 0 170 -205z" />
    <glyph glyph-name="Omacron" unicode="&#x14c;" horiz-adv-x="740" 
d="M221 770v57h298v-57h-298zM370 -17q-146 0 -233 101.5t-87 270.5q0 172 87 272t233 100t233 -100t87 -272q0 -171 -87 -271.5t-233 -100.5zM370 49q112 0 175.5 82t63.5 224t-63.5 224t-175.5 82q-111 0 -175 -82t-64 -224q0 -139 64 -222.5t175 -83.5z" />
    <glyph glyph-name="omacron" unicode="&#x14d;" horiz-adv-x="555" 
d="M132 619v56h291v-56h-291zM278 -12q-105 0 -167.5 70.5t-62.5 191.5t62.5 191.5t167.5 70.5q104 0 166.5 -70.5t62.5 -191.5t-62.5 -191.5t-166.5 -70.5zM278 49q73 0 114 52t41 149t-41 149t-114 52t-114.5 -52t-41.5 -149t41.5 -149t114.5 -52z" />
    <glyph glyph-name="Obreve" unicode="&#x14e;" horiz-adv-x="740" 
d="M286 856q8 -60 84 -60q74 0 84 60h59q-5 -51 -41.5 -79.5t-101.5 -28.5q-66 0 -102.5 28.5t-41.5 79.5h60zM370 -17q-146 0 -233 101.5t-87 270.5q0 172 87 272t233 100t233 -100t87 -272q0 -171 -87 -271.5t-233 -100.5zM370 49q112 0 175.5 82t63.5 224t-63.5 224
t-175.5 82q-111 0 -175 -82t-64 -224q0 -139 64 -222.5t175 -83.5z" />
    <glyph glyph-name="obreve" unicode="&#x14f;" horiz-adv-x="555" 
d="M191 723q6 -97 87 -97q39 0 61.5 24.5t24.5 72.5h60q-4 -75 -43.5 -111.5t-102.5 -36.5t-103 36.5t-43 111.5h59zM278 -12q-105 0 -167.5 70.5t-62.5 191.5t62.5 191.5t167.5 70.5q104 0 166.5 -70.5t62.5 -191.5t-62.5 -191.5t-166.5 -70.5zM278 49q73 0 114 52t41 149
t-41 149t-114 52t-114.5 -52t-41.5 -149t41.5 -149t114.5 -52z" />
    <glyph glyph-name="Ohungarumlaut" unicode="&#x150;" horiz-adv-x="740" 
d="M264 753l91 103h75l-96 -103h-70zM407 753l91 103h75l-97 -103h-69zM370 -17q-146 0 -233 101.5t-87 270.5q0 172 87 272t233 100t233 -100t87 -272q0 -171 -87 -271.5t-233 -100.5zM370 49q112 0 175.5 82t63.5 224t-63.5 224t-175.5 82q-111 0 -175 -82t-64 -224
q0 -139 64 -222.5t175 -83.5z" />
    <glyph glyph-name="ohungarumlaut" unicode="&#x151;" horiz-adv-x="555" 
d="M176 580l87 143h68l-93 -143h-62zM317 580l87 143h69l-93 -143h-63zM278 -12q-105 0 -167.5 70.5t-62.5 191.5t62.5 191.5t167.5 70.5q104 0 166.5 -70.5t62.5 -191.5t-62.5 -191.5t-166.5 -70.5zM278 49q73 0 114 52t41 149t-41 149t-114 52t-114.5 -52t-41.5 -149
t41.5 -149t114.5 -52z" />
    <glyph glyph-name="OE" unicode="&#x152;" horiz-adv-x="993" 
d="M565 66h363v-66h-527q-163 0 -257 97.5t-94 258.5q0 164 94 259t259 95h518v-66h-356v-247h339v-66h-339v-265zM399 66h89v578h-86q-129 0 -200 -78.5t-71 -209.5q0 -128 73 -209t195 -81z" />
    <glyph glyph-name="oe" unicode="&#x153;" horiz-adv-x="919" 
d="M865 280v-48h-363q1 -84 44 -133t116 -49q52 0 88.5 28t52.5 79l59 -24q-23 -70 -76 -107.5t-129 -37.5q-137 0 -193 106q-57 -106 -186 -106q-104 0 -167 72t-63 190q0 119 63 190.5t167 71.5q131 0 188 -109q58 109 188 109q101 0 156 -59.5t55 -172.5zM794 289v9
q0 77 -37 117.5t-104 40.5q-69 0 -109 -44.5t-42 -122.5h292zM278 49q68 0 109 47.5t45 131.5v19q0 15 1 22q-4 85 -45.5 133.5t-109.5 48.5q-73 0 -114.5 -53.5t-41.5 -147.5t41.5 -147.5t114.5 -53.5z" />
    <glyph glyph-name="Racute" unicode="&#x154;" horiz-adv-x="662" 
d="M458 856l-102 -103h-68l91 103h79zM524 0l-179 303h-163v-303h-77v710h254q66 0 113 -17t71.5 -47t35.5 -64t11 -75q0 -69 -39.5 -123t-123.5 -71l185 -313h-88zM182 644v-275h170q81 0 118.5 37.5t37.5 100.5q0 137 -156 137h-170z" />
    <glyph glyph-name="racute" unicode="&#x155;" horiz-adv-x="356" 
d="M151 580l99 143h86l-119 -143h-66zM160 378q18 60 58.5 97t96.5 37q12 0 19 -1v-68h-8q-67 0 -107 -38q-55 -55 -55 -176v-229h-69v500h65v-122z" />
    <glyph glyph-name="Rcommaaccent" unicode="&#x156;" horiz-adv-x="662" 
d="M427 313l185 -313h-88l-179 303h-163v-303h-77v710h254q66 0 113 -17t71.5 -47t35.5 -64t11 -75q0 -69 -39.5 -123t-123.5 -71zM182 644v-275h170q81 0 118.5 37.5t37.5 100.5q0 137 -156 137h-170zM292 -128v78h80v-72q0 -81 -60 -107l-18 32q25 11 32.5 25.5t7.5 43.5
h-42z" />
    <glyph glyph-name="rcommaaccent" unicode="&#x157;" horiz-adv-x="356" 
d="M160 378q18 60 58.5 97t96.5 37q12 0 19 -1v-68h-8q-67 0 -107 -38q-55 -55 -55 -176v-229h-69v500h65v-122zM110 -229l-18 32q25 11 32.5 25.5t7.5 43.5h-42v78h80v-72q0 -81 -60 -107z" />
    <glyph glyph-name="Rcaron" unicode="&#x158;" horiz-adv-x="662" 
d="M365 748h-86l-101 103h73l71 -73l71 73h72zM524 0l-179 303h-163v-303h-77v710h254q66 0 113 -17t71.5 -47t35.5 -64t11 -75q0 -69 -39.5 -123t-123.5 -71l185 -313h-88zM182 644v-275h170q81 0 118.5 37.5t37.5 100.5q0 137 -156 137h-170z" />
    <glyph glyph-name="rcaron" unicode="&#x159;" horiz-adv-x="356" 
d="M35 718h66l82 -107l81 107h66l-111 -143h-72zM160 378q18 60 58.5 97t96.5 37q12 0 19 -1v-68h-8q-67 0 -107 -38q-55 -55 -55 -176v-229h-69v500h65v-122z" />
    <glyph glyph-name="Sacute" unicode="&#x15a;" horiz-adv-x="618" 
d="M278 753l91 103h79l-102 -103h-68zM317 -17q-129 0 -200.5 63t-79.5 167l78 11q9 -78 59.5 -127.5t145.5 -49.5q74 0 122.5 34t48.5 100q0 65 -35.5 94.5t-108.5 43.5l-105 21q-175 34 -175 190q0 89 65.5 143t175.5 54t179 -51t78 -155l-78 -15q-15 159 -181 159
q-72 0 -115.5 -34.5t-43.5 -93.5q0 -104 126 -130l105 -21q91 -18 142 -63t51 -134q0 -91 -66.5 -148.5t-187.5 -57.5z" />
    <glyph glyph-name="sacute" unicode="&#x15b;" horiz-adv-x="492" 
d="M212 580l99 143h86l-119 -143h-66zM256 -12q-88 0 -143.5 40t-67.5 115l71 12q9 -53 45.5 -81t96.5 -28q54 0 84 24t30 62q0 35 -20 53t-61 26l-98 19q-129 25 -129 137q0 64 50 104.5t134 40.5q83 0 134 -36t58 -102l-69 -15q-16 96 -126 96q-52 0 -82.5 -22.5
t-30.5 -62.5q0 -34 21 -52.5t62 -27.5l98 -19q128 -25 128 -133q0 -68 -49.5 -109t-135.5 -41z" />
    <glyph glyph-name="Scircumflex" unicode="&#x15c;" horiz-adv-x="618" 
d="M455 753h-72l-71 73l-71 -73h-73l101 103h86zM317 -17q-129 0 -200.5 63t-79.5 167l78 11q9 -78 59.5 -127.5t145.5 -49.5q74 0 122.5 34t48.5 100q0 65 -35.5 94.5t-108.5 43.5l-105 21q-175 34 -175 190q0 89 65.5 143t175.5 54t179 -51t78 -155l-78 -15
q-15 159 -181 159q-72 0 -115.5 -34.5t-43.5 -93.5q0 -104 126 -130l105 -21q91 -18 142 -63t51 -134q0 -91 -66.5 -148.5t-187.5 -57.5z" />
    <glyph glyph-name="scircumflex" unicode="&#x15d;" horiz-adv-x="492" 
d="M392 580h-66l-82 107l-81 -107h-66l111 143h72zM256 -12q-88 0 -143.5 40t-67.5 115l71 12q9 -53 45.5 -81t96.5 -28q54 0 84 24t30 62q0 35 -20 53t-61 26l-98 19q-129 25 -129 137q0 64 50 104.5t134 40.5q83 0 134 -36t58 -102l-69 -15q-16 96 -126 96
q-52 0 -82.5 -22.5t-30.5 -62.5q0 -34 21 -52.5t62 -27.5l98 -19q128 -25 128 -133q0 -68 -49.5 -109t-135.5 -41z" />
    <glyph glyph-name="Scedilla" unicode="&#x15e;" horiz-adv-x="618" 
d="M571 189q0 -85 -59 -141.5t-168 -63.5l-24 -40q14 12 42 12q32 0 52 -20t20 -54q0 -37 -27 -59.5t-71 -22.5q-77 0 -95 63l49 7q8 -31 45 -31q20 0 32.5 12t12.5 32q0 19 -11.5 30.5t-31.5 11.5q-21 0 -37 -16l-33 11l33 63q-121 4 -188 67t-75 163l78 11
q9 -78 59.5 -127.5t145.5 -49.5q74 0 122.5 34t48.5 100q0 65 -35.5 94.5t-108.5 43.5l-105 21q-175 34 -175 190q0 89 65.5 143t175.5 54t179 -51t78 -155l-78 -15q-15 159 -181 159q-72 0 -115.5 -34.5t-43.5 -93.5q0 -104 126 -130l105 -21q91 -18 142 -63t51 -134z" />
    <glyph glyph-name="scedilla" unicode="&#x15f;" horiz-adv-x="492" 
d="M441 138q0 -63 -43 -103.5t-119 -45.5l-27 -45q14 12 42 12q32 0 52 -20t20 -54q0 -37 -27 -59.5t-71 -22.5q-77 0 -95 63l49 7q8 -31 45 -31q20 0 32.5 12t12.5 32q0 19 -11.5 30.5t-31.5 11.5q-21 0 -37 -16l-33 11l36 69q-80 5 -129.5 44.5t-60.5 109.5l71 12
q9 -53 45.5 -81t96.5 -28q54 0 84 24t30 62q0 35 -20 53t-61 26l-98 19q-129 25 -129 137q0 64 50 104.5t134 40.5q83 0 134 -36t58 -102l-69 -15q-16 96 -126 96q-52 0 -82.5 -22.5t-30.5 -62.5q0 -34 21 -52.5t62 -27.5l98 -19q128 -25 128 -133z" />
    <glyph glyph-name="Scaron" unicode="&#x160;" horiz-adv-x="618" 
d="M455 851l-100 -103h-86l-101 103h73l71 -73l71 73h72zM317 -17q-129 0 -200.5 63t-79.5 167l78 11q9 -78 59.5 -127.5t145.5 -49.5q74 0 122.5 34t48.5 100q0 65 -35.5 94.5t-108.5 43.5l-105 21q-175 34 -175 190q0 89 65.5 143t175.5 54t179 -51t78 -155l-78 -15
q-15 159 -181 159q-72 0 -115.5 -34.5t-43.5 -93.5q0 -104 126 -130l105 -21q91 -18 142 -63t51 -134q0 -91 -66.5 -148.5t-187.5 -57.5z" />
    <glyph glyph-name="scaron" unicode="&#x161;" horiz-adv-x="492" 
d="M96 718h66l82 -107l81 107h66l-111 -143h-72zM256 -12q-88 0 -143.5 40t-67.5 115l71 12q9 -53 45.5 -81t96.5 -28q54 0 84 24t30 62q0 35 -20 53t-61 26l-98 19q-129 25 -129 137q0 64 50 104.5t134 40.5q83 0 134 -36t58 -102l-69 -15q-16 96 -126 96
q-52 0 -82.5 -22.5t-30.5 -62.5q0 -34 21 -52.5t62 -27.5l98 -19q128 -25 128 -133q0 -68 -49.5 -109t-135.5 -41z" />
    <glyph glyph-name="uni0162" unicode="&#x162;" horiz-adv-x="556" 
d="M317 0h-17l-34 -56q14 12 42 12q32 0 52 -20t20 -54q0 -37 -27 -59.5t-71 -22.5q-77 0 -95 63l49 7q8 -31 45 -31q20 0 32.5 12t12.5 32q0 19 -11.5 30.5t-31.5 11.5q-21 0 -37 -16l-33 11l41 80h-15v644h-229v66h536v-66h-229v-644z" />
    <glyph glyph-name="uni0163" unicode="&#x163;" horiz-adv-x="349" 
d="M263 -44q32 0 52 -20t20 -54q0 -37 -27 -59.5t-71 -22.5q-77 0 -95 63l49 7q8 -31 45 -31q20 0 32.5 12t12.5 32q0 19 -11.5 30.5t-31.5 11.5q-21 0 -37 -16l-33 11l38 74q-93 19 -93 145v303h-92v58h92v132l70 30v-162h129v-58h-129v-300q0 -85 78 -85q21 0 51 7v-64
q-28 -9 -62 -9l-29 -47q14 12 42 12z" />
    <glyph glyph-name="Tcaron" unicode="&#x164;" horiz-adv-x="556" 
d="M322 748h-86l-101 103h73l71 -73l71 73h72zM546 710v-66h-229v-644h-78v644h-229v66h536z" />
    <glyph glyph-name="tcaron" unicode="&#x165;" horiz-adv-x="349" 
d="M252 540l-16 29q22 10 30.5 23.5t8.5 38.5h-42v79h80v-72q0 -40 -14.5 -62.5t-46.5 -35.5zM21 442v58h92v132l70 30v-162h129v-58h-129v-300q0 -85 78 -85q21 0 51 7v-64q-32 -9 -69 -9q-130 0 -130 148v303h-92z" />
    <glyph glyph-name="Tbar" unicode="&#x166;" horiz-adv-x="556" 
d="M546 644h-229v-200h164v-49h-164v-395h-78v395h-162v49h162v200h-229v66h536v-66z" />
    <glyph glyph-name="tbar" unicode="&#x167;" horiz-adv-x="355" 
d="M314 442h-129v-137h128v-58h-128v-105q0 -85 78 -85q21 0 51 7v-64q-32 -9 -69 -9q-130 0 -130 148v108h-90v58h90v137h-92v58h92v132l70 30v-162h129v-58z" />
    <glyph glyph-name="Utilde" unicode="&#x168;" horiz-adv-x="711" 
d="M421 748q-35 0 -73 28.5t-59 28.5q-40 0 -50 -53l-49 9q7 47 33 72.5t68 25.5q35 0 73.5 -28.5t59.5 -28.5q39 0 49 53l49 -8q-6 -48 -32 -73.5t-69 -25.5zM90 710h77v-460q0 -92 49 -145t139 -53t139.5 53t49.5 145v460h78v-465q0 -120 -70 -191t-197 -71
q-126 0 -195.5 71t-69.5 191v465z" />
    <glyph glyph-name="utilde" unicode="&#x169;" horiz-adv-x="574" 
d="M352 590q-31 0 -57 17.5t-48 35t-43 17.5q-39 0 -51 -61l-49 8q7 52 33.5 81t69.5 29q25 0 46.5 -11t35 -24.5t31.5 -24.5t35 -11q40 0 52 62l48 -9q-6 -52 -33 -80.5t-70 -28.5zM251 -12q-171 0 -171 195v317h69v-310q0 -71 30.5 -106.5t83.5 -35.5q67 0 106.5 50.5
t39.5 128.5v273h70v-500h-66v103q-18 -51 -62 -83t-100 -32z" />
    <glyph glyph-name="Umacron" unicode="&#x16a;" horiz-adv-x="711" 
d="M207 770v57h298v-57h-298zM90 710h77v-460q0 -92 49 -145t139 -53t139.5 53t49.5 145v460h78v-465q0 -120 -70 -191t-197 -71q-126 0 -195.5 71t-69.5 191v465z" />
    <glyph glyph-name="umacron" unicode="&#x16b;" horiz-adv-x="574" 
d="M134 619v56h291v-56h-291zM251 -12q-171 0 -171 195v317h69v-310q0 -71 30.5 -106.5t83.5 -35.5q67 0 106.5 50.5t39.5 128.5v273h70v-500h-66v103q-18 -51 -62 -83t-100 -32z" />
    <glyph glyph-name="Ubreve" unicode="&#x16c;" horiz-adv-x="711" 
d="M272 856q8 -60 84 -60q74 0 84 60h59q-5 -51 -41.5 -79.5t-101.5 -28.5q-66 0 -102.5 28.5t-41.5 79.5h60zM90 710h77v-460q0 -92 49 -145t139 -53t139.5 53t49.5 145v460h78v-465q0 -120 -70 -191t-197 -71q-126 0 -195.5 71t-69.5 191v465z" />
    <glyph glyph-name="ubreve" unicode="&#x16d;" horiz-adv-x="574" 
d="M193 723q6 -97 87 -97q39 0 61.5 24.5t24.5 72.5h60q-4 -75 -43.5 -111.5t-102.5 -36.5t-103 36.5t-43 111.5h59zM251 -12q-171 0 -171 195v317h69v-310q0 -71 30.5 -106.5t83.5 -35.5q67 0 106.5 50.5t39.5 128.5v273h70v-500h-66v103q-18 -51 -62 -83t-100 -32z" />
    <glyph glyph-name="Uring" unicode="&#x16e;" horiz-adv-x="711" 
d="M356 738q-46 0 -75.5 27.5t-29.5 71.5t29.5 72t75.5 28q47 0 76 -28t29 -72t-29 -71.5t-76 -27.5zM356 779q26 0 41.5 16t15.5 42t-15.5 42.5t-41.5 16.5q-25 0 -41 -16.5t-16 -42.5t16 -42t41 -16zM90 710h77v-460q0 -92 49 -145t139 -53t139.5 53t49.5 145v460h78v-465
q0 -120 -70 -191t-197 -71q-126 0 -195.5 71t-69.5 191v465z" />
    <glyph glyph-name="uring" unicode="&#x16f;" horiz-adv-x="574" 
d="M280 559q-47 0 -76.5 27.5t-29.5 71.5t29.5 71.5t76.5 27.5t76 -27.5t29 -71.5t-29 -71.5t-76 -27.5zM280 599q25 0 40.5 16.5t15.5 42.5t-15.5 42.5t-40.5 16.5t-41 -16.5t-16 -42.5t16 -42.5t41 -16.5zM251 -12q-171 0 -171 195v317h69v-310q0 -71 30.5 -106.5
t83.5 -35.5q67 0 106.5 50.5t39.5 128.5v273h70v-500h-66v103q-18 -51 -62 -83t-100 -32z" />
    <glyph glyph-name="Uhungarumlaut" unicode="&#x170;" horiz-adv-x="711" 
d="M250 753l91 103h75l-96 -103h-70zM393 753l91 103h75l-97 -103h-69zM90 710h77v-460q0 -92 49 -145t139 -53t139.5 53t49.5 145v460h78v-465q0 -120 -70 -191t-197 -71q-126 0 -195.5 71t-69.5 191v465z" />
    <glyph glyph-name="uhungarumlaut" unicode="&#x171;" horiz-adv-x="574" 
d="M178 580l87 143h68l-93 -143h-62zM319 580l87 143h69l-93 -143h-63zM251 -12q-171 0 -171 195v317h69v-310q0 -71 30.5 -106.5t83.5 -35.5q67 0 106.5 50.5t39.5 128.5v273h70v-500h-66v103q-18 -51 -62 -83t-100 -32z" />
    <glyph glyph-name="Uogonek" unicode="&#x172;" horiz-adv-x="711" 
d="M544 710h78v-465q0 -99 -48.5 -165.5t-138.5 -87.5q-89 -36 -89 -103q0 -22 12 -34t32 -12q39 0 47 53l50 -6q-14 -93 -100 -93q-43 0 -69 23t-26 62q0 61 63 101q-126 0 -195.5 71t-69.5 191v465h77v-460q0 -92 49 -145t139 -53t139.5 53t49.5 145v460z" />
    <glyph glyph-name="uogonek" unicode="&#x173;" horiz-adv-x="574" 
d="M457 -104l50 -6q-14 -93 -100 -93q-43 0 -69 23t-26 62q0 79 101 120v101q-18 -51 -62 -83t-100 -32q-171 0 -171 195v317h69v-310q0 -71 30.5 -106.5t83.5 -35.5q67 0 106.5 50.5t39.5 128.5v273h70v-500q-59 -18 -86 -47.5t-27 -63.5q0 -22 12 -34t32 -12q39 0 47 53z
" />
    <glyph glyph-name="Wcircumflex" unicode="&#x174;" horiz-adv-x="909" 
d="M598 753h-72l-71 73l-71 -73h-73l101 103h86zM202 0l-177 710h80l137 -591q3 -14 6 -37h3q0 10 7 37l157 591h79l157 -591q6 -24 8 -37h2q3 23 6 37l138 591h79l-176 -710h-95l-151 577q-5 19 -6 33h-3q-1 -14 -6 -33l-150 -577h-95z" />
    <glyph glyph-name="wcircumflex" unicode="&#x175;" horiz-adv-x="725" 
d="M511 580h-66l-82 107l-81 -107h-66l111 143h72zM170 0l-144 500h72l99 -369q10 -43 12 -60h2q3 20 14 60l100 369h74l101 -369q1 -5 6.5 -26.5t7.5 -33.5h2q2 17 12 60l99 369h72l-144 -500h-76l-104 374q-7 27 -12 55h-1q-5 -28 -12 -55l-104 -374h-76z" />
    <glyph glyph-name="Ycircumflex" unicode="&#x176;" horiz-adv-x="573" 
d="M430 753h-72l-71 73l-71 -73h-73l101 103h86zM247 0v285l-245 425h87l173 -307q11 -21 24 -48h2q6 15 24 48l172 307h87l-245 -425v-285h-79z" />
    <glyph glyph-name="ycircumflex" unicode="&#x177;" horiz-adv-x="476" 
d="M387 580h-66l-82 107l-81 -107h-66l111 143h72zM87 -201q-24 0 -44 4v62q18 -3 35 -3q47 0 74 25.5t46 79.5l13 37l-200 496h78l134 -357q13 -34 22 -68h2q7 29 21 69l122 356h75l-195 -532q-33 -91 -76.5 -130t-106.5 -39z" />
    <glyph glyph-name="Ydieresis" unicode="&#x178;" horiz-adv-x="573" 
d="M139 753v96h79v-96h-79zM357 753v96h79v-96h-79zM247 0v285l-245 425h87l173 -307q11 -21 24 -48h2q6 15 24 48l172 307h87l-245 -425v-285h-79z" />
    <glyph glyph-name="Zacute" unicode="&#x179;" horiz-adv-x="568" 
d="M254 753l91 103h79l-102 -103h-68zM36 72l411 572h-397v66h480v-72l-412 -572h426v-66h-508v72z" />
    <glyph glyph-name="zacute" unicode="&#x17a;" horiz-adv-x="455" 
d="M196 580l99 143h86l-119 -143h-66zM38 54l286 387h-274v59h358v-52l-283 -388h297v-60h-384v54z" />
    <glyph glyph-name="Zdotaccent" unicode="&#x17b;" horiz-adv-x="568" 
d="M245 753v103h86v-103h-86zM36 72l411 572h-397v66h480v-72l-412 -572h426v-66h-508v72z" />
    <glyph glyph-name="zdotaccent" unicode="&#x17c;" horiz-adv-x="455" 
d="M188 590v110h79v-110h-79zM38 54l286 387h-274v59h358v-52l-283 -388h297v-60h-384v54z" />
    <glyph glyph-name="Zcaron" unicode="&#x17d;" horiz-adv-x="568" 
d="M431 851l-100 -103h-86l-101 103h73l71 -73l71 73h72zM36 72l411 572h-397v66h480v-72l-412 -572h426v-66h-508v72z" />
    <glyph glyph-name="zcaron" unicode="&#x17e;" horiz-adv-x="455" 
d="M80 718h66l82 -107l81 107h66l-111 -143h-72zM38 54l286 387h-274v59h358v-52l-283 -388h297v-60h-384v54z" />
    <glyph glyph-name="florin" unicode="&#x192;" horiz-adv-x="409" 
d="M347 645q-28 0 -46.5 -7.5t-28.5 -25.5t-14.5 -34.5t-9.5 -48.5l-14 -107h133v-55h-140l-68 -517h-70l68 517h-115v55h122l11 84q6 42 10.5 66t16.5 53.5t28.5 44.5t45.5 26t69 11q25 0 53 -6v-61q-27 5 -51 5z" />
    <glyph glyph-name="AEacute" unicode="&#x1fc;" horiz-adv-x="929" 
d="M779 856l-102 -103h-68l91 103h79zM522 66h341v-66h-419v177h-262l-100 -177h-83l418 710h439v-66h-334v-247h317v-66h-317v-265zM219 242h225v397z" />
    <glyph glyph-name="aeacute" unicode="&#x1fd;" horiz-adv-x="848" 
d="M578 723l-119 -143h-66l99 143h86zM794 269v-36h-342q1 -85 40.5 -134t107.5 -49q49 0 84 28t49 79l58 -24q-22 -70 -72.5 -107.5t-122.5 -37.5q-140 0 -187 126q-24 -61 -75 -93.5t-121 -32.5q-74 0 -118.5 38t-44.5 102q0 130 177 148l154 16v20q0 141 -121 141
q-57 0 -89 -28t-35 -81h-71q5 79 56 123.5t139 44.5q124 0 164 -93q54 93 171 93q96 0 147.5 -63.5t51.5 -179.5zM722 290q1 78 -32.5 122.5t-94.5 44.5q-62 0 -102 -45.5t-41 -121.5h270zM382 218v21l-134 -14q-67 -7 -96 -30.5t-29 -67.5q0 -36 28.5 -58.5t74.5 -22.5
q64 0 110 43.5t46 128.5z" />
    <glyph glyph-name="Oslashacute" unicode="&#x1fe;" horiz-adv-x="740" 
d="M503 856l-102 -103h-68l91 103h79zM610 619q80 -100 80 -264q0 -171 -87 -271.5t-233 -100.5q-118 0 -200 69l-48 -61l-45 33l53 69q-80 100 -80 262q0 172 87 272t233 100q119 0 201 -68l46 59l45 -33zM131 355q0 -119 48 -200l347 446q-62 60 -156 60q-111 0 -175 -82
t-64 -224zM370 49q112 0 175.5 82t63.5 224q0 120 -48 201l-346 -446q61 -61 155 -61z" />
    <glyph glyph-name="oslashacute" unicode="&#x1ff;" horiz-adv-x="555" 
d="M432 723l-119 -143h-66l99 143h86zM452 433q55 -71 55 -183q0 -121 -62.5 -191.5t-166.5 -70.5q-85 0 -143 47l-37 -47l-36 27l41 52q-55 71 -55 183q0 121 62.5 191.5t167.5 70.5q84 0 142 -47l37 47l37 -26zM122 250q0 -78 27 -126l230 289q-40 38 -101 38
q-73 0 -114.5 -52t-41.5 -149zM278 49q73 0 114 52t41 149q0 77 -26 126l-231 -289q40 -38 102 -38z" />
    <glyph glyph-name="Scommaaccent" unicode="&#x218;" horiz-adv-x="618" 
d="M317 -17q-129 0 -200.5 63t-79.5 167l78 11q9 -78 59.5 -127.5t145.5 -49.5q74 0 122.5 34t48.5 100q0 65 -35.5 94.5t-108.5 43.5l-105 21q-175 34 -175 190q0 89 65.5 143t175.5 54t179 -51t78 -155l-78 -15q-15 159 -181 159q-72 0 -115.5 -34.5t-43.5 -93.5
q0 -104 126 -130l105 -21q91 -18 142 -63t51 -134q0 -91 -66.5 -148.5t-187.5 -57.5zM313 -229l-18 32q25 11 32.5 25.5t7.5 43.5h-42v78h80v-72q0 -81 -60 -107z" />
    <glyph glyph-name="scommaaccent" unicode="&#x219;" horiz-adv-x="492" 
d="M256 -12q-88 0 -143.5 40t-67.5 115l71 12q9 -53 45.5 -81t96.5 -28q54 0 84 24t30 62q0 35 -20 53t-61 26l-98 19q-129 25 -129 137q0 64 50 104.5t134 40.5q83 0 134 -36t58 -102l-69 -15q-16 96 -126 96q-52 0 -82.5 -22.5t-30.5 -62.5q0 -34 21 -52.5t62 -27.5
l98 -19q128 -25 128 -133q0 -68 -49.5 -109t-135.5 -41zM245 -229l-18 32q25 11 32.5 25.5t7.5 43.5h-42v78h80v-72q0 -81 -60 -107z" />
    <glyph glyph-name="uni021A" unicode="&#x21a;" horiz-adv-x="556" 
d="M10 710h536v-66h-229v-644h-78v644h-229v66zM239 -128v78h80v-72q0 -81 -60 -107l-18 32q25 11 32.5 25.5t7.5 43.5h-42z" />
    <glyph glyph-name="uni021B" unicode="&#x21b;" horiz-adv-x="349" 
d="M21 442v58h92v132l70 30v-162h129v-58h-129v-300q0 -85 78 -85q21 0 51 7v-64q-32 -9 -69 -9q-130 0 -130 148v303h-92zM214 -229l-18 32q25 11 32.5 25.5t7.5 43.5h-42v78h80v-72q0 -81 -60 -107z" />
    <glyph glyph-name="uni0237" unicode="&#x237;" horiz-adv-x="255" 
d="M38 -202q-35 0 -58 6v60q26 -2 48 -2q32 0 47.5 18.5t15.5 67.5v552h70v-559q0 -65 -29.5 -104t-93.5 -39z" />
    <glyph glyph-name="uni0243" unicode="&#x243;" horiz-adv-x="654" 
d="M593 193q0 -74 -43.5 -127.5t-145.5 -63.5v-109h-45v107h-78v-107h-46v107h-130v695h130v90h46v-90h61h17v90h45v-94q93 -13 132 -61.5t39 -111.5q0 -58 -30 -100t-96 -57q71 -10 107.5 -54t36.5 -114zM342 631h-163v-244h166q152 0 152 125q0 119 -155 119zM356 64
q160 0 160 135q0 57 -36.5 92.5t-114.5 35.5h-186v-263h177z" />
    <glyph glyph-name="circumflex" unicode="&#x2c6;" horiz-adv-x="600" 
d="M343 580h-66l-82 107l-81 -107h-66l111 143h72z" />
    <glyph glyph-name="caron" unicode="&#x2c7;" horiz-adv-x="600" 
d="M47 718h66l82 -107l81 107h66l-111 -143h-72z" />
    <glyph glyph-name="breve" unicode="&#x2d8;" horiz-adv-x="600" 
d="M113 723q6 -97 87 -97q39 0 61.5 24.5t24.5 72.5h60q-4 -75 -43.5 -111.5t-102.5 -36.5t-103 36.5t-43 111.5h59z" />
    <glyph glyph-name="dotaccent" unicode="&#x2d9;" horiz-adv-x="600" 
d="M49 590v110h79v-110h-79z" />
    <glyph glyph-name="ring" unicode="&#x2da;" horiz-adv-x="600" 
d="M154 559q-47 0 -76.5 27.5t-29.5 71.5t29.5 71.5t76.5 27.5t76 -27.5t29 -71.5t-29 -71.5t-76 -27.5zM154 599q25 0 40.5 16.5t15.5 42.5t-15.5 42.5t-40.5 16.5t-41 -16.5t-16 -42.5t16 -42.5t41 -16.5z" />
    <glyph glyph-name="ogonek" unicode="&#x2db;" horiz-adv-x="600" 
d="M244 -110q-14 -93 -100 -93q-43 0 -69 23t-26 62q0 79 101 120l66 -2q-59 -18 -86 -47.5t-27 -63.5q0 -22 12 -34t32 -12q39 0 47 53z" />
    <glyph glyph-name="tilde" unicode="&#x2dc;" horiz-adv-x="600" 
d="M304 590q-31 0 -57 17.5t-48 35t-43 17.5q-39 0 -51 -61l-49 8q7 52 33.5 81t69.5 29q25 0 46.5 -11t35 -24.5t31.5 -24.5t35 -11q40 0 52 62l48 -9q-6 -52 -33 -80.5t-70 -28.5z" />
    <glyph glyph-name="hungarumlaut" unicode="&#x2dd;" horiz-adv-x="600" 
d="M61 580l87 143h68l-93 -143h-62zM202 580l87 143h69l-93 -143h-63z" />
    <glyph glyph-name="gravecomb" unicode="&#x300;" horiz-adv-x="0" 
d="M-32 580h-66l-119 143h86z" />
    <glyph glyph-name="acutecomb" unicode="&#x301;" horiz-adv-x="0" 
d="M-233 580l99 143h86l-119 -143h-66z" />
    <glyph glyph-name="uni0302" unicode="&#x302;" horiz-adv-x="0" 
d="M-47 580h-66l-82 107l-81 -107h-66l111 143h72z" />
    <glyph glyph-name="tildecomb" unicode="&#x303;" horiz-adv-x="0" 
d="M-158 590q-31 0 -57 17.5t-48 35t-43 17.5q-39 0 -51 -61l-49 8q7 52 33.5 81t69.5 29q25 0 46.5 -11t35 -24.5t31.5 -24.5t35 -11q40 0 52 62l48 -9q-6 -52 -33 -80.5t-70 -28.5z" />
    <glyph glyph-name="uni0304" unicode="&#x304;" horiz-adv-x="0" 
d="M-333 619v56h291v-56h-291z" />
    <glyph glyph-name="uni0306" unicode="&#x306;" horiz-adv-x="0" 
d="M-286 723q6 -97 87 -97q39 0 61.5 24.5t24.5 72.5h60q-4 -75 -43.5 -111.5t-102.5 -36.5t-103 36.5t-43 111.5h59z" />
    <glyph glyph-name="uni0307" unicode="&#x307;" horiz-adv-x="0" 
d="M-129 590v110h79v-110h-79z" />
    <glyph glyph-name="uni0308" unicode="&#x308;" horiz-adv-x="0" 
d="M-326 592v106h79v-106h-79zM-124 592v106h79v-106h-79z" />
    <glyph glyph-name="uni030A" unicode="&#x30a;" horiz-adv-x="0" 
d="M-153 559q-47 0 -76.5 27.5t-29.5 71.5t29.5 71.5t76.5 27.5t76 -27.5t29 -71.5t-29 -71.5t-76 -27.5zM-153 599q25 0 40.5 16.5t15.5 42.5t-15.5 42.5t-40.5 16.5t-41 -16.5t-16 -42.5t16 -42.5t41 -16.5z" />
    <glyph glyph-name="uni030B" unicode="&#x30b;" horiz-adv-x="0" 
d="M-348 580l87 143h68l-93 -143h-62zM-207 580l87 143h69l-93 -143h-63z" />
    <glyph glyph-name="uni030C" unicode="&#x30c;" horiz-adv-x="0" 
d="M-343 718h66l82 -107l81 107h66l-111 -143h-72z" />
    <glyph glyph-name="uni0312" unicode="&#x312;" horiz-adv-x="0" 
d="M-71 759l18 -32q-25 -11 -32.5 -25.5t-7.5 -43.5h42v-78h-80v72q0 81 60 107z" />
    <glyph glyph-name="uni0326" unicode="&#x326;" horiz-adv-x="0" 
d="M-110 -229l-18 32q25 11 32.5 25.5t7.5 43.5h-42v78h80v-72q0 -81 -60 -107z" />
    <glyph glyph-name="uni0327" unicode="&#x327;" horiz-adv-x="0" 
d="M-173 5h46l-37 -61q14 12 42 12q32 0 52 -20t20 -54q0 -37 -27 -59.5t-71 -22.5q-77 0 -95 63l49 7q8 -31 45 -31q20 0 32.5 12t12.5 32q0 19 -11.5 30.5t-31.5 11.5q-21 0 -37 -16l-33 11z" />
    <glyph glyph-name="uni0328" unicode="&#x328;" horiz-adv-x="0" 
d="M-53 -110q-14 -93 -100 -93q-43 0 -69 23t-26 62q0 79 101 120l66 -2q-59 -18 -86 -47.5t-27 -63.5q0 -22 12 -34t32 -12q39 0 47 53z" />
    <glyph glyph-name="uni0394" unicode="&#x394;" horiz-adv-x="589" 
d="M8 0l247 710h82l244 -710h-573zM295 628l-196 -566h387z" />
    <glyph glyph-name="uni03A9" unicode="&#x3a9;" horiz-adv-x="636" 
d="M581 0h-214l-13 214q84 16 130 75.5t46 151.5q0 101 -57.5 161t-154.5 60t-154.5 -60t-57.5 -161q0 -92 46 -151.5t130 -75.5l-13 -214h-214v65h155l8 108q-85 26 -134 98t-49 171q0 126 78 203.5t205 77.5t205 -77.5t78 -203.5q0 -99 -49 -171t-134 -98l8 -108h155v-65z
" />
    <glyph glyph-name="uni03BC" unicode="&#x3bc;" horiz-adv-x="589" 
d="M424 500h70v-500h-66v103q-18 -51 -62 -83t-100 -32q-68 0 -109 30v-213h-62v695h69v-310q0 -71 30.5 -106.5t83.5 -35.5q67 0 106.5 50.5t39.5 128.5v273z" />
    <glyph glyph-name="pi" unicode="&#x3c0;" horiz-adv-x="585" 
d="M549 -1q-15 -6 -45 -6q-64 0 -87.5 33.5t-23.5 90.5v327h-199v-444h-70v444h-91v56h517v-56h-88v-327q0 -61 52 -61q15 0 35 4v-61z" />
    <glyph glyph-name="uni0E3F" unicode="&#xe3f;" horiz-adv-x="654" 
d="M449 361q70 -11 107 -54t37 -114q0 -92 -61 -142.5t-171 -50.5h-12v-107h-45v107h-199v695h199v91h45v-91q107 -2 166.5 -48.5t59.5 -128.5q0 -62 -32.5 -102.5t-93.5 -54.5zM179 631v-244h125v244h-125zM497 512q0 57 -38 87t-110 32v-244q71 1 109.5 33t38.5 92z
M179 64h125v263h-125v-263zM356 64q78 0 119 34.5t41 100.5q0 62 -39 95t-112 33h-16v-263h7z" />
    <glyph glyph-name="Wgrave" unicode="&#x1e80;" horiz-adv-x="909" 
d="M489 753h-68l-102 103h79zM202 0l-177 710h80l137 -591q3 -14 6 -37h3q0 10 7 37l157 591h79l157 -591q6 -24 8 -37h2q3 23 6 37l138 591h79l-176 -710h-95l-151 577q-5 19 -6 33h-3q-1 -14 -6 -33l-150 -577h-95z" />
    <glyph glyph-name="wgrave" unicode="&#x1e81;" horiz-adv-x="725" 
d="M394 580h-66l-119 143h86zM170 0l-144 500h72l99 -369q10 -43 12 -60h2q3 20 14 60l100 369h74l101 -369q1 -5 6.5 -26.5t7.5 -33.5h2q2 17 12 60l99 369h72l-144 -500h-76l-104 374q-7 27 -12 55h-1q-5 -28 -12 -55l-104 -374h-76z" />
    <glyph glyph-name="Wacute" unicode="&#x1e82;" horiz-adv-x="909" 
d="M421 753l91 103h79l-102 -103h-68zM202 0l-177 710h80l137 -591q3 -14 6 -37h3q0 10 7 37l157 591h79l157 -591q6 -24 8 -37h2q3 23 6 37l138 591h79l-176 -710h-95l-151 577q-5 19 -6 33h-3q-1 -14 -6 -33l-150 -577h-95z" />
    <glyph glyph-name="wacute" unicode="&#x1e83;" horiz-adv-x="725" 
d="M331 580l99 143h86l-119 -143h-66zM170 0l-144 500h72l99 -369q10 -43 12 -60h2q3 20 14 60l100 369h74l101 -369q1 -5 6.5 -26.5t7.5 -33.5h2q2 17 12 60l99 369h72l-144 -500h-76l-104 374q-7 27 -12 55h-1q-5 -28 -12 -55l-104 -374h-76z" />
    <glyph glyph-name="Wdieresis" unicode="&#x1e84;" horiz-adv-x="909" 
d="M307 753v96h79v-96h-79zM525 753v96h79v-96h-79zM202 0l-177 710h80l137 -591q3 -14 6 -37h3q0 10 7 37l157 591h79l157 -591q6 -24 8 -37h2q3 23 6 37l138 591h79l-176 -710h-95l-151 577q-5 19 -6 33h-3q-1 -14 -6 -33l-150 -577h-95z" />
    <glyph glyph-name="wdieresis" unicode="&#x1e85;" horiz-adv-x="725" 
d="M223 592v106h79v-106h-79zM425 592v106h79v-106h-79zM170 0l-144 500h72l99 -369q10 -43 12 -60h2q3 20 14 60l100 369h74l101 -369q1 -5 6.5 -26.5t7.5 -33.5h2q2 17 12 60l99 369h72l-144 -500h-76l-104 374q-7 27 -12 55h-1q-5 -28 -12 -55l-104 -374h-76z" />
    <glyph glyph-name="Ygrave" unicode="&#x1ef2;" horiz-adv-x="573" 
d="M321 753h-68l-102 103h79zM247 0v285l-245 425h87l173 -307q11 -21 24 -48h2q6 15 24 48l172 307h87l-245 -425v-285h-79z" />
    <glyph glyph-name="ygrave" unicode="&#x1ef3;" horiz-adv-x="476" 
d="M270 580h-66l-119 143h86zM87 -201q-24 0 -44 4v62q18 -3 35 -3q47 0 74 25.5t46 79.5l13 37l-200 496h78l134 -357q13 -34 22 -68h2q7 29 21 69l122 356h75l-195 -532q-33 -91 -76.5 -130t-106.5 -39z" />
    <glyph glyph-name="uni2002" unicode="&#x2002;" horiz-adv-x="500" 
 />
    <glyph glyph-name="uni2003" unicode="&#x2003;" horiz-adv-x="1000" 
 />
    <glyph glyph-name="uni2004" unicode="&#x2004;" horiz-adv-x="0" 
 />
    <glyph glyph-name="uni2005" unicode="&#x2005;" horiz-adv-x="250" 
 />
    <glyph glyph-name="uni2009" unicode="&#x2009;" horiz-adv-x="135" 
 />
    <glyph glyph-name="uni200A" unicode="&#x200a;" horiz-adv-x="75" 
 />
    <glyph glyph-name="endash" unicode="&#x2013;" horiz-adv-x="517" 
d="M52 305h412v-53h-412v53z" />
    <glyph glyph-name="emdash" unicode="&#x2014;" horiz-adv-x="800" 
d="M52 305h695v-53h-695v53z" />
    <glyph glyph-name="quoteleft" unicode="&#x2018;" horiz-adv-x="239" 
d="M150 721l19 -36q-32 -16 -42.5 -36t-10.5 -57v-3h50v-112h-95v106q0 56 17 86.5t62 51.5z" />
    <glyph glyph-name="quoteright" unicode="&#x2019;" horiz-adv-x="239" 
d="M89 466l-19 36q32 16 42.5 36t10.5 57v3h-50v112h95v-106q0 -56 -17 -86.5t-62 -51.5z" />
    <glyph glyph-name="quotesinglbase" unicode="&#x201a;" horiz-adv-x="239" 
d="M89 -132l-19 36q32 16 42.5 36t10.5 57v3h-50v112h95v-106q0 -56 -17 -86.5t-62 -51.5z" />
    <glyph glyph-name="quotedblleft" unicode="&#x201c;" horiz-adv-x="387" 
d="M150 722l19 -36q-32 -16 -42.5 -36t-10.5 -57v-3h50v-112h-95v106q0 56 17 86.5t62 51.5zM298 722l19 -36q-32 -16 -42.5 -36t-10.5 -57v-3h50v-112h-95v106q0 56 17 86.5t62 51.5z" />
    <glyph glyph-name="quotedblright" unicode="&#x201d;" horiz-adv-x="387" 
d="M89 466l-19 36q32 16 42.5 36t10.5 57v3h-50v112h95v-106q0 -56 -17 -86.5t-62 -51.5zM237 466l-19 36q32 16 42.5 36t10.5 57v3h-50v112h95v-106q0 -56 -17 -86.5t-62 -51.5z" />
    <glyph glyph-name="quotedblbase" unicode="&#x201e;" horiz-adv-x="387" 
d="M89 -132l-19 36q32 16 42.5 36t10.5 57v3h-50v112h95v-106q0 -56 -17 -86.5t-62 -51.5zM237 -132l-19 36q32 16 42.5 36t10.5 57v3h-50v112h95v-106q0 -56 -17 -86.5t-62 -51.5z" />
    <glyph glyph-name="dagger" unicode="&#x2020;" horiz-adv-x="488" 
d="M278 442v-542h-69v542h-136v58h136v220h69v-220h137v-58h-137z" />
    <glyph glyph-name="daggerdbl" unicode="&#x2021;" horiz-adv-x="488" 
d="M415 442h-137v-264h136v-58h-136v-220h-69v220h-135v58h135v264h-136v58h136v220h69v-220h137v-58z" />
    <glyph glyph-name="bullet" unicode="&#x2022;" horiz-adv-x="302" 
d="M151 268q-35 0 -57 21.5t-22 55.5q0 36 22 58t57 22t57 -22t22 -58q0 -34 -22 -55.5t-57 -21.5z" />
    <glyph glyph-name="ellipsis" unicode="&#x2026;" horiz-adv-x="802" 
d="M166 109v-109h-94v109h94zM448 109v-109h-94v109h94zM730 109v-109h-94v109h94z" />
    <glyph glyph-name="perthousand" unicode="&#x2030;" horiz-adv-x="1125" 
d="M189 364q-76 0 -121.5 48.5t-45.5 131.5q0 80 45.5 128t120.5 48q73 0 119 -49t46 -130q0 -80 -45.5 -128.5t-118.5 -48.5zM127 -15l439 730h68l-438 -730h-69zM189 417q47 0 75 33t28 91t-28.5 92t-75.5 34q-48 0 -77 -33t-29 -90q0 -60 29 -93.5t78 -33.5zM576 -14
q-76 0 -121.5 48.5t-45.5 131.5q0 80 45.5 128t120.5 48q73 0 119 -49t46 -130q0 -80 -45.5 -128.5t-118.5 -48.5zM938 -14q-76 0 -121.5 48.5t-45.5 131.5q0 80 45.5 128t120.5 48q73 0 119 -49t46 -130q0 -80 -45.5 -128.5t-118.5 -48.5zM576 39q47 0 75 33t28 91
t-28.5 92t-75.5 34q-48 0 -77 -33t-29 -90q0 -60 29 -93.5t78 -33.5zM938 39q47 0 75 33t28 91t-28.5 92t-75.5 34q-48 0 -77 -33t-29 -90q0 -60 29 -93.5t78 -33.5z" />
    <glyph glyph-name="guilsinglleft" unicode="&#x2039;" horiz-adv-x="314" 
d="M207 67l-170 208l171 208h74l-166 -208l166 -208h-75z" />
    <glyph glyph-name="guilsinglright" unicode="&#x203a;" horiz-adv-x="314" 
d="M107 67h-75l166 208l-166 208h74l171 -208z" />
    <glyph glyph-name="fraction" unicode="&#x2044;" horiz-adv-x="186" 
d="M-153 -17l431 744h62l-430 -744h-63z" />
    <glyph glyph-name="uni20A9" unicode="&#x20a9;" horiz-adv-x="882" 
d="M857 695l-61 -243h61v-48h-73l-23 -91h96v-48h-108l-66 -265h-87l-68 265h-174l-68 -265h-87l-66 265h-108v48h96l-23 91h-73v48h61l-61 243h76l56 -243h184l64 243h72l64 -243h184l56 243h76zM415 506l-14 -54h80l-14 54q-16 61 -24 129h-4q-8 -68 -24 -129zM168 404
l21 -91h116l24 91h-161zM366 313h150l-23 91h-104zM693 313l21 91h-160l24 -91h115zM267 167l26 98h-93l22 -95q16 -76 20 -109h2q6 48 23 106zM660 170l22 95h-92l26 -98q16 -62 22 -106h3q5 42 19 109z" />
    <glyph glyph-name="Euro" unicode="&#x20ac;" horiz-adv-x="655" 
d="M568 171l56 -36q-35 -71 -100 -110.5t-152 -39.5q-125 0 -199 75.5t-95 202.5h-64v51h59q-2 30 -2 45q0 26 1 39h-58v50h64q19 124 94.5 193t201.5 69q172 0 245 -139l-60 -39q-57 113 -191 113q-89 0 -143 -51.5t-71 -145.5h351v-50h-357q-1 -12 -1 -38q0 -16 2 -46h356
v-51h-349q18 -98 74.5 -155.5t143.5 -57.5q60 0 111 30t83 91z" />
    <glyph glyph-name="uni20B9" unicode="&#x20b9;" horiz-adv-x="552" 
d="M540 695v-54h-192q70 -39 81 -123h111v-51h-111q-8 -84 -71.5 -130t-172.5 -46h-20l255 -291h-89l-259 301v47h122q146 0 161 119h-283v51h282q-7 59 -48 91t-111 32h-123v54h468z" />
    <glyph glyph-name="uni20BA" unicode="&#x20ba;" horiz-adv-x="560" 
d="M477 239l67 -15q-47 -224 -273 -224h-161v276l-78 -23v57l78 23v88l-78 -23v57l78 23v217h74v-195l256 75v-57l-256 -75v-88l256 75v-57l-256 -75v-232h76q173 0 217 173z" />
    <glyph glyph-name="uni20BD" unicode="&#x20bd;" horiz-adv-x="570" 
d="M313 292h-128v-97h174v-51h-174v-144h-74v144h-71v51h71v97h-71v54h71v349h202q108 0 171.5 -54t63.5 -145q0 -94 -63.5 -149t-171.5 -55zM185 629v-283h125q74 0 117.5 39.5t43.5 106.5q0 63 -43.5 100t-117.5 37h-125z" />
    <glyph glyph-name="uni2105" unicode="&#x2105;" horiz-adv-x="875" 
d="M200 -13h-69l536 748h69zM46 547q0 86 42.5 136.5t126.5 50.5q62 0 102 -34t44 -95l-58 -10q-13 84 -91 84q-50 0 -76.5 -35.5t-26.5 -95.5q0 -63 27 -99.5t78 -36.5q39 0 62.5 22.5t28.5 63.5l57 -11q-9 -59 -46 -95t-102 -36q-81 0 -124.5 53t-43.5 138zM664 -12
q-75 0 -120.5 51.5t-45.5 138.5q0 85 45.5 137t120.5 52t120.5 -52t45.5 -137q0 -87 -45.5 -138.5t-120.5 -51.5zM769 178q0 62 -28 98.5t-77 36.5t-76.5 -36.5t-27.5 -98.5q0 -64 27.5 -100t76.5 -36t77 36t28 100z" />
    <glyph glyph-name="uni2113" unicode="&#x2113;" horiz-adv-x="396" 
d="M164 143q0 -86 78 -86q24 0 55 7v-64q-33 -9 -73 -9q-72 0 -100.5 39.5t-28.5 113.5v77q-46 -23 -89 -41l-24 52q74 32 113 55v294q0 77 36 113.5t88 36.5q61 0 92.5 -42t31.5 -114q0 -192 -179 -313v-119zM164 595v-262q109 89 109 232q0 60 -14 85t-42 25
q-53 0 -53 -80z" />
    <glyph glyph-name="uni2116" unicode="&#x2116;" horiz-adv-x="1194" 
d="M105 0v710h94l329 -542q29 -50 42 -82h2q-3 36 -3 87v537h70v-710h-94l-329 543q-31 54 -42 82h-2q3 -36 3 -87v-538h-70zM929 177q-94 0 -152 62.5t-58 163.5t57.5 163t152.5 62t153 -62t58 -163t-58 -163.5t-153 -62.5zM929 239q64 0 101 44t37 120q0 75 -37 119
t-101 44t-100.5 -44t-36.5 -119q0 -76 36.5 -120t100.5 -44zM719 0v64h421v-64h-421z" />
    <glyph glyph-name="trademark" unicode="&#x2122;" horiz-adv-x="845" 
d="M133 304v359h-128v47h321v-47h-137v-359h-56zM369 304v406h78l115 -304q12 -33 16 -54h2q2 14 16 54l114 304h78v-406h-52v298q0 38 2 62h-1q-5 -18 -20 -59l-114 -301h-50l-112 301q-15 41 -20 59h-1q2 -24 2 -62v-298h-53z" />
    <glyph glyph-name="uni2126" unicode="&#x2126;" horiz-adv-x="636" 
d="M581 0h-214l-13 214q84 16 130 75.5t46 151.5q0 101 -57.5 161t-154.5 60t-154.5 -60t-57.5 -161q0 -92 46 -151.5t130 -75.5l-13 -214h-214v65h155l8 108q-85 26 -134 98t-49 171q0 126 78 203.5t205 77.5t205 -77.5t78 -203.5q0 -99 -49 -171t-134 -98l8 -108h155v-65z
" />
    <glyph glyph-name="estimated" unicode="&#x212e;" horiz-adv-x="757" 
d="M708 357h-523v-239q76 -80 208 -80q86 0 147.5 32t109.5 102l38 -29q-99 -157 -295 -157q-70 0 -130.5 21.5t-108.5 64t-76 114t-28 165.5q0 173 97 268.5t240 95.5q146 0 233.5 -87.5t87.5 -231.5v-39zM383 669q-122 0 -198 -82v-181h397v185q-68 78 -199 78z" />
    <glyph glyph-name="uni2153" unicode="&#x2153;" horiz-adv-x="811" 
d="M107 -17l431 744h62l-430 -744h-63zM121 333v294q-29 -37 -81 -37h-12v54h8q75 0 96 67h47v-378h-58zM627 -8q-68 0 -107.5 32t-40.5 88l59 5q2 -38 25.5 -59t63.5 -21q85 0 85 71q0 30 -22.5 46.5t-63.5 16.5h-37v43h33q37 0 58.5 17t21.5 45q0 32 -20 49.5t-57 17.5
q-39 0 -62 -21.5t-23 -59.5l-58 5q0 56 39 88t107 32q63 0 98.5 -28t35.5 -77q0 -33 -23 -57.5t-60 -28.5q43 -4 69.5 -29t26.5 -64q0 -52 -39.5 -81.5t-108.5 -29.5z" />
    <glyph glyph-name="uni2154" unicode="&#x2154;" horiz-adv-x="909" 
d="M205 -17l431 744h62l-430 -744h-63zM34 333v44q69 42 110.5 71t75.5 70.5t34 81.5q0 35 -20 54t-56 19q-38 0 -59.5 -19t-21.5 -53q0 -12 5 -30l-61 5q-3 14 -3 31q0 53 38 83t105 30q63 0 98.5 -30t35.5 -85q0 -64 -59 -123.5t-142 -103.5h210v-45h-290zM725 -8
q-68 0 -107.5 32t-40.5 88l59 5q2 -38 25.5 -59t63.5 -21q85 0 85 71q0 30 -22.5 46.5t-63.5 16.5h-37v43h33q37 0 58.5 17t21.5 45q0 32 -20 49.5t-57 17.5q-39 0 -62 -21.5t-23 -59.5l-58 5q0 56 39 88t107 32q63 0 98.5 -28t35.5 -77q0 -33 -23 -57.5t-60 -28.5
q43 -4 69.5 -29t26.5 -64q0 -52 -39.5 -81.5t-108.5 -29.5z" />
    <glyph glyph-name="oneeighth" unicode="&#x215b;" horiz-adv-x="818" 
d="M538 727h62l-430 -744h-63zM121 627q-29 -37 -81 -37h-12v54h8q75 0 96 67h47v-378h-58v294zM688 206q97 -27 97 -107q0 -50 -41.5 -78.5t-113.5 -28.5q-71 0 -111 27.5t-40 76.5q0 73 93 95q-82 26 -82 95q0 45 38 73t100 28q64 0 102 -25t38 -69q0 -34 -19 -54.5
t-61 -32.5zM545 286q0 -49 77 -65l27 -6q35 10 49.5 26t14.5 42q0 29 -22.5 46.5t-62.5 17.5q-37 0 -60 -16.5t-23 -44.5zM632 35q44 0 68.5 17.5t24.5 48.5q0 32 -21.5 48.5t-61.5 24.5l-28 7q-75 -21 -75 -77q0 -33 24 -51t69 -18z" />
    <glyph glyph-name="threeeighths" unicode="&#x215c;" horiz-adv-x="923" 
d="M643 727h62l-430 -744h-63zM329 436q0 -52 -39.5 -81.5t-108.5 -29.5q-68 0 -107.5 32t-40.5 88l59 5q2 -38 25.5 -59t63.5 -21q85 0 85 71q0 30 -22.5 46.5t-63.5 16.5h-37v43h33q37 0 58.5 17t21.5 45q0 32 -20 49.5t-57 17.5q-39 0 -62 -21.5t-23 -59.5l-58 5
q0 56 39 88t107 32q63 0 98.5 -28t35.5 -77q0 -33 -23 -57.5t-60 -28.5q43 -4 69.5 -29t26.5 -64zM793 206q97 -27 97 -107q0 -50 -41.5 -78.5t-113.5 -28.5q-71 0 -111 27.5t-40 76.5q0 73 93 95q-82 26 -82 95q0 45 38 73t100 28q64 0 102 -25t38 -69q0 -34 -19 -54.5
t-61 -32.5zM650 286q0 -49 77 -65l27 -6q35 10 49.5 26t14.5 42q0 29 -22.5 46.5t-62.5 17.5q-37 0 -60 -16.5t-23 -44.5zM737 35q44 0 68.5 17.5t24.5 48.5q0 32 -21.5 48.5t-61.5 24.5l-28 7q-75 -21 -75 -77q0 -33 24 -51t69 -18z" />
    <glyph glyph-name="fiveeighths" unicode="&#x215d;" horiz-adv-x="919" 
d="M639 727h62l-430 -744h-63zM326 462q0 -64 -39 -100.5t-107 -36.5q-59 0 -98 27t-46 74l56 9q6 -31 28.5 -48t56.5 -17q43 0 67 24.5t24 66.5q0 40 -23 63.5t-63 23.5q-31 0 -55 -17t-31 -44l-52 4l24 220h238v-46h-196l-14 -128q29 52 104 52q58 0 92 -34t34 -93z
M789 206q97 -27 97 -107q0 -50 -41.5 -78.5t-113.5 -28.5q-71 0 -111 27.5t-40 76.5q0 73 93 95q-82 26 -82 95q0 45 38 73t100 28q64 0 102 -25t38 -69q0 -34 -19 -54.5t-61 -32.5zM646 286q0 -49 77 -65l27 -6q35 10 49.5 26t14.5 42q0 29 -22.5 46.5t-62.5 17.5
q-37 0 -60 -16.5t-23 -44.5zM733 35q44 0 68.5 17.5t24.5 48.5q0 32 -21.5 48.5t-61.5 24.5l-28 7q-75 -21 -75 -77q0 -33 24 -51t69 -18z" />
    <glyph glyph-name="seveneighths" unicode="&#x215e;" horiz-adv-x="842" 
d="M562 727h62l-430 -744h-63zM100 337q6 191 153 327h-221v47h279v-46q-143 -135 -147 -324v-8h-64v4zM712 206q97 -27 97 -107q0 -50 -41.5 -78.5t-113.5 -28.5q-71 0 -111 27.5t-40 76.5q0 73 93 95q-82 26 -82 95q0 45 38 73t100 28q64 0 102 -25t38 -69
q0 -34 -19 -54.5t-61 -32.5zM569 286q0 -49 77 -65l27 -6q35 10 49.5 26t14.5 42q0 29 -22.5 46.5t-62.5 17.5q-37 0 -60 -16.5t-23 -44.5zM656 35q44 0 68.5 17.5t24.5 48.5q0 32 -21.5 48.5t-61.5 24.5l-28 7q-75 -21 -75 -77q0 -33 24 -51t69 -18z" />
    <glyph glyph-name="arrowleft" unicode="&#x2190;" horiz-adv-x="1085" 
d="M981 307h-726v-90l-150 113l150 113v-90h726v-46z" />
    <glyph glyph-name="arrowup" unicode="&#x2191;" horiz-adv-x="435" 
d="M193 -35v634h-88l112 151l113 -151h-88v-634h-49z" />
    <glyph glyph-name="arrowright" unicode="&#x2192;" horiz-adv-x="1085" 
d="M104 353h726v90l150 -113l-150 -113v90h-726v46z" />
    <glyph glyph-name="arrowdown" unicode="&#x2193;" horiz-adv-x="435" 
d="M242 745v-634h88l-112 -151l-113 151h88v634h49z" />
    <glyph glyph-name="arrowboth" unicode="&#x2194;" horiz-adv-x="1085" 
d="M830 306h-575v-89l-150 113l150 113v-89h575v89l151 -113l-151 -113v89z" />
    <glyph glyph-name="arrowupdn" unicode="&#x2195;" horiz-adv-x="435" 
d="M105 111h88v488h-88l112 151l113 -151h-88v-488h88l-113 -151z" />
    <glyph glyph-name="uni2196" unicode="&#x2196;" horiz-adv-x="926" 
d="M179 599l-74 -74v185h184l-75 -75l608 -608l-35 -36z" />
    <glyph glyph-name="uni2197" unicode="&#x2197;" horiz-adv-x="926" 
d="M747 600l-608 -608l-35 36l608 608l-75 75h184v-185z" />
    <glyph glyph-name="uni2198" unicode="&#x2198;" horiz-adv-x="926" 
d="M747 122l74 74v-185h-184l75 75l-608 608l35 36z" />
    <glyph glyph-name="uni2199" unicode="&#x2199;" horiz-adv-x="926" 
d="M179 122l608 608l35 -36l-608 -608l75 -75h-184v185z" />
    <glyph glyph-name="uni21A9" unicode="&#x21a9;" horiz-adv-x="1000" 
d="M255 217l-150 113l150 113v-90h428q76 0 117.5 36.5t41.5 105.5q0 67 -41.5 102.5t-117.5 35.5h-223v47h233q95 0 148.5 -48t53.5 -137t-54 -138.5t-148 -49.5h-438v-90z" />
    <glyph glyph-name="uni21AA" unicode="&#x21aa;" horiz-adv-x="1000" 
d="M745 217v90h-438q-94 0 -148 49.5t-54 138.5t53.5 137t148.5 48h233v-47h-223q-76 0 -117.5 -35.5t-41.5 -102.5q0 -69 41.5 -105.5t117.5 -36.5h428v90l150 -113z" />
    <glyph glyph-name="uni21B0" unicode="&#x21b0;" horiz-adv-x="843" 
d="M689 0v577h-434v-90l-150 113l150 113v-90h483v-623h-49z" />
    <glyph glyph-name="uni21B1" unicode="&#x21b1;" horiz-adv-x="843" 
d="M154 0h-49v623h483v90l150 -113l-150 -113v90h-434v-577z" />
    <glyph glyph-name="uni21B2" unicode="&#x21b2;" horiz-adv-x="843" 
d="M689 710h49v-623h-483v-90l-150 113l150 113v-90h434v577z" />
    <glyph glyph-name="uni21B3" unicode="&#x21b3;" horiz-adv-x="843" 
d="M154 710v-577h434v90l150 -113l-150 -113v90h-483v623h49z" />
    <glyph glyph-name="uni21B4" unicode="&#x21b4;" horiz-adv-x="922" 
d="M730 710v-572h87l-112 -150l-113 150h88v525h-575v47h625z" />
    <glyph glyph-name="uni21BB" unicode="&#x21bb;" horiz-adv-x="1022" 
d="M692 352h89v1q0 142 -89 228t-222 86t-222 -86t-89 -226t89 -227.5t221 -87.5q65 0 125.5 24.5t103.5 68.5l33 -40q-102 -104 -262 -104q-152 0 -258 101.5t-106 262.5q0 162 105.5 263.5t259.5 101.5q153 0 258 -101t105 -264v-1h84l-112 -151z" />
    <glyph glyph-name="uni21C4" unicode="&#x21c4;" horiz-adv-x="1085" 
d="M908 423h-653v-90l-150 113l150 113v-90h653v-46zM830 237v90l151 -113l-151 -113v90h-652v46h652z" />
    <glyph glyph-name="uni21C5" unicode="&#x21c5;" horiz-adv-x="667" 
d="M425 62v537h-88l112 151l113 -151h-88v-537h-49zM217 -40l-112 151h88v541h48v-541h89z" />
    <glyph glyph-name="partialdiff" unicode="&#x2202;" horiz-adv-x="601" 
d="M272 721q131 0 199 -97t68 -288q0 -170 -66 -261.5t-189 -91.5q-106 0 -170 66t-64 175q0 103 62 168t163 65q126 0 193 -101q0 303 -197 303q-54 0 -115 -26l-26 56q68 32 142 32zM287 43q85 0 131.5 60.5t49.5 173.5q-66 120 -181 120q-77 0 -121.5 -46.5t-44.5 -126.5
q0 -83 45 -132t121 -49z" />
    <glyph glyph-name="emptyset" unicode="&#x2205;" horiz-adv-x="552" 
d="M503 513l-55 -59q50 -61 50 -150q0 -100 -61.5 -163t-160.5 -63q-81 0 -139 44l-55 -58l-33 31l55 59q-50 61 -50 150q0 100 61.5 163t160.5 63q81 0 139 -44l54 57zM118 304q0 -60 30 -103l225 239q-40 31 -97 31q-70 0 -114 -46.5t-44 -120.5zM433 304q0 62 -29 103
l-225 -239q40 -31 97 -31q70 0 113.5 46.5t43.5 120.5z" />
    <glyph glyph-name="uni2206" unicode="&#x2206;" horiz-adv-x="589" 
d="M8 0l247 710h82l244 -710h-573zM295 628l-196 -566h387z" />
    <glyph glyph-name="product" unicode="&#x220f;" horiz-adv-x="663" 
d="M493 -88v727h-323v-727h-70v793h464v-793h-71z" />
    <glyph glyph-name="summation" unicode="&#x2211;" horiz-adv-x="590" 
d="M50 -88v52l288 363l-275 327v51h470v-63h-377l270 -315l-287 -352h406v-63h-495z" />
    <glyph glyph-name="minus" unicode="&#x2212;" horiz-adv-x="575" 
d="M52 296v65h470v-65h-470z" />
    <glyph glyph-name="radical" unicode="&#x221a;" horiz-adv-x="627" 
d="M47 296h132l92 -293l235 731h68l-270 -828h-65l-111 333h-81v57z" />
    <glyph glyph-name="infinity" unicode="&#x221e;" horiz-adv-x="613" 
d="M433 463q54 0 87.5 -37.5t33.5 -96.5q0 -57 -34.5 -96t-86.5 -39q-78 0 -127 83q-26 -42 -55 -62.5t-71 -20.5q-54 0 -87.5 37t-33.5 96q0 58 34.5 97t86.5 39q78 0 127 -83q26 42 55 62.5t71 20.5zM187 254q32 0 51 17.5t40 56.5q-22 38 -42.5 56.5t-51.5 18.5
q-30 0 -48 -20.5t-18 -54.5t18.5 -54t50.5 -20zM429 254q30 0 48 20t18 54t-18 54.5t-50 20.5t-51 -17.5t-40 -55.5q21 -39 41.5 -57.5t51.5 -18.5z" />
    <glyph glyph-name="integral" unicode="&#x222b;" horiz-adv-x="593" 
d="M138 -116q-17 0 -27 1v60q11 -1 28 -1q71 0 97.5 30.5t26.5 107.5v439q0 192 177 192q19 0 43 -3v-60q-24 3 -43 3q-59 0 -82.5 -34.5t-23.5 -105.5v-439q0 -95 -46 -143t-150 -47z" />
    <glyph glyph-name="approxequal" unicode="&#x2248;" 
d="M421 369q-38 0 -112.5 25t-107.5 25q-76 0 -126 -40v65q47 40 126 40q46 0 117 -25t103 -25q75 0 124 40v-65q-42 -40 -124 -40zM421 184q-38 0 -112.5 25t-107.5 25q-76 0 -126 -40v65q47 40 126 40q46 0 117 -25t103 -25q75 0 124 40v-65q-42 -40 -124 -40z" />
    <glyph glyph-name="notequal" unicode="&#x2260;" 
d="M525 389h-176l-46 -120h222v-65h-247l-50 -132h-47l50 132h-176v65h201l46 120h-247v65h272l49 128h47l-49 -128h151v-65z" />
    <glyph glyph-name="lessequal" unicode="&#x2264;" 
d="M536 133l-465 212v58l465 212v-65l-387 -175l387 -175v-67zM78 62h460v-62h-460v62z" />
    <glyph glyph-name="greaterequal" unicode="&#x2265;" 
d="M84 133v67l387 175l-387 175v65l465 -212v-58zM542 62v-62h-460v62h460z" />
    <glyph glyph-name="uni2460" unicode="&#x2460;" horiz-adv-x="842" 
d="M421 -17q-156 0 -263.5 102.5t-107.5 269.5q0 168 107.5 270t263.5 102t263.5 -102t107.5 -270q0 -167 -107.5 -269.5t-263.5 -102.5zM421 23q137 0 232 91.5t95 240.5q0 150 -95 241t-232 91t-232 -91t-95 -241q0 -149 95 -240.5t232 -91.5zM403 166v294
q-29 -37 -81 -37h-12v54h8q75 0 96 67h47v-378h-58z" />
    <glyph glyph-name="uni2461" unicode="&#x2461;" horiz-adv-x="842" 
d="M421 -17q-156 0 -263.5 102.5t-107.5 269.5q0 168 107.5 270t263.5 102t263.5 -102t107.5 -270q0 -167 -107.5 -269.5t-263.5 -102.5zM421 23q137 0 232 91.5t95 240.5q0 150 -95 241t-232 91t-232 -91t-95 -241q0 -149 95 -240.5t232 -91.5zM276 177v44q69 42 110.5 71
t75.5 70.5t34 81.5q0 35 -20 54t-56 19q-38 0 -59.5 -19t-21.5 -53q0 -12 5 -30l-61 5q-3 13 -3 31q0 53 38 83t105 30q63 0 98.5 -30t35.5 -85q0 -64 -59 -123.5t-142 -103.5h210v-45h-290z" />
    <glyph glyph-name="uni2462" unicode="&#x2462;" horiz-adv-x="842" 
d="M421 -17q-156 0 -263.5 102.5t-107.5 269.5q0 168 107.5 270t263.5 102t263.5 -102t107.5 -270q0 -167 -107.5 -269.5t-263.5 -102.5zM421 23q137 0 232 91.5t95 240.5q0 150 -95 241t-232 91t-232 -91t-95 -241q0 -149 95 -240.5t232 -91.5zM421 158q-68 0 -107.5 32
t-40.5 88l59 5q2 -38 25.5 -59t63.5 -21q85 0 85 71q0 30 -22.5 46.5t-63.5 16.5h-37v43h33q37 0 58.5 17t21.5 45q0 32 -20 49.5t-57 17.5q-39 0 -62 -21.5t-23 -59.5l-58 5q0 56 39 88t107 32q63 0 98.5 -28t35.5 -77q0 -33 -23 -57.5t-60 -28.5q43 -4 69.5 -29t26.5 -64
q0 -52 -39.5 -81.5t-108.5 -29.5z" />
    <glyph glyph-name="uni2463" unicode="&#x2463;" horiz-adv-x="842" 
d="M421 -17q-156 0 -263.5 102.5t-107.5 269.5q0 168 107.5 270t263.5 102t263.5 -102t107.5 -270q0 -167 -107.5 -269.5t-263.5 -102.5zM421 23q137 0 232 91.5t95 240.5q0 150 -95 241t-232 91t-232 -91t-95 -241q0 -149 95 -240.5t232 -91.5zM560 263h-64v-92h-56v92
h-196v43l190 243h62v-242h64v-44zM440 494l-147 -187h147v187z" />
    <glyph glyph-name="uni2464" unicode="&#x2464;" horiz-adv-x="842" 
d="M421 -17q-156 0 -263.5 102.5t-107.5 269.5q0 168 107.5 270t263.5 102t263.5 -102t107.5 -270q0 -167 -107.5 -269.5t-263.5 -102.5zM421 23q137 0 232 91.5t95 240.5q0 150 -95 241t-232 91t-232 -91t-95 -241q0 -149 95 -240.5t232 -91.5zM421 162q-59 0 -98 27
t-46 74l56 9q6 -31 28.5 -48t56.5 -17q43 0 67 24.5t24 66.5q0 40 -23 63.5t-63 23.5q-31 0 -55 -17t-31 -44l-52 4l24 220h238v-46h-196l-14 -128q29 52 104 52q58 0 92 -34t34 -93q0 -64 -39 -100.5t-107 -36.5z" />
    <glyph glyph-name="uni2465" unicode="&#x2465;" horiz-adv-x="842" 
d="M421 727q156 0 263.5 -102t107.5 -270q0 -167 -107.5 -269.5t-263.5 -102.5t-263.5 102.5t-107.5 269.5q0 168 107.5 270t263.5 102zM421 23q137 0 232 91.5t95 240.5q0 150 -95 241t-232 91t-232 -91t-95 -241q0 -149 95 -240.5t232 -91.5zM445 421q57 0 92 -34.5
t35 -94.5q0 -58 -39 -96t-104 -38q-74 0 -116 48.5t-42 144.5q0 92 40.5 147t115.5 55q117 0 136 -102l-54 -7q-15 65 -83 65q-48 0 -74 -41.5t-26 -115.5v-11q25 80 119 80zM428 201q41 0 65 24.5t24 63.5q0 41 -24.5 66t-64.5 25q-36 0 -62.5 -21.5t-36.5 -57.5
q16 -100 99 -100z" />
    <glyph glyph-name="uni2466" unicode="&#x2466;" horiz-adv-x="842" 
d="M421 -17q-156 0 -263.5 102.5t-107.5 269.5q0 168 107.5 270t263.5 102t263.5 -102t107.5 -270q0 -167 -107.5 -269.5t-263.5 -102.5zM421 23q137 0 232 91.5t95 240.5q0 150 -95 241t-232 91t-232 -91t-95 -241q0 -149 95 -240.5t232 -91.5zM283 497v47h279v-46
q-143 -135 -147 -324v-8h-64v4q6 191 153 327h-221z" />
    <glyph glyph-name="uni2467" unicode="&#x2467;" horiz-adv-x="842" 
d="M421 727q156 0 263.5 -102t107.5 -270q0 -167 -107.5 -269.5t-263.5 -102.5t-263.5 102.5t-107.5 269.5q0 168 107.5 270t263.5 102zM421 23q137 0 232 91.5t95 240.5q0 150 -95 241t-232 91t-232 -91t-95 -241q0 -149 95 -240.5t232 -91.5zM477 372q97 -27 97 -107
q0 -50 -41.5 -78.5t-113.5 -28.5q-71 0 -111 27.5t-40 76.5q0 73 93 95q-82 26 -82 95q0 45 38 73t100 28q64 0 102 -25t38 -69q0 -34 -19 -54.5t-61 -32.5zM334 452q0 -49 77 -65l27 -6q35 10 49.5 26t14.5 42q0 29 -22.5 46.5t-62.5 17.5q-37 0 -60 -16.5t-23 -44.5z
M421 201q44 0 68.5 17.5t24.5 48.5q0 32 -21.5 48.5t-61.5 24.5l-28 7q-75 -21 -75 -77q0 -33 24 -51t69 -18z" />
    <glyph glyph-name="uni2468" unicode="&#x2468;" horiz-adv-x="842" 
d="M421 727q156 0 263.5 -102t107.5 -270q0 -167 -107.5 -269.5t-263.5 -102.5t-263.5 102.5t-107.5 269.5q0 168 107.5 270t263.5 102zM421 23q137 0 232 91.5t95 240.5q0 150 -95 241t-232 91t-232 -91t-95 -241q0 -149 95 -240.5t232 -91.5zM415 553q156 0 156 -194
q0 -96 -39 -148.5t-118 -52.5q-118 0 -135 100l55 9q13 -64 84 -64q95 0 98 155q-34 -57 -113 -57q-60 0 -96 34.5t-36 90.5q0 55 38.5 91t105.5 36zM415 342q69 0 99 64q-12 104 -99 104q-41 0 -65 -23t-24 -60q0 -38 24.5 -61.5t64.5 -23.5z" />
    <glyph glyph-name="uni24EA" unicode="&#x24ea;" horiz-adv-x="842" 
d="M421 -17q-156 0 -263.5 102.5t-107.5 269.5q0 168 107.5 270t263.5 102t263.5 -102t107.5 -270q0 -167 -107.5 -269.5t-263.5 -102.5zM421 23q137 0 232 91.5t95 240.5q0 150 -95 241t-232 91t-232 -91t-95 -241q0 -149 95 -240.5t232 -91.5zM421 158q-77 0 -120 52
t-43 146q0 93 43 145t119 52q77 0 120 -52.5t43 -146.5q0 -93 -42.5 -144.5t-119.5 -51.5zM421 204q48 0 74.5 39t26.5 111q0 73 -26.5 113t-75.5 40q-48 0 -74.5 -39.5t-26.5 -111.5q0 -74 26.5 -113t75.5 -39z" />
    <glyph glyph-name="uni24FF" unicode="&#x24ff;" horiz-adv-x="842" 
d="M421 -17q-156 0 -263.5 102.5t-107.5 269.5t107.5 269.5t263.5 102.5t263.5 -102.5t107.5 -269.5t-107.5 -269.5t-263.5 -102.5zM421 158q77 0 120.5 51.5t43.5 144.5q0 94 -43.5 146.5t-121.5 52.5q-77 0 -120.5 -52t-43.5 -145q0 -94 43.5 -146t121.5 -52zM421 207
q-98 0 -98 149q0 71 25.5 109.5t71.5 38.5t72 -38.5t26 -111.5q0 -71 -25.5 -109t-71.5 -38z" />
    <glyph glyph-name="lozenge" unicode="&#x25ca;" horiz-adv-x="527" 
d="M294 -17h-62l-202 372l202 372h62l204 -372zM263 658l-161 -303l161 -303l163 303z" />
    <glyph glyph-name="circle" unicode="&#x25cb;" horiz-adv-x="842" 
d="M421 -17q-156 0 -263.5 102.5t-107.5 269.5q0 168 107.5 270t263.5 102t263.5 -102t107.5 -270q0 -167 -107.5 -269.5t-263.5 -102.5zM421 23q137 0 232 91.5t95 240.5q0 150 -95 241t-232 91t-232 -91t-95 -241q0 -149 95 -240.5t232 -91.5z" />
    <glyph glyph-name="uni25CF" unicode="&#x25cf;" horiz-adv-x="842" 
d="M421 -17q-156 0 -263.5 102.5t-107.5 269.5t107.5 269.5t263.5 102.5t263.5 -102.5t107.5 -269.5t-107.5 -269.5t-263.5 -102.5z" />
    <glyph glyph-name="uni2776" unicode="&#x2776;" horiz-adv-x="842" 
d="M421 -17q-156 0 -263.5 102.5t-107.5 269.5t107.5 269.5t263.5 102.5t263.5 -102.5t107.5 -269.5t-107.5 -269.5t-263.5 -102.5zM400 166h65v378h-52q-23 -67 -98 -67h-8v-58h12q53 0 81 36v-289z" />
    <glyph glyph-name="uni2777" unicode="&#x2777;" horiz-adv-x="842" 
d="M421 -17q-156 0 -263.5 102.5t-107.5 269.5t107.5 269.5t263.5 102.5t263.5 -102.5t107.5 -269.5t-107.5 -269.5t-263.5 -102.5zM273 177h296v49h-208q84 43 142 101t58 122q0 55 -37 85.5t-102 30.5q-67 0 -106.5 -30.5t-39.5 -83.5q0 -19 3 -31l67 -6q-5 20 -5 30
q0 33 21 51.5t58 18.5q72 0 72 -71q0 -56 -54.5 -104.5t-164.5 -114.5v-47z" />
    <glyph glyph-name="uni2778" unicode="&#x2778;" horiz-adv-x="842" 
d="M421 -17q-156 0 -263.5 102.5t-107.5 269.5t107.5 269.5t263.5 102.5t263.5 -102.5t107.5 -269.5t-107.5 -269.5t-263.5 -102.5zM421 158q70 0 110 29.5t40 81.5q0 38 -26 63t-70 29q37 5 61.5 29t24.5 57q0 50 -36.5 78t-101.5 28q-69 0 -109 -32t-40 -87l65 -6
q0 36 21.5 56.5t58.5 20.5q35 0 54.5 -17t19.5 -47q0 -28 -20.5 -45t-55.5 -17h-27v-42h30q39 0 61 -16t22 -46q0 -33 -21.5 -51t-60.5 -18q-38 0 -60.5 21.5t-23.5 56.5l-66 -4q1 -56 41 -89t109 -33z" />
    <glyph glyph-name="uni2779" unicode="&#x2779;" horiz-adv-x="842" 
d="M421 -17q-156 0 -263.5 102.5t-107.5 269.5t107.5 269.5t263.5 102.5t263.5 -102.5t107.5 -269.5t-107.5 -269.5t-263.5 -102.5zM436 176h63v91h63v47h-63v240h-69l-190 -241v-46h196v-91zM294 314l142 181v-181h-142z" />
    <glyph glyph-name="uni277A" unicode="&#x277a;" horiz-adv-x="842" 
d="M421 -17q-156 0 -263.5 102.5t-107.5 269.5t107.5 269.5t263.5 102.5t263.5 -102.5t107.5 -269.5t-107.5 -269.5t-263.5 -102.5zM421 162q68 0 108 37t40 101q0 58 -34.5 92.5t-92.5 34.5q-74 0 -103 -50l14 122h196v49h-243l-24 -220l57 -5q7 26 30.5 42.5t52.5 16.5
q39 0 61.5 -22.5t22.5 -61.5q0 -40 -24 -64t-64 -24q-33 0 -55 17t-28 47l-62 -11q8 -47 47.5 -74t100.5 -27z" />
    <glyph glyph-name="uni277B" unicode="&#x277b;" horiz-adv-x="842" 
d="M421 -17q-156 0 -263.5 102.5t-107.5 269.5t107.5 269.5t263.5 102.5t263.5 -102.5t107.5 -269.5t-107.5 -269.5t-263.5 -102.5zM430 158q65 0 105 38.5t40 96.5q0 60 -35 94.5t-92 34.5q-93 0 -118 -77q-2 74 23 117t73 43q66 0 80 -61l60 6q-18 103 -138 103
q-76 0 -118 -55t-42 -146q0 -96 43.5 -145t118.5 -49zM428 205q-79 0 -95 97q9 35 34.5 55t60.5 20q39 0 62.5 -24t23.5 -64q0 -37 -23 -60.5t-63 -23.5z" />
    <glyph glyph-name="uni277C" unicode="&#x277c;" horiz-adv-x="842" 
d="M421 -17q-156 0 -263.5 102.5t-107.5 269.5t107.5 269.5t263.5 102.5t263.5 -102.5t107.5 -269.5t-107.5 -269.5t-263.5 -102.5zM348 166h71q1 103 35.5 180.5t108.5 146.5v51h-283v-51h222q-150 -134 -154 -327z" />
    <glyph glyph-name="uni277D" unicode="&#x277d;" horiz-adv-x="842" 
d="M421 -17q-156 0 -263.5 102.5t-107.5 269.5t107.5 269.5t263.5 102.5t263.5 -102.5t107.5 -269.5t-107.5 -269.5t-263.5 -102.5zM420 158q73 0 115 28.5t42 78.5q0 83 -98 108q43 12 62 32.5t19 54.5q0 43 -39.5 68t-104.5 25q-63 0 -102 -28t-39 -73q0 -72 83 -96
q-93 -23 -93 -94q0 -49 41 -76.5t114 -27.5zM441 383l-28 6q-39 8 -57.5 22t-18.5 41t22 42.5t59 15.5q38 0 60 -17t22 -45q0 -25 -13.5 -40t-45.5 -25zM421 204q-43 0 -66.5 17.5t-23.5 48.5q0 53 70 75l27 -6q42 -9 62.5 -25t20.5 -47q0 -29 -24 -46t-66 -17z" />
    <glyph glyph-name="uni277E" unicode="&#x277e;" horiz-adv-x="842" 
d="M421 -17q-156 0 -263.5 102.5t-107.5 269.5t107.5 269.5t263.5 102.5t263.5 -102.5t107.5 -269.5t-107.5 -269.5t-263.5 -102.5zM414 158q80 0 120 52t40 149q0 194 -159 194q-68 0 -107.5 -36t-39.5 -92q0 -55 36.5 -90t96.5 -35q76 0 112 53q-3 -147 -95 -147
q-67 0 -81 61l-60 -9q17 -100 137 -100zM415 345q-39 0 -62.5 22.5t-23.5 59.5q0 36 23.5 58.5t63.5 22.5q84 0 96 -100q-13 -30 -39 -46.5t-58 -16.5z" />
    <glyph glyph-name="uniE000" unicode="&#xe000;" horiz-adv-x="922" 
d="M192 710h625v-47h-575v-525h88l-113 -150l-112 150h87v572z" />
    <glyph glyph-name="uniF8FF" unicode="&#xf8ff;" horiz-adv-x="1018" 
d="M998 663h-552v-47h552v-48h-552v-47h552v-48h-552v-47h552v-47h-552v-48h552v-47h-978v426h978v-47zM67 667l13 9h-16l-5 15l-4 -15h-16l13 -9l-5 -15l12 9l13 -9zM142 676h-16l13 -9l-5 -15l12 10l13 -10l-5 15l12 9h-15l-5 15zM229 676h-16l13 -9l-5 -15l12 10l13 -10
l-5 15l12 9h-15l-5 15zM315 676h-15l13 -9l-5 -15l12 10l13 -10l-5 15l12 9h-15l-5 15zM415 667l12 9h-15l-5 15l-5 -15h-15l12 -9l-4 -15l12 10l13 -10zM98 632h-15l12 -9l-4 -14l12 9l12 -9l-4 14l12 9h-15l-5 15zM371 623l13 9h-16l-4 15l-5 -15h-15l12 -9l-5 -14l13 9
l12 -9zM273 364v93h94v80h-94v94h-80v-94h-93v-80h93v-93h80zM67 580l13 9h-16l-5 14l-4 -14h-16l13 -9l-5 -15l12 9l13 -9zM142 589h-16l13 -9l-5 -15l12 9l13 -9l-5 15l12 9h-15l-5 14zM315 589h-15l13 -9l-5 -15l12 9l13 -9l-5 15l12 9h-15l-5 14zM415 580l12 9h-15
l-5 14l-5 -14h-15l12 -9l-4 -15l12 9l13 -9zM67 492l13 10h-16l-5 14l-4 -14h-16l13 -10l-5 -14l12 9l13 -9zM415 492l12 10h-15l-5 14l-5 -14h-15l12 -10l-4 -14l12 9l13 -9zM67 405l13 9h-16l-5 15l-4 -15h-16l13 -9l-5 -14l12 9l13 -9zM154 405l12 9h-15l-5 15l-4 -15
h-16l13 -9l-5 -14l12 9l13 -9zM328 405l12 9h-15l-5 15l-5 -15h-15l13 -9l-5 -14l12 9l13 -9zM415 405l12 9h-15l-5 15l-5 -15h-15l12 -9l-4 -14l12 9l13 -9zM115 347l-4 15l12 9h-15l-5 14l-5 -14h-15l12 -9l-4 -15l12 9zM376 347l-5 15l13 9h-16l-4 14l-5 -14h-15l12 -9
l-5 -15l13 9zM72 303l-5 15l13 9h-16l-5 15l-4 -15h-16l13 -9l-5 -15l12 9zM159 303l-5 15l12 9h-15l-5 15l-4 -15h-16l13 -9l-5 -15l12 9zM246 303l-5 15l12 9h-15l-5 15l-4 -15h-16l13 -9l-5 -15l12 9zM333 303l-5 15l12 9h-15l-5 15l-5 -15h-15l13 -9l-5 -15l12 9z
M420 303l-5 15l12 9h-15l-5 15l-5 -15h-15l12 -9l-4 -15l12 9zM20 189v48h977v-48h-977zM20 95v47h978v-47h-978zM20 0v47h978v-47h-978z" />
    <glyph glyph-name="uni00A40301" horiz-adv-x="387" 
d="M227 753l59 103h73l-69 -103h-63zM298 180q0 -107 -55 -152t-141 -45q-57 0 -82 8v72q32 -6 82 -6q54 0 86 28t32 102v523h78v-530z" />
    <glyph glyph-name="i.loclTRK" horiz-adv-x="259" 
d="M90 590v110h79v-110h-79zM95 0v500h69v-500h-69z" />
    <glyph glyph-name="uni006A0301" horiz-adv-x="255" 
d="M95 580l63 143h78l-76 -143h-65zM38 -202q-35 0 -58 6v60q26 -2 48 -2q32 0 47.5 18.5t15.5 67.5v552h70v-559q0 -65 -29.5 -104t-93.5 -39z" />
    <glyph glyph-name="zero.zero" horiz-adv-x="634" 
d="M317 710q127 0 195 -96.5t68 -266.5q0 -169 -68 -265.5t-195 -96.5q-128 0 -196 96.5t-68 266.5q0 169 68.5 265.5t195.5 96.5zM317 648q-93 0 -141.5 -79.5t-48.5 -220.5q0 -89 20 -157l312 376q-48 81 -142 81zM317 47q93 0 141.5 79.5t48.5 220.5q0 95 -22 161
l-313 -376q49 -85 145 -85z" />
    <glyph glyph-name="zero.tf" 
d="M310 -15q-246 0 -247 362q1 363 247 363t247 -363q-1 -362 -247 -362zM310 47q173 0 174 300q-1 161 -45.5 231t-128.5 70t-128.5 -70.5t-45.5 -230.5q1 -159 45.5 -229.5t128.5 -70.5z" />
    <glyph glyph-name="one.tf" 
d="M368 66h172v-66h-443v66h197v505q-45 -61 -157 -61h-31v66h25q71 0 115.5 32.5t59.5 86.5h62v-629z" />
    <glyph glyph-name="two.tf" 
d="M79 0v61q135 102 252 216q61 59 87 111t26 114q0 68 -37 106t-104 38t-104.5 -37t-37.5 -99q0 -22 8 -64l-74 7q-7 28 -7 58q0 91 58 145t161 54q101 0 157.5 -54.5t56.5 -152.5q0 -134 -143 -270q-105 -101 -201 -167h355v-66h-453z" />
    <glyph glyph-name="three.tf" 
d="M310 -15q-106 0 -170 58.5t-67 153.5l73 9q3 -73 46.5 -116t119.5 -43q77 0 118.5 38.5t41.5 109.5q0 61 -41.5 98.5t-116.5 37.5h-47v61h42q67 0 103 36t36 93q0 61 -35.5 94t-103.5 33q-73 0 -114 -45t-41 -124l-69 14q0 100 61.5 158.5t166.5 58.5q99 0 154 -50.5
t55 -138.5q0 -55 -34.5 -97t-89.5 -54q69 -11 108.5 -57.5t39.5 -117.5q0 -96 -64 -153t-172 -57z" />
    <glyph glyph-name="four.tf" 
d="M376 0v182h-326v51l318 462h78v-455h119v-58h-119v-182h-70zM123 240h253v284q0 48 2 93h-1q-17 -37 -53 -92l-152 -218q-32 -48 -49 -67z" />
    <glyph glyph-name="five.tf" 
d="M306 -15q-90 0 -151 49.5t-74 134.5l76 9q12 -60 50.5 -95t101.5 -35q74 0 116.5 47t42.5 131q0 83 -39.5 133.5t-115.5 50.5q-60 0 -98 -33.5t-52 -90.5l-71 8l40 401h376v-64h-320l-27 -259q52 100 171 100q97 0 153 -65.5t56 -176.5q0 -110 -64 -177.5t-171 -67.5z
" />
    <glyph glyph-name="six.tf" 
d="M329 464q97 0 155 -65t58 -173q0 -107 -61.5 -174t-162.5 -67q-121 0 -184 87.5t-63 261.5q0 179 65 277.5t188 98.5q86 0 139.5 -44.5t69.5 -129.5l-74 -15q-25 127 -136 127q-89 0 -134.5 -78.5t-45.5 -225.5q23 58 72.5 89t113.5 31zM319 47q69 0 109.5 49t40.5 129
q0 81 -41.5 129t-111.5 48q-63 0 -108 -41t-61 -117q11 -91 55.5 -144t116.5 -53z" />
    <glyph glyph-name="seven.tf" 
d="M210 0v9q-1 321 244 618h-368v68h452v-59q-122 -133 -184.5 -293.5t-63.5 -327.5v-15h-80z" />
    <glyph glyph-name="eight.tf" 
d="M394 373q78 -28 114 -72t36 -119q0 -90 -62.5 -143.5t-168.5 -53.5q-109 0 -173 52t-64 141q0 144 143 187q-61 25 -90 65.5t-29 103.5q0 79 58 127.5t152 48.5q95 0 152 -47.5t57 -127.5q0 -127 -125 -162zM174 534q0 -50 28 -80.5t88 -49.5l36 -11q67 24 93 55.5
t26 83.5q0 57 -36.5 89.5t-100.5 32.5q-62 0 -98 -32t-36 -88zM313 44q74 0 116 36.5t42 101.5q0 55 -30.5 88.5t-94.5 53.5l-61 18q-71 -23 -103 -59.5t-32 -93.5q0 -66 44 -105.5t119 -39.5z" />
    <glyph glyph-name="nine.tf" 
d="M294 710q249 0 249 -351q0 -110 -24 -192t-80 -132t-140 -50q-92 0 -147.5 46.5t-72.5 135.5l74 15q25 -135 147 -135q169 0 169 311v13q-24 -55 -71.5 -83.5t-108.5 -28.5q-97 0 -158 59.5t-61 164.5q0 99 61 163t163 64zM296 321q61 0 108.5 41.5t60.5 107.5
q-11 79 -52 128.5t-120 49.5q-68 0 -109 -45.5t-41 -118.5q0 -75 42.5 -119t110.5 -44z" />
    <glyph glyph-name="zero.tf.zero" 
d="M310 710q246 0 247 -363q-1 -362 -247 -362t-247 362q1 363 247 363zM310 648q-84 0 -128.5 -70.5t-45.5 -230.5q0 -97 19 -165l289 387q-42 79 -134 79zM310 47q173 0 174 300q0 96 -18 166l-290 -387q42 -79 134 -79z" />
    <glyph glyph-name="dollar.tf" 
d="M553 177q0 -89 -59 -139t-159 -53v-92h-39v93q-99 7 -158.5 64.5t-70.5 155.5l73 14q24 -156 156 -171v275l-37 10q-83 21 -126.5 70t-43.5 121q0 83 55.5 131.5t151.5 53.5v90h39v-91q91 -5 146 -55.5t62 -145.5l-73 -20q-10 147 -135 161v-263l38 -10q92 -25 136 -69.5
t44 -129.5zM285 399l11 -3v254q-63 -2 -100 -32.5t-37 -86.5q0 -101 126 -132zM335 47q70 2 108.5 34t38.5 93q0 58 -32 88.5t-102 48.5l-13 3v-267z" />
    <glyph glyph-name="cent.tf" 
d="M337 51q101 9 118 128l67 -10q-12 -77 -58.5 -126t-126.5 -54v-78h-42v78q-97 9 -149 81t-52 183q0 109 51 179t150 79v83h42v-82q78 -5 128 -51.5t57 -126.5l-71 -8q-14 113 -114 124v-399zM166 254q0 -86 33 -139.5t96 -62.5v398q-63 -8 -96 -60.5t-33 -135.5z" />
    <glyph glyph-name="sterling.tf" 
d="M507 164l66 -12q-10 -88 -56.5 -127.5t-109.5 -39.5q-35 0 -94.5 14t-105.5 14q-70 0 -152 -20l-16 52q144 46 144 191q0 51 -10 101h-110v53h98q-18 78 -18 124q0 94 54.5 145t143.5 51q79 0 128 -41.5t63 -118.5l-72 -17q-18 116 -120 116q-119 0 -119 -132
q0 -45 18 -127h174v-53h-163q8 -43 8 -87q0 -133 -103 -184q36 9 82 9q34 0 86.5 -11t83.5 -11q40 0 67.5 26.5t32.5 84.5z" />
    <glyph glyph-name="florin.tf" 
d="M437 648q-44 0 -64.5 -25.5t-28.5 -90.5l-13 -104h116v-54h-123l-68 -524h-71l67 524h-99v54h106l12 94q14 107 49.5 147.5t116.5 40.5q29 0 47 -5v-62q-19 5 -47 5z" />
    <glyph glyph-name="yen.tf" 
d="M567 695l-219 -369h188v-50h-189v-81h189v-50h-189v-145h-74v145h-189v50h189v81h-189v50h188l-219 369h83l145 -253q19 -33 28 -61h2q9 28 28 61l145 253h83z" />
    <glyph glyph-name="Euro.tf" 
d="M526 167l55 -36q-30 -70 -88 -108t-135 -38q-112 0 -180 74t-86 204h-89v51h84q-1 13 -1 41q0 29 1 43h-84v50h89q20 127 90.5 194.5t184.5 67.5q149 0 213 -134l-59 -43q-48 112 -159 112q-78 0 -127.5 -49.5t-65.5 -147.5h273v-50h-279q-1 -13 -1 -42t1 -42h279v-51
h-274q16 -104 66.5 -158.5t125.5 -54.5q51 0 95 29.5t71 87.5z" />
    <glyph glyph-name="percent.tf" 
d="M82 -16l389 746h59l-389 -746h-59zM161 393q-60 0 -96 44.5t-36 120.5q0 75 36 119t95 44q58 0 94.5 -45t36.5 -120q0 -74 -36 -118.5t-94 -44.5zM161 442q33 0 53 30.5t20 83.5q0 54 -20 85t-54 31q-35 0 -55.5 -30.5t-20.5 -83.5q0 -55 20.5 -85.5t56.5 -30.5zM462 -10
q-60 0 -96 44.5t-36 120.5q0 75 36 119t95 44q58 0 94.5 -45t36.5 -120q0 -74 -36 -118.5t-94 -44.5zM462 39q33 0 53 30.5t20 83.5q0 54 -20 85t-54 31q-35 0 -55.5 -30.5t-20.5 -83.5q0 -55 20.5 -85.5t56.5 -30.5z" />
    <glyph glyph-name="perthousand.tf" 
d="M157 430q-53 0 -85 38.5t-32 101.5q0 64 31.5 102t85.5 38t86 -38t32 -102q0 -63 -32.5 -101.5t-85.5 -38.5zM533 672v-65l-482 -430v64zM157 664q-30 0 -47 -25t-17 -69t17 -69t47 -25t47 25t17 69t-17 69t-47 25zM465 268q54 0 86 -38t32 -102q0 -63 -32 -101.5
t-86 -38.5q-57 0 -87 47q-28 -47 -87 -47q-53 0 -85 38.5t-32 101.5q0 64 32 102t85 38q59 0 87 -47q30 47 87 47zM291 34q31 0 48 25t17 69t-17 69t-48 25q-30 0 -47 -25t-17 -69t17 -69t47 -25zM465 34q31 0 48 25t17 69t-17 69t-48 25q-30 0 -47 -25t-17 -69t17 -69
t47 -25z" />
    <glyph glyph-name="uni0243.case" horiz-adv-x="654" 
d="M593 196q0 -47 -15 -85.5t-59.5 -70t-114.5 -38.5v-91h-45v89h-78v-89h-46v89h-130v710h130v81h46v-81h61h17v81h45v-85q94 -14 132.5 -63.5t38.5 -113.5q0 -59 -30 -102.5t-96 -58.5q71 -10 107.5 -55t36.5 -117zM342 646h-163v-251h166q152 0 152 128q0 123 -155 123z
M356 64q86 0 123 38.5t37 99.5q0 60 -36 96t-115 36h-186v-270h177z" />
    <glyph glyph-name="uni0243.tf" 
d="M556 190q0 -78 -44 -126t-127 -60v-111h-45v107h-11h-68v-107h-45v107h-119v695h119v90h45v-90h49q20 0 30 -1v91h45v-97q75 -14 113.5 -58t38.5 -113q0 -60 -32.5 -103t-95.5 -58q71 -10 109 -54t38 -112zM309 631h-140v-246h143q76 0 112 33.5t36 92.5q0 62 -35.5 91
t-115.5 29zM323 63q80 0 118 33t38 100q0 60 -36.5 93t-109.5 33h-164v-259h154z" />
    <glyph glyph-name="uni0243.tf.tf.case" 
d="M556 200q0 -82 -43.5 -132.5t-127.5 -63.5v-91h-45v87h-11h-68v-87h-45v87h-119v710h119v75h45v-75h49q20 0 30 -1v76h45v-82q75 -15 113.5 -60t38.5 -116q0 -60 -32.5 -103t-95.5 -58q71 -10 109 -54t38 -112zM309 646h-140v-251h143q76 0 112 33.5t36 92.5
q0 64 -36 94.5t-115 30.5zM323 63q80 0 118 35t38 108q0 60 -36.5 93t-109.5 33h-164v-269h154z" />
    <glyph glyph-name="g.ss01" horiz-adv-x="583" 
d="M276 -207q-188 0 -208 153h72q19 -94 138 -94q141 0 141 158v98q-19 -56 -61 -87t-101 -31q-92 0 -150.5 73.5t-58.5 191.5q0 114 60 185.5t153 71.5q57 0 98.5 -28t61.5 -80l16 96h52v-490q0 -217 -213 -217zM271 50q66 0 107.5 54t41.5 139v25q0 82 -40.5 132
t-107.5 50q-69 0 -109.5 -52.5t-40.5 -142.5q0 -93 41 -149t108 -56z" />
    <glyph glyph-name="gbreve.ss01" horiz-adv-x="583" 
d="M205 723q6 -97 87 -97q39 0 61.5 24.5t24.5 72.5h60q-4 -75 -43.5 -111.5t-102.5 -36.5t-103 36.5t-43 111.5h59zM276 -207q-188 0 -208 153h72q19 -94 138 -94q141 0 141 158v98q-19 -56 -61 -87t-101 -31q-92 0 -150.5 73.5t-58.5 191.5q0 114 60 185.5t153 71.5
q57 0 98.5 -28t61.5 -80l16 96h52v-490q0 -217 -213 -217zM271 50q66 0 107.5 54t41.5 139v25q0 82 -40.5 132t-107.5 50q-69 0 -109.5 -52.5t-40.5 -142.5q0 -93 41 -149t108 -56z" />
    <glyph glyph-name="gcircumflex.ss01" horiz-adv-x="583" 
d="M440 580h-66l-82 107l-81 -107h-66l111 143h72zM276 -207q-188 0 -208 153h72q19 -94 138 -94q141 0 141 158v98q-19 -56 -61 -87t-101 -31q-92 0 -150.5 73.5t-58.5 191.5q0 114 60 185.5t153 71.5q57 0 98.5 -28t61.5 -80l16 96h52v-490q0 -217 -213 -217zM271 50
q66 0 107.5 54t41.5 139v25q0 82 -40.5 132t-107.5 50q-69 0 -109.5 -52.5t-40.5 -142.5q0 -93 41 -149t108 -56z" />
    <glyph glyph-name="gcommaaccent.ss01" horiz-adv-x="583" 
d="M312 759l18 -32q-25 -11 -32.5 -25.5t-7.5 -43.5h42v-78h-80v72q0 81 60 107zM276 -207q-188 0 -208 153h72q19 -94 138 -94q141 0 141 158v98q-19 -56 -61 -87t-101 -31q-92 0 -150.5 73.5t-58.5 191.5q0 114 60 185.5t153 71.5q57 0 98.5 -28t61.5 -80l16 96h52v-490
q0 -217 -213 -217zM271 50q66 0 107.5 54t41.5 139v25q0 82 -40.5 132t-107.5 50q-69 0 -109.5 -52.5t-40.5 -142.5q0 -93 41 -149t108 -56z" />
    <glyph glyph-name="gdotaccent.ss01" horiz-adv-x="583" 
d="M252 590v110h79v-110h-79zM276 -207q-188 0 -208 153h72q19 -94 138 -94q141 0 141 158v98q-19 -56 -61 -87t-101 -31q-92 0 -150.5 73.5t-58.5 191.5q0 114 60 185.5t153 71.5q57 0 98.5 -28t61.5 -80l16 96h52v-490q0 -217 -213 -217zM271 50q66 0 107.5 54t41.5 139
v25q0 82 -40.5 132t-107.5 50q-69 0 -109.5 -52.5t-40.5 -142.5q0 -93 41 -149t108 -56z" />
    <glyph glyph-name="g_g.liga.ss01" horiz-adv-x="1166" 
d="M276 -207q-188 0 -208 153h72q19 -94 138 -94q141 0 141 158v98q-19 -56 -61 -87t-101 -31q-92 0 -150.5 73.5t-58.5 191.5q0 114 60 185.5t153 71.5q57 0 98.5 -28t61.5 -80l16 96h52v-490q0 -217 -213 -217zM859 -207q-92 0 -145 38.5t-63 114.5h72q19 -94 138 -94
q141 0 141 158v98q-19 -56 -61 -87t-101 -31q-92 0 -150.5 73.5t-58.5 191.5q0 114 60 185.5t153 71.5q57 0 98.5 -28t61.5 -80l16 96h52v-490q0 -217 -213 -217zM271 50q66 0 107.5 54t41.5 139v25q0 82 -40.5 132t-107.5 50q-69 0 -109.5 -52.5t-40.5 -142.5
q0 -93 41 -149t108 -56zM854 50q66 0 107.5 54t41.5 139v25q0 82 -40.5 132t-107.5 50q-69 0 -109.5 -52.5t-40.5 -142.5q0 -93 41 -149t108 -56z" />
    <glyph glyph-name="g.sups.ss01" horiz-adv-x="470" 
d="M221 159q-147 0 -162 110h61q16 -67 102 -67q107 0 107 112v72q-13 -38 -46 -59t-79 -21q-71 0 -115 52.5t-44 137.5t44.5 136.5t116.5 51.5q97 0 126 -81l7 72h53v-355q0 -161 -171 -161zM220 349q49 0 79.5 37.5t30.5 97.5v21q0 60 -29.5 96t-78.5 36q-52 0 -82 -38
t-30 -104q0 -67 30 -106.5t80 -39.5z" />
    <glyph glyph-name="a.sups" horiz-adv-x="434" 
d="M172 301q-57 0 -91 29t-34 76q0 53 39.5 77.5t114.5 33.5l100 13l1 8q0 54 -21 77.5t-67 23.5q-42 0 -66.5 -20.5t-25.5 -59.5h-64q3 59 44.5 92t111.5 33q78 0 114 -36t36 -114v-101q0 -75 10 -123h-62q-6 41 -7 76q-14 -40 -49 -62.5t-84 -22.5zM191 345q50 0 81 32.5
t31 83.5v33l-97 -13q-95 -13 -95 -71q0 -29 21.5 -47t58.5 -18z" />
    <glyph glyph-name="b.sups" horiz-adv-x="473" 
d="M270 301q-44 0 -78.5 21.5t-48.5 57.5l-6 -70h-53v529h62v-234q14 36 48 57.5t80 21.5q71 0 112.5 -52.5t41.5 -139.5t-43 -139t-115 -52zM253 348q51 0 80.5 38.5t29.5 105.5t-28.5 105.5t-80.5 38.5q-49 0 -79 -37t-30 -97v-21q0 -60 29.5 -96.5t78.5 -36.5z" />
    <glyph glyph-name="c.sups" horiz-adv-x="425" 
d="M222 301q-82 0 -129 51t-47 140q0 90 47 141t129 51q67 0 109 -34.5t49 -96.5l-61 -10q-11 92 -99 92q-52 0 -81.5 -37.5t-29.5 -102.5q0 -68 30 -106.5t83 -38.5q41 0 67 24t32 68l59 -11q-10 -61 -52 -95.5t-106 -34.5z" />
    <glyph glyph-name="d.sups" horiz-adv-x="473" 
d="M201 301q-71 0 -113.5 52.5t-42.5 138.5t44 139t117 53q92 0 122 -76v231h62v-529h-60v75q-14 -39 -49 -61.5t-80 -22.5zM221 348q49 0 78.5 38t29.5 95v21q0 60 -29 97.5t-79 37.5q-52 0 -81.5 -38.5t-29.5 -105.5t29.5 -106t81.5 -39z" />
    <glyph glyph-name="e.sups" horiz-adv-x="431" 
d="M382 501v-21h-274q1 -61 32 -95t84 -34q82 2 104 78l51 -20q-16 -51 -57.5 -79.5t-98.5 -28.5q-85 0 -131 50.5t-46 142.5q0 88 46 139t125 51t122 -48t43 -135zM108 522h210q0 56 -27 87.5t-75 31.5q-47 0 -77 -32.5t-31 -86.5z" />
    <glyph glyph-name="f.sups" horiz-adv-x="288" 
d="M259 675v-46h-98v-319h-62v319h-68v46h68v55q0 54 30 84t85 30q24 0 45 -6v-48q-15 4 -35 4q-63 0 -63 -68v-51h98z" />
    <glyph glyph-name="g.sups" horiz-adv-x="428" 
d="M377 685q-45 0 -63 -32q44 -33 44 -91q0 -55 -40 -88.5t-108 -33.5q-42 0 -76 14q-27 -12 -27 -36q0 -18 15.5 -29t44.5 -11h107q125 0 125 -99q0 -57 -48 -88.5t-142 -31.5q-87 0 -130.5 26t-43.5 71q0 56 67 74q-50 18 -50 64q0 53 58 74q-48 34 -48 94q0 54 40.5 88
t107.5 34q44 0 79 -16q18 66 95 66q11 0 16 -1v-49q-8 1 -23 1zM210 480q38 0 61.5 22.5t23.5 58.5q0 37 -23.5 60t-61.5 23t-61 -22.5t-23 -59.5q0 -36 23 -59t61 -23zM265 322h-108q-12 0 -28 2q-36 -19 -36 -55q0 -67 120 -67q126 0 126 66q0 54 -74 54z" />
    <glyph glyph-name="h.sups" horiz-adv-x="473" 
d="M84 310v529h62v-235q33 81 131 81q62 0 94 -37.5t32 -110.5v-227h-62v221q0 104 -88 104q-49 0 -78 -35.5t-29 -94.5v-195h-62z" />
    <glyph glyph-name="i.sups" horiz-adv-x="222" 
d="M78 733v93h67v-93h-67zM80 310v365h62v-365h-62z" />
    <glyph glyph-name="j.sups" horiz-adv-x="221" 
d="M77 733v93h66v-93h-66zM35 163q-30 0 -45 4v48q21 -3 33 -3q55 0 55 66v397h63v-403q0 -109 -106 -109z" />
    <glyph glyph-name="k.sups" horiz-adv-x="430" 
d="M337 310l-119 185l-72 -72v-113h-62v529h62v-351l178 187h76l-138 -141l147 -224h-72z" />
    <glyph glyph-name="l.sups" horiz-adv-x="230" 
d="M146 839v-529h-62v529h62z" />
    <glyph glyph-name="m.sups" horiz-adv-x="671" 
d="M78 675h60v-66q28 76 117 76q84 0 109 -72q34 72 120 72q56 0 86.5 -36t30.5 -102v-237h-62v226q0 98 -79 98q-41 0 -65.5 -27t-24.5 -73v-224h-61v229q0 95 -77 95q-42 0 -66.5 -30.5t-24.5 -83.5v-210h-63v365z" />
    <glyph glyph-name="n.sups" horiz-adv-x="467" 
d="M78 310v365h60v-74q34 84 132 84q128 0 128 -151v-224h-63v218q0 106 -89 106q-49 0 -76.5 -34.5t-27.5 -94.5v-195h-64z" />
    <glyph glyph-name="o.sups" horiz-adv-x="444" 
d="M222 301q-80 0 -128 51t-48 141q0 89 48 140t128 51t128 -51t48 -140q0 -90 -48 -141t-128 -51zM222 348q53 0 83.5 37.5t30.5 107.5q0 69 -30.5 106.5t-83.5 37.5t-83.5 -37.5t-30.5 -106.5q0 -70 30.5 -107.5t83.5 -37.5z" />
    <glyph glyph-name="p.sups" horiz-adv-x="468" 
d="M78 168v507h60v-74q16 39 51 61t81 22q70 0 111.5 -52.5t41.5 -138.5q0 -87 -43 -139.5t-114 -52.5q-44 0 -77.5 20t-47.5 54v-207h-63zM249 348q50 0 79.5 39t29.5 106t-28 105.5t-79 38.5q-52 0 -82 -38.5t-30 -97.5v-16q0 -59 29.5 -98t80.5 -39z" />
    <glyph glyph-name="q.sups" horiz-adv-x="468" 
d="M328 168v213q-14 -37 -48.5 -58.5t-80.5 -21.5q-70 0 -112 52.5t-42 138.5t43.5 139t115.5 53q96 0 126 -78l8 69h52v-507h-62zM219 348q50 0 80 37.5t30 95.5v23q0 59 -29.5 96t-80.5 37t-80 -38.5t-29 -105.5t29 -106t80 -39z" />
    <glyph glyph-name="r.sups" horiz-adv-x="301" 
d="M137 586q13 45 45 71.5t78 26.5q7 0 12 -1v-60q-4 0 -8.5 0.5t-6.5 0.5q-45 0 -75 -25q-41 -40 -41 -116v-173h-63v365h59v-89z" />
    <glyph glyph-name="s.sups" horiz-adv-x="390" 
d="M202 301q-132 0 -163 109l46 24q24 -84 118 -84q84 0 84 57q0 27 -16 41t-55 19l-50 8q-111 16 -111 105q0 48 38 76t103 28q122 0 152 -93l-45 -26q-24 72 -109 72q-38 0 -59.5 -14.5t-21.5 -40.5q0 -24 16.5 -37t54.5 -19l55 -8q55 -8 80.5 -34.5t25.5 -73.5
q0 -51 -37.5 -80t-105.5 -29z" />
    <glyph glyph-name="t.sups" horiz-adv-x="291" 
d="M25 630v45h69v95l61 24v-119h96v-45h-96v-211q0 -64 61 -64q11 0 35 4v-49q-24 -7 -51 -7q-106 0 -106 104v223h-69z" />
    <glyph glyph-name="u.sups" horiz-adv-x="466" 
d="M329 381q-15 -36 -49 -58t-79 -22q-131 0 -131 142v232h62v-223q0 -52 24 -76.5t63 -24.5q50 0 79 34t29 84v206h61v-365h-59v71z" />
    <glyph glyph-name="v.sups" horiz-adv-x="388" 
d="M160 310l-141 365h66l92 -258q12 -35 15 -50h3q4 23 15 51l93 257h65l-140 -365h-68z" />
    <glyph glyph-name="w.sups" horiz-adv-x="577" 
d="M138 310l-108 365h60l73 -262q6 -18 9 -42h2q3 24 9 42l77 262h55l78 -262q3 -11 10 -42h2q3 24 9 42l72 262h61l-109 -365h-61l-79 264q-8 30 -9 35h-1q-2 -14 -10 -35l-78 -264h-62z" />
    <glyph glyph-name="x.sups" horiz-adv-x="406" 
d="M27 310l139 191l-130 174h72l69 -96q24 -39 26 -43h2q10 19 27 43l68 96h68l-127 -176l138 -189h-70l-80 111q-22 30 -27 41h-1q-12 -23 -26 -42l-81 -110h-67z" />
    <glyph glyph-name="y.sups" horiz-adv-x="389" 
d="M77 163q-20 0 -37 4v48q18 -3 30 -3q36 0 56 19t35 57l8 22l-150 365h69l95 -254q8 -20 17 -55h1q3 9 18 56l87 253h63l-142 -386q-26 -68 -60.5 -97t-89.5 -29z" />
    <glyph glyph-name="z.sups" horiz-adv-x="370" 
d="M38 351l213 277h-203v47h278v-40l-213 -277h222v-48h-297v41z" />
    <glyph glyph-name="zero.case" horiz-adv-x="634" 
d="M317 -15q-128 0 -196 99t-68 274q0 172 68.5 270.5t195.5 98.5t195 -98.5t68 -271.5q0 -174 -68 -273t-195 -99zM317 47q93 0 141.5 82t48.5 228q0 145 -48.5 226.5t-141.5 81.5t-141.5 -81.5t-48.5 -225.5q0 -147 48.5 -229t141.5 -82z" />
    <glyph glyph-name="one.case" horiz-adv-x="389" 
d="M190 0v581q-16 -26 -51.5 -40.5t-70.5 -14.5h-32v66h20q53 0 93 31.5t52 86.5h62v-710h-73z" />
    <glyph glyph-name="two.case" horiz-adv-x="542" 
d="M38 0v61q128 93 250 212q63 65 89.5 119.5t26.5 119.5q0 71 -37 111t-103 40t-104.5 -38.5t-38.5 -104.5q0 -24 8 -64l-74 7q-7 27 -7 58q0 95 58.5 150.5t161.5 55.5q100 0 156.5 -56t56.5 -158q0 -73 -35 -140.5t-111 -143.5q-92 -90 -198 -163h355v-66h-454z" />
    <glyph glyph-name="three.case" horiz-adv-x="567" 
d="M281 -15q-107 0 -172.5 60.5t-68.5 162.5l72 8q3 -79 48.5 -124t122.5 -45t117 38.5t40 112.5q0 68 -42 105.5t-121 37.5h-44v61h38q71 0 108 35.5t37 97.5t-37.5 96t-104.5 34q-73 0 -113 -44t-40 -125l-70 14q0 101 60.5 159t166.5 58q100 0 156 -49t56 -135
q0 -63 -35 -108t-95 -58q74 -11 114 -56t40 -121q0 -101 -62 -158t-171 -57z" />
    <glyph glyph-name="four.case" horiz-adv-x="553" 
d="M529 192h-115v-192h-70v192h-332v51l321 467h81v-460h115v-58zM344 544q0 60 2 92h-2q-10 -28 -43 -78l-158 -232q-38 -56 -56 -76h257v294z" />
    <glyph glyph-name="five.case" horiz-adv-x="564" 
d="M279 -15q-91 0 -152 52t-75 141l76 8q12 -63 52 -100.5t103 -37.5q75 0 117.5 49.5t42.5 135.5t-40.5 136.5t-115.5 50.5q-59 0 -99 -33.5t-54 -91.5l-71 7l41 408h379v-64h-324l-27 -266q52 102 173 102q99 0 155.5 -66t56.5 -179q0 -114 -65 -183t-173 -69z" />
    <glyph glyph-name="six.case" horiz-adv-x="567" 
d="M309 474q98 0 157 -66t59 -176t-63 -178.5t-164 -68.5q-250 0 -250 359q0 184 67 283.5t189 99.5q87 0 141 -46.5t70 -134.5l-74 -15q-25 134 -138 134q-90 0 -137 -80t-46 -233q23 57 72.5 89.5t116.5 32.5zM299 47q69 0 110.5 50t41.5 134q0 83 -42 132t-114 49
q-64 0 -109 -42t-62 -117q11 -97 57 -151.5t118 -54.5z" />
    <glyph glyph-name="seven.case" horiz-adv-x="498" 
d="M144 0v11q0 164 65.5 325.5t185.5 305.5h-364v68h447v-59q-121 -133 -187 -298.5t-66 -334.5v-18h-81z" />
    <glyph glyph-name="eight.case" horiz-adv-x="576" 
d="M375 382q83 -28 120 -76t37 -124q0 -90 -65.5 -143.5t-176.5 -53.5q-113 0 -180 52t-67 141q0 153 153 196q-67 27 -97.5 69.5t-30.5 107.5q0 79 60.5 127.5t159.5 48.5q100 0 159.5 -47.5t59.5 -127.5q0 -132 -132 -170zM142 551q0 -52 30 -85t96 -52l36 -10
q72 25 100.5 57.5t28.5 87.5q0 57 -39 89.5t-108 32.5q-67 0 -105.5 -32t-38.5 -88zM290 44q80 0 124.5 36.5t44.5 101.5q0 58 -32 94.5t-103 57.5l-61 18q-76 -25 -110.5 -64t-34.5 -100q0 -66 46.5 -105t125.5 -39z" />
    <glyph glyph-name="nine.case" horiz-adv-x="573" 
d="M272 727q249 0 249 -358q0 -384 -252 -384q-90 0 -147 50t-70 142l74 15q19 -145 144 -145q97 0 137 82.5t40 237.5v11q-49 -109 -182 -109q-99 0 -161 60.5t-62 168.5q0 99 63 164t167 65zM272 331q63 0 111 41.5t60 107.5q-22 185 -172 185q-71 0 -113 -46t-42 -121
q0 -77 43.5 -122t112.5 -45z" />
    <glyph glyph-name="one.case.ss02" horiz-adv-x="504" 
d="M315 66h173v-66h-444v66h197v520q-45 -61 -157 -61h-31v66h25q71 0 115.5 32.5t59.5 86.5h62v-644z" />
    <glyph glyph-name="zero.case.zero" horiz-adv-x="634" 
d="M317 727q127 0 195 -98.5t68 -271.5q0 -174 -68 -273t-195 -99q-128 0 -196 99t-68 274q0 172 68.5 270.5t195.5 98.5zM317 665q-93 0 -141.5 -81.5t-48.5 -225.5q0 -92 20 -161l315 380q-50 88 -145 88zM317 47q93 0 141.5 82t48.5 228q0 91 -20 160l-316 -380
q50 -90 146 -90z" />
    <glyph glyph-name="zero.osf" horiz-adv-x="606" 
d="M304 -15q-119 0 -188 76.5t-69 207.5q0 129 69 205t187 76q117 0 186.5 -77.5t69.5 -208.5q0 -128 -69 -203.5t-186 -75.5zM304 46q84 0 133.5 58.5t49.5 158.5q0 103 -49.5 163.5t-134.5 60.5t-134.5 -59t-49.5 -160q0 -104 49.5 -163t135.5 -59z" />
    <glyph glyph-name="one.osf" horiz-adv-x="552" 
d="M328 64h175v-64h-429v64h184v356q-18 -27 -67.5 -45.5t-90.5 -18.5h-23v67h15q56 0 110 32.5t68 79.5h58v-471z" />
    <glyph glyph-name="two.osf" horiz-adv-x="567" 
d="M42 45q95 55 163 102q112 72 154 121.5t42 108.5q0 52 -32.5 81.5t-90.5 29.5q-63 0 -99.5 -33.5t-36.5 -91.5q0 -29 3 -43l-74 8q-3 22 -3 35q0 83 58 135t151 52t145 -44.5t52 -123.5q0 -92 -86 -172q-73 -67 -222 -147h341v-63h-465v45z" />
    <glyph glyph-name="three.osf" horiz-adv-x="568" 
d="M278 -165q-108 0 -171.5 56t-66.5 153l72 8q3 -75 46.5 -115t121.5 -40q75 0 118.5 38t43.5 102q0 65 -43 102.5t-116 37.5h-48v61h43q64 0 101 33.5t37 91.5q0 59 -36.5 92t-101.5 33q-73 0 -114 -44t-41 -122l-69 14q0 98 62 156t166 58q96 0 152 -48.5t56 -132.5
q0 -58 -33.5 -99.5t-88.5 -53.5q69 -10 108 -57.5t39 -121.5q0 -89 -65.5 -145.5t-171.5 -56.5z" />
    <glyph glyph-name="four.osf" horiz-adv-x="582" 
d="M356 -150v187h-332v51l320 447h81v-440h118v-58h-118v-187h-69zM97 95h259v253v111h-2q-22 -38 -62 -97l-129 -184q-43 -58 -66 -83z" />
    <glyph glyph-name="five.osf" horiz-adv-x="574" 
d="M284 -165q-89 0 -151.5 46t-80.5 125l76 10q14 -55 56.5 -87t101.5 -32q77 0 122 49t45 134q0 74 -44 119t-115 45q-55 0 -95.5 -29t-58.5 -82l-72 5l44 397h377v-64h-318l-33 -266q47 101 173 101q96 0 155.5 -62.5t59.5 -163.5q0 -110 -66.5 -177.5t-175.5 -67.5z" />
    <glyph glyph-name="six.osf" horiz-adv-x="571" 
d="M313 464q98 0 157 -65t59 -173q0 -107 -63 -174t-164 -67q-124 0 -187 88t-63 261q0 181 66.5 278.5t189.5 97.5q87 0 141 -44.5t70 -129.5l-74 -15q-25 127 -138 127q-90 0 -137 -78t-46 -228q23 57 72.5 89.5t116.5 32.5zM303 47q69 0 110.5 48.5t41.5 129.5
q0 82 -42 129.5t-114 47.5q-64 0 -109 -42t-62 -118q11 -92 57 -143.5t118 -51.5z" />
    <glyph glyph-name="seven.osf" horiz-adv-x="503" 
d="M152 -150v11q0 311 249 606h-370v68h453v-59q-123 -133 -187 -288.5t-64 -319.5v-18h-81z" />
    <glyph glyph-name="eight.osf" horiz-adv-x="576" 
d="M374 372q84 -28 121 -73t37 -117q0 -90 -65.5 -143.5t-176.5 -53.5q-113 0 -180 52t-67 141q0 144 152 187q-66 26 -96.5 66.5t-30.5 102.5q0 79 60.5 127.5t159.5 48.5q100 0 159.5 -47.5t59.5 -127.5q0 -126 -133 -163zM142 534q0 -49 29.5 -79.5t96.5 -50.5l36 -11
q72 25 100.5 55.5t28.5 83.5q0 57 -39 89.5t-108 32.5q-67 0 -105.5 -32t-38.5 -88zM290 44q80 0 124.5 36.5t44.5 101.5q0 54 -32 87.5t-103 54.5l-62 19q-75 -24 -109.5 -61t-34.5 -93q0 -67 46.5 -106t125.5 -39z" />
    <glyph glyph-name="nine.osf" horiz-adv-x="579" 
d="M277 550q250 0 250 -349q0 -175 -67 -270.5t-189 -95.5q-91 0 -147 42.5t-72 123.5l74 16q25 -120 146 -120q90 0 136.5 77t46.5 227v14q-25 -54 -75.5 -85t-116.5 -31q-102 0 -161.5 60.5t-59.5 163.5q0 100 65.5 163.5t169.5 63.5zM276 161q65 0 114.5 43t60.5 109
q-24 175 -175 175q-72 0 -116 -45t-44 -119t43.5 -118.5t116.5 -44.5z" />
    <glyph glyph-name="zero.osf.zero" horiz-adv-x="606" 
d="M303 550q117 0 186.5 -77.5t69.5 -208.5q0 -128 -69 -203.5t-186 -75.5q-119 0 -188 76.5t-69 207.5q0 129 69 205t187 76zM119 268q0 -98 43 -155l253 337q-46 37 -112 37q-85 0 -134.5 -59t-49.5 -160zM304 46q84 0 133.5 58.5t49.5 158.5q0 95 -43 155l-251 -337
q44 -35 111 -35z" />
    <glyph glyph-name="one.ss02" horiz-adv-x="503" 
d="M314 66h172v-66h-443v66h197v505q-45 -61 -157 -61h-31v66h25q71 0 115.5 32.5t59.5 86.5h62v-629z" />
    <glyph glyph-name="zero.tf.case" 
d="M310 -15q-246 0 -247 372q1 370 247 370t247 -370q-1 -372 -247 -372zM310 47q173 0 174 310q-1 164 -45.5 236t-128.5 72t-128.5 -72.5t-45.5 -235.5q1 -165 45.5 -237.5t128.5 -72.5z" />
    <glyph glyph-name="one.tf.case" 
d="M368 66h172v-66h-443v66h197v520q-45 -61 -157 -61h-31v66h25q71 0 115.5 32.5t59.5 86.5h62v-644z" />
    <glyph glyph-name="two.tf.case" 
d="M79 0v61q135 102 252 216q61 63 87 116.5t26 118.5q0 71 -36.5 111t-102.5 40q-68 0 -106 -39t-38 -104q0 -22 8 -64l-74 7q-7 28 -7 58q0 94 58.5 150t162.5 56q100 0 156 -56t56 -158q0 -73 -34.5 -140t-108.5 -140q-105 -101 -201 -167h355v-66h-453z" />
    <glyph glyph-name="three.tf.case" 
d="M310 -15q-106 0 -170 61.5t-67 160.5l73 9q3 -77 46.5 -123t119.5 -46t118 40t42 113q0 64 -41.5 102.5t-116.5 38.5h-47v61h42q67 0 103 37.5t36 96.5q0 61 -35.5 95t-103.5 34q-73 0 -114 -46.5t-41 -129.5l-69 14q0 103 61.5 163.5t166.5 60.5q99 0 154 -51t55 -140
q0 -56 -34.5 -99.5t-89.5 -56.5q69 -10 108.5 -58t39.5 -121q0 -99 -64 -157.5t-172 -58.5z" />
    <glyph glyph-name="four.tf.case" 
d="M376 0v192h-326v51l318 467h78v-460h119v-58h-119v-192h-70zM123 250h253v288q0 48 2 93h-1q-17 -37 -53 -92l-152 -222q-32 -48 -49 -67z" />
    <glyph glyph-name="five.tf.case" 
d="M308 -15q-90 0 -152 52.5t-75 141.5l76 9q12 -64 52 -102t103 -38q75 0 115.5 48t40.5 135q0 86 -39 137.5t-116 51.5q-60 0 -98 -33.5t-52 -90.5l-71 8l40 406h376v-64h-320l-27 -264q52 100 171 100q98 0 153.5 -66.5t55.5 -180.5q0 -113 -62 -181.5t-171 -68.5z" />
    <glyph glyph-name="six.tf.case" 
d="M329 474q97 0 155 -66t58 -176t-60.5 -178.5t-163.5 -68.5q-121 0 -184 90t-63 269q0 182 65.5 282.5t188.5 100.5q86 0 139 -46.5t69 -134.5l-74 -15q-25 134 -135 134q-90 0 -135.5 -80.5t-45.5 -230.5q23 58 72.5 89t113.5 31zM319 47q70 0 110 50t40 134
q0 83 -41.5 132t-111.5 49q-63 0 -108 -41.5t-61 -117.5q11 -95 55.5 -150.5t116.5 -55.5z" />
    <glyph glyph-name="seven.tf.case" 
d="M210 0v9q-1 163 62.5 326.5t181.5 306.5h-368v68h452v-59q-121 -132 -184 -299.5t-64 -336.5v-15h-80z" />
    <glyph glyph-name="eight.tf.case" 
d="M395 383q77 -26 113 -71.5t36 -121.5q0 -94 -62.5 -149.5t-168.5 -55.5q-109 0 -173 54.5t-64 146.5q0 145 142 188q-118 49 -118 171q0 82 58 132t152 50q95 0 152 -49t57 -131q0 -128 -124 -164zM174 545q0 -51 28.5 -82t87.5 -49l36 -11q67 24 93 55.5t26 84.5
q0 59 -36.5 93.5t-100.5 34.5q-62 0 -98 -34t-36 -92zM313 44q74 0 116 38.5t42 107.5q0 57 -30.5 91.5t-94.5 52.5l-61 18q-71 -24 -103 -61t-32 -95q0 -69 44 -110.5t119 -41.5z" />
    <glyph glyph-name="nine.tf.case" 
d="M294 727q249 0 249 -358q0 -113 -24 -197t-80 -135.5t-140 -51.5q-92 0 -147.5 49.5t-72.5 142.5l74 15q25 -145 147 -145q169 0 169 321v12q-49 -111 -180 -111q-97 0 -158 59.5t-61 166.5q0 101 61 166.5t163 65.5zM296 331q62 0 109.5 41.5t59.5 108.5
q-25 184 -172 184q-68 0 -109 -47t-41 -122q0 -76 42.5 -120.5t110.5 -44.5z" />
    <glyph glyph-name="zero.tf.case.zero" 
d="M310 727q246 0 247 -370q-1 -372 -247 -372t-247 372q1 370 247 370zM310 665q-84 0 -128.5 -72.5t-45.5 -235.5q0 -96 18 -168l291 393q-42 83 -135 83zM310 47q173 0 174 310q0 103 -18 167l-291 -393q43 -84 135 -84z" />
    <glyph glyph-name="zero.tosf" 
d="M311 -15q-120 0 -188.5 77t-68.5 207q0 127 68.5 204t187.5 77q118 0 187 -78.5t69 -207.5q0 -127 -68.5 -203t-186.5 -76zM311 46q85 0 134 58.5t49 158.5q0 102 -49 163t-135 61t-135 -59.5t-49 -159.5q0 -103 49 -162.5t136 -59.5z" />
    <glyph glyph-name="one.tosf" 
d="M365 63h176v-63h-436v63h190v356q-17 -25 -64 -43.5t-83 -18.5h-36v67h27q50 0 102.5 33.5t64.5 77.5h59v-472z" />
    <glyph glyph-name="two.tosf" 
d="M74 45q83 48 164 102q111 71 153.5 121t42.5 109q0 51 -33.5 81t-89.5 30q-63 0 -100 -34.5t-37 -94.5q0 -25 4 -38l-75 8q-2 24 -2 30q0 86 58 138.5t151 52.5q91 0 144 -45t53 -123q0 -92 -87 -172q-64 -60 -221 -147h341v-63h-466v45z" />
    <glyph glyph-name="three.tosf" 
d="M310 -165q-107 0 -170.5 56t-66.5 153l73 8q3 -75 46.5 -115t120.5 -40q73 0 116 39t43 101q0 63 -42 101.5t-117 38.5h-47v61h42q67 0 103.5 35t36.5 90q0 58 -36 91.5t-102 33.5q-73 0 -114.5 -44.5t-41.5 -123.5l-69 14q0 99 62.5 157.5t166.5 58.5q97 0 152.5 -50.5
t55.5 -136.5q0 -53 -34.5 -94.5t-89.5 -52.5q69 -11 108.5 -58.5t39.5 -120.5q0 -87 -65 -144.5t-171 -57.5z" />
    <glyph glyph-name="four.tosf" 
d="M384 -150v187h-334v51l323 447h81v-440h119v-58h-119v-187h-70zM124 95h260v256q0 74 2 111h-2q-33 -57 -65 -101l-130 -183q-43 -58 -65 -83z" />
    <glyph glyph-name="five.tosf" 
d="M307 -165q-90 0 -151.5 49.5t-74.5 134.5l76 9q11 -59 52 -94.5t100 -35.5q75 0 117 50.5t42 131.5q0 82 -39 130.5t-106 48.5q-60 3 -103 -32t-57 -92l-71 8l40 392h388v-64h-330l-30 -250q55 100 174 100q97 0 152 -63.5t55 -173.5q0 -107 -63.5 -178t-170.5 -71z" />
    <glyph glyph-name="six.tosf" 
d="M329 464q97 0 155 -65t58 -173q0 -107 -61.5 -174t-162.5 -67q-121 0 -184 87.5t-63 261.5q0 179 65 277.5t188 98.5q86 0 139.5 -44.5t69.5 -129.5l-74 -15q-25 127 -136 127q-89 0 -134.5 -78.5t-45.5 -225.5q23 58 72.5 89t113.5 31zM319 47q69 0 109.5 49t40.5 129
q0 81 -41.5 129t-111.5 48q-63 0 -108 -41t-61 -117q11 -91 55.5 -144t116.5 -53z" />
    <glyph glyph-name="seven.tosf" 
d="M211 -150v9q0 316 243 608h-368v68h452v-59q-122 -132 -184.5 -289t-62.5 -322v-15h-80z" />
    <glyph glyph-name="eight.tosf" 
d="M394 373q78 -28 114 -72t36 -119q0 -90 -62.5 -143.5t-168.5 -53.5q-109 0 -173 52t-64 141q0 144 143 187q-61 25 -90 65.5t-29 103.5q0 79 58 127.5t152 48.5q95 0 152 -47.5t57 -127.5q0 -127 -125 -162zM174 534q0 -50 28 -80.5t88 -49.5l36 -11q67 24 93 55.5
t26 83.5q0 57 -36.5 89.5t-100.5 32.5q-62 0 -98 -32t-36 -88zM313 44q74 0 116 36.5t42 101.5q0 55 -30.5 88.5t-94.5 53.5l-61 18q-71 -23 -103 -59.5t-32 -93.5q0 -66 44 -105.5t119 -39.5z" />
    <glyph glyph-name="nine.tosf" 
d="M294 550q248 0 248 -351q0 -165 -59.5 -264.5t-183.5 -99.5q-92 0 -147.5 46.5t-72.5 135.5l74 15q25 -135 147 -135q169 0 169 301v13q-24 -55 -71.5 -83.5t-108.5 -28.5q-97 0 -158 59.5t-61 164.5q0 99 61 163t163 64zM296 161q61 0 108.5 41.5t60.5 107.5
q-11 79 -52 128.5t-120 49.5q-68 0 -109 -45.5t-41 -118.5q0 -75 42.5 -119t110.5 -44z" />
    <glyph glyph-name="zero.tosf.zero" 
d="M310 550q118 0 187 -78.5t69 -207.5q0 -127 -68.5 -203t-186.5 -76q-120 0 -188.5 77t-68.5 207q0 127 68.5 204t187.5 77zM126 268q0 -97 43 -155l253 336q-46 38 -112 38q-86 0 -135 -59.5t-49 -159.5zM311 46q85 0 134 58.5t49 158.5q0 96 -43 154l-251 -336
q44 -35 111 -35z" />
    <glyph glyph-name="zero.subs" horiz-adv-x="505" 
d="M253 -151q-98 0 -151 69.5t-53 194.5q0 126 53 195.5t151 69.5q97 0 150 -70.5t53 -194.5q0 -125 -52.5 -194.5t-150.5 -69.5zM253 -101q67 0 102.5 56t35.5 158t-35.5 158.5t-102.5 56.5t-103 -56.5t-36 -158.5t35.5 -158t103.5 -56z" />
    <glyph glyph-name="one.subs" horiz-adv-x="320" 
d="M155 -140v406q-15 -20 -42.5 -32.5t-56.5 -12.5h-19v58h11q44 0 75.5 23t42.5 65h50v-507h-61z" />
    <glyph glyph-name="two.subs" horiz-adv-x="442" 
d="M40 -140v49q84 55 139.5 99t98.5 102.5t43 112.5q0 49 -27 76.5t-76 27.5q-51 0 -80 -27t-29 -73q0 -20 6 -44l-64 5q-6 28 -6 43q0 68 47 107.5t129 39.5q79 0 122.5 -40t43.5 -112q0 -84 -75 -165t-186 -148h272v-53h-358z" />
    <glyph glyph-name="three.subs" horiz-adv-x="456" 
d="M226 -151q-84 0 -134 43t-52 116l63 6q2 -54 35 -84.5t89 -30.5t86.5 27t30.5 77q0 44 -31.5 69.5t-87.5 25.5h-37v46h31q51 0 79.5 24.5t28.5 66.5q0 44 -27.5 69t-76.5 25q-55 0 -84.5 -30.5t-29.5 -85.5l-62 8q0 74 47 115.5t131 41.5q79 0 122.5 -36t43.5 -101
q0 -44 -28 -76t-75 -40q57 -7 89 -39.5t32 -85.5q0 -71 -49 -111t-134 -40z" />
    <glyph glyph-name="four.subs" horiz-adv-x="452" 
d="M420 -10h-85v-130h-61v130h-254v44l246 333h69v-329h85v-48zM274 307l-194 -269h194v269z" />
    <glyph glyph-name="five.subs" horiz-adv-x="454" 
d="M224 -151q-72 0 -119.5 36.5t-57.5 98.5l63 8q8 -43 38 -67.5t77 -24.5q56 0 89 34.5t33 93.5t-31 93t-86 34q-43 0 -74 -24t-40 -64l-60 6l30 294h297v-51h-249l-20 -185q40 73 133 73q76 0 119.5 -46.5t43.5 -126.5q0 -83 -50.5 -132.5t-135.5 -49.5z" />
    <glyph glyph-name="six.subs" horiz-adv-x="460" 
d="M256 201q74 0 119 -47.5t45 -126.5q0 -77 -49.5 -127.5t-129.5 -50.5q-94 0 -145 64.5t-51 193.5q0 126 51 198.5t146 72.5q145 0 168 -130l-61 -10q-19 91 -108 91q-67 0 -101.5 -58t-33.5 -164v-7q16 49 56 75t94 26zM242 -101q53 0 84.5 34.5t31.5 90.5q0 58 -32 92.5
t-86 34.5q-48 0 -83 -29.5t-46 -82.5q23 -140 131 -140z" />
    <glyph glyph-name="seven.subs" horiz-adv-x="407" 
d="M122 -140v8q0 240 195 445h-283v54h349v-50q-191 -193 -191 -441v-16h-70z" />
    <glyph glyph-name="eight.subs" horiz-adv-x="464" 
d="M297 134q66 -20 95.5 -53.5t29.5 -88.5q0 -66 -51 -104.5t-139 -38.5t-139 37.5t-51 102.5q0 103 118 133q-54 19 -78 48.5t-24 77.5q0 58 47 94t124 36q79 0 126 -34.5t47 -91.5q0 -92 -105 -118zM120 247q0 -35 23 -57t75 -35l29 -8q52 16 73 37.5t21 59.5
q0 42 -29.5 65t-82.5 23q-50 0 -79.5 -23t-29.5 -62zM233 -103q59 0 92.5 26t33.5 71q0 39 -25.5 63.5t-81.5 39.5l-40 10q-105 -30 -105 -108q0 -48 33.5 -75t92.5 -27z" />
    <glyph glyph-name="nine.subs" horiz-adv-x="460" 
d="M219 378q196 0 196 -258q0 -126 -48.5 -198.5t-145.5 -72.5q-148 0 -171 134l61 10q19 -94 112 -94q65 0 98 58.5t33 165.5v1q-39 -78 -144 -78q-76 0 -123 44.5t-47 119.5q0 74 48.5 121t130.5 47zM219 95q45 0 81 23.5t51 64.5q-18 146 -131 146q-54 0 -86.5 -32.5
t-32.5 -84.5q0 -53 33 -85t85 -32z" />
    <glyph glyph-name="zero.dnom" horiz-adv-x="402" 
d="M201 -8q-77 0 -120 52t-43 146q0 93 43 145t119 52q77 0 120 -52.5t43 -146.5q0 -93 -42.5 -144.5t-119.5 -51.5zM201 38q48 0 74.5 39t26.5 111q0 73 -26.5 113t-75.5 40q-48 0 -74.5 -39.5t-26.5 -111.5q0 -74 26.5 -113t75.5 -39z" />
    <glyph glyph-name="one.dnom" horiz-adv-x="260" 
d="M121 0v294q-29 -37 -81 -37h-12v54h8q75 0 96 67h47v-378h-58z" />
    <glyph glyph-name="two.dnom" horiz-adv-x="358" 
d="M34 0v44q69 42 110.5 71t75.5 70.5t34 81.5q0 35 -20 54t-56 19q-38 0 -59.5 -19t-21.5 -53q0 -12 5 -30l-61 5q-3 13 -3 31q0 53 38 83t105 30q63 0 98.5 -30t35.5 -85q0 -64 -59 -123.5t-142 -103.5h210v-45h-290z" />
    <glyph glyph-name="three.dnom" horiz-adv-x="365" 
d="M181 -8q-68 0 -107.5 32t-40.5 88l59 5q2 -38 25.5 -59t63.5 -21q85 0 85 71q0 30 -22.5 46.5t-63.5 16.5h-37v43h33q37 0 58.5 17t21.5 45q0 32 -20 49.5t-57 17.5q-39 0 -62 -21.5t-23 -59.5l-58 5q0 56 39 88t107 32q63 0 98.5 -28t35.5 -77q0 -33 -23 -57.5
t-60 -28.5q43 -4 69.5 -29t26.5 -64q0 -52 -39.5 -81.5t-108.5 -29.5z" />
    <glyph glyph-name="four.dnom" horiz-adv-x="370" 
d="M338 92h-64v-92h-56v92h-196v43l190 243h62v-242h64v-44zM218 323l-147 -187h147v187z" />
    <glyph glyph-name="five.dnom" horiz-adv-x="361" 
d="M180 -8q-59 0 -98 27t-46 74l56 9q6 -31 28.5 -48t56.5 -17q43 0 67 24.5t24 66.5q0 40 -23 63.5t-63 23.5q-31 0 -55 -17t-31 -44l-52 4l24 220h238v-46h-196l-14 -128q29 52 104 52q58 0 92 -34t34 -93q0 -64 -39 -100.5t-107 -36.5z" />
    <glyph glyph-name="six.dnom" horiz-adv-x="374" 
d="M212 255q57 0 92 -34.5t35 -94.5q0 -58 -39 -96t-104 -38q-74 0 -116 48.5t-42 144.5q0 92 40.5 147t115.5 55q117 0 136 -102l-54 -7q-15 65 -83 65q-48 0 -74 -41.5t-26 -115.5v-11q25 80 119 80zM195 35q41 0 65 24.5t24 63.5q0 41 -24.5 66t-64.5 25
q-36 0 -62.5 -21.5t-36.5 -57.5q16 -100 99 -100z" />
    <glyph glyph-name="seven.dnom" horiz-adv-x="334" 
d="M32 331v47h279v-46q-143 -135 -147 -324v-8h-64v4q6 191 153 327h-221z" />
    <glyph glyph-name="eight.dnom" horiz-adv-x="372" 
d="M242 206q97 -27 97 -107q0 -50 -41.5 -78.5t-113.5 -28.5q-71 0 -111 27.5t-40 76.5q0 73 93 95q-82 26 -82 95q0 45 38 73t100 28q64 0 102 -25t38 -69q0 -34 -19 -54.5t-61 -32.5zM99 286q0 -49 77 -65l27 -6q35 10 49.5 26t14.5 42q0 29 -22.5 46.5t-62.5 17.5
q-37 0 -60 -16.5t-23 -44.5zM186 35q44 0 68.5 17.5t24.5 48.5q0 32 -21.5 48.5t-61.5 24.5l-28 7q-75 -21 -75 -77q0 -33 24 -51t69 -18z" />
    <glyph glyph-name="nine.dnom" horiz-adv-x="373" 
d="M179 387q156 0 156 -194q0 -96 -39 -148.5t-118 -52.5q-118 0 -135 100l55 9q13 -64 84 -64q95 0 98 155q-34 -57 -113 -57q-60 0 -96 34.5t-36 90.5q0 55 38.5 91t105.5 36zM179 176q69 0 99 64q-12 104 -99 104q-41 0 -65 -23t-24 -60q0 -38 24.5 -61.5t64.5 -23.5z
" />
    <glyph glyph-name="zero.numr" horiz-adv-x="402" 
d="M201 325q-77 0 -120 52t-43 146q0 93 43 145t119 52q77 0 120 -52.5t43 -146.5q0 -93 -42.5 -144.5t-119.5 -51.5zM201 371q48 0 74.5 39t26.5 111q0 73 -26.5 113t-75.5 40q-48 0 -74.5 -39.5t-26.5 -111.5q0 -74 26.5 -113t75.5 -39z" />
    <glyph glyph-name="one.numr" horiz-adv-x="260" 
d="M121 333v294q-29 -37 -81 -37h-12v54h8q75 0 96 67h47v-378h-58z" />
    <glyph glyph-name="two.numr" horiz-adv-x="358" 
d="M34 333v44q69 42 110.5 71t75.5 70.5t34 81.5q0 35 -20 54t-56 19q-38 0 -59.5 -19t-21.5 -53q0 -12 5 -30l-61 5q-3 14 -3 31q0 53 38 83t105 30q63 0 98.5 -30t35.5 -85q0 -64 -59 -123.5t-142 -103.5h210v-45h-290z" />
    <glyph glyph-name="three.numr" horiz-adv-x="365" 
d="M181 325q-68 0 -107.5 32t-40.5 88l59 5q2 -38 25.5 -59t63.5 -21q85 0 85 71q0 30 -22.5 46.5t-63.5 16.5h-37v43h33q37 0 58.5 17t21.5 45q0 32 -20 49.5t-57 17.5q-39 0 -62 -21.5t-23 -59.5l-58 5q0 56 39 88t107 32q63 0 98.5 -28t35.5 -77q0 -33 -23 -57.5
t-60 -28.5q43 -4 69.5 -29t26.5 -64q0 -52 -39.5 -81.5t-108.5 -29.5z" />
    <glyph glyph-name="four.numr" horiz-adv-x="370" 
d="M338 425h-64v-92h-56v92h-196v43l190 243h62v-242h64v-44zM218 656l-147 -187h147v187z" />
    <glyph glyph-name="five.numr" horiz-adv-x="361" 
d="M180 325q-59 0 -98 27t-46 74l56 9q6 -31 28.5 -48t56.5 -17q43 0 67 24.5t24 66.5q0 40 -23 63.5t-63 23.5q-31 0 -55 -17t-31 -44l-52 4l24 220h238v-46h-196l-14 -128q29 52 104 52q58 0 92 -34t34 -93q0 -64 -39 -100.5t-107 -36.5z" />
    <glyph glyph-name="six.numr" horiz-adv-x="374" 
d="M212 588q57 0 92 -34.5t35 -94.5q0 -58 -39 -96t-104 -38q-74 0 -116 48.5t-42 144.5q0 92 40.5 147t115.5 55q117 0 136 -102l-54 -7q-15 65 -83 65q-48 0 -74 -41.5t-26 -115.5v-11q25 80 119 80zM195 368q41 0 65 24.5t24 63.5q0 41 -24.5 66t-64.5 25
q-36 0 -62.5 -21.5t-36.5 -57.5q16 -100 99 -100z" />
    <glyph glyph-name="seven.numr" horiz-adv-x="334" 
d="M32 664v47h279v-46q-143 -135 -147 -324v-8h-64v4q6 191 153 327h-221z" />
    <glyph glyph-name="eight.numr" horiz-adv-x="372" 
d="M242 539q97 -27 97 -107q0 -50 -41.5 -78.5t-113.5 -28.5q-71 0 -111 27.5t-40 76.5q0 73 93 95q-82 26 -82 95q0 45 38 73t100 28q64 0 102 -25t38 -69q0 -34 -19 -54.5t-61 -32.5zM99 619q0 -49 77 -65l27 -6q35 10 49.5 26t14.5 42q0 29 -22.5 46.5t-62.5 17.5
q-37 0 -60 -16.5t-23 -44.5zM186 368q44 0 68.5 17.5t24.5 48.5q0 32 -21.5 48.5t-61.5 24.5l-28 7q-75 -21 -75 -77q0 -33 24 -51t69 -18z" />
    <glyph glyph-name="nine.numr" horiz-adv-x="373" 
d="M179 720q156 0 156 -194q0 -96 -39 -148.5t-118 -52.5q-118 0 -135 100l55 9q13 -64 84 -64q95 0 98 155q-34 -57 -113 -57q-60 0 -96 34.5t-36 90.5q0 55 38.5 91t105.5 36zM179 509q69 0 99 64q-12 104 -99 104q-41 0 -65 -23t-24 -60q0 -38 24.5 -61.5t64.5 -23.5z
" />
    <glyph glyph-name="zero.sups" horiz-adv-x="505" 
d="M253 299q-98 0 -151 69.5t-53 194.5q0 126 53 195.5t151 69.5q97 0 150 -70.5t53 -194.5q0 -125 -52.5 -194.5t-150.5 -69.5zM253 349q67 0 102.5 56t35.5 158t-35.5 158.5t-102.5 56.5t-103 -56.5t-36 -158.5t35.5 -158t103.5 -56z" />
    <glyph glyph-name="one.sups" horiz-adv-x="320" 
d="M155 310v406q-15 -20 -42.5 -32.5t-56.5 -12.5h-19v58h11q44 0 75.5 23t42.5 65h50v-507h-61z" />
    <glyph glyph-name="two.sups" horiz-adv-x="442" 
d="M40 310v49q84 55 139.5 99t98.5 102.5t43 112.5q0 49 -27 76.5t-76 27.5q-51 0 -80 -27t-29 -73q0 -20 6 -44l-64 5q-6 28 -6 43q0 68 47 107.5t129 39.5q79 0 122.5 -40t43.5 -112q0 -84 -75 -165t-186 -148h272v-53h-358z" />
    <glyph glyph-name="three.sups" horiz-adv-x="456" 
d="M226 299q-84 0 -134 43t-52 116l63 6q2 -54 35 -84.5t89 -30.5t86.5 27t30.5 77q0 44 -31.5 69.5t-87.5 25.5h-37v46h31q51 0 79.5 24.5t28.5 66.5q0 44 -27.5 69t-76.5 25q-55 0 -84.5 -30.5t-29.5 -85.5l-62 8q0 74 47 115.5t131 41.5q79 0 122.5 -36t43.5 -101
q0 -44 -28 -76t-75 -40q57 -7 89 -39.5t32 -85.5q0 -71 -49 -111t-134 -40z" />
    <glyph glyph-name="four.sups" horiz-adv-x="452" 
d="M420 440h-85v-130h-61v130h-254v44l246 333h69v-329h85v-48zM274 757l-194 -269h194v269z" />
    <glyph glyph-name="five.sups" horiz-adv-x="454" 
d="M224 299q-72 0 -119.5 36.5t-57.5 98.5l63 8q8 -43 38 -67.5t77 -24.5q56 0 89 34.5t33 93.5t-31 93t-86 34q-43 0 -74 -24t-40 -64l-60 6l30 294h297v-51h-249l-20 -185q40 73 133 73q76 0 119.5 -46.5t43.5 -126.5q0 -83 -50.5 -132.5t-135.5 -49.5z" />
    <glyph glyph-name="six.sups" horiz-adv-x="460" 
d="M256 651q74 0 119 -47.5t45 -126.5q0 -77 -49.5 -127.5t-129.5 -50.5q-94 0 -145 64.5t-51 193.5q0 126 51 198.5t146 72.5q145 0 168 -130l-61 -10q-19 91 -108 91q-67 0 -101.5 -58t-33.5 -164v-7q16 49 56 75t94 26zM242 349q53 0 84.5 34.5t31.5 90.5q0 58 -32 92.5
t-86 34.5q-48 0 -83 -29.5t-46 -82.5q23 -140 131 -140z" />
    <glyph glyph-name="seven.sups" horiz-adv-x="407" 
d="M122 310v8q0 240 195 445h-283v54h349v-50q-191 -193 -191 -441v-16h-70z" />
    <glyph glyph-name="eight.sups" horiz-adv-x="464" 
d="M297 584q66 -20 95.5 -53.5t29.5 -88.5q0 -66 -51 -104.5t-139 -38.5t-139 37.5t-51 102.5q0 103 118 133q-54 19 -78 48.5t-24 77.5q0 58 47 94t124 36q79 0 126 -34.5t47 -91.5q0 -92 -105 -118zM120 697q0 -35 23 -57t75 -35l29 -8q52 16 73 37.5t21 59.5
q0 42 -29.5 65t-82.5 23q-50 0 -79.5 -23t-29.5 -62zM233 347q59 0 92.5 26t33.5 71q0 39 -25.5 63.5t-81.5 39.5l-40 10q-105 -30 -105 -108q0 -48 33.5 -75t92.5 -27z" />
    <glyph glyph-name="nine.sups" horiz-adv-x="460" 
d="M219 828q196 0 196 -258q0 -126 -48.5 -198.5t-145.5 -72.5q-148 0 -171 134l61 10q19 -94 112 -94q65 0 98 58.5t33 165.5v1q-39 -78 -144 -78q-76 0 -123 44.5t-47 119.5q0 74 48.5 121t130.5 47zM219 545q45 0 81 23.5t51 64.5q-18 146 -131 146q-54 0 -86.5 -32.5
t-32.5 -84.5q0 -53 33 -85t85 -32z" />
    <glyph glyph-name="backslash.case" horiz-adv-x="442" 
d="M329 -86l-282 877h66l282 -877h-66z" />
    <glyph glyph-name="periodcentered.case" horiz-adv-x="238" 
d="M166 433v-112h-94v112h94z" />
    <glyph glyph-name="bullet.case" horiz-adv-x="302" 
d="M151 298q-35 0 -57 21.5t-22 55.5q0 36 22 58t57 22t57 -22t22 -58q0 -34 -22 -55.5t-57 -21.5z" />
    <glyph glyph-name="colon.case" horiz-adv-x="238" 
d="M166 550v-112h-94v112h94zM166 112v-112h-94v112h94z" />
    <glyph glyph-name="exclamdown.case" horiz-adv-x="299" 
d="M193 621h-87v104h87v-104zM124 541h50l20 -541h-89z" />
    <glyph glyph-name="questiondown.case" horiz-adv-x="464" 
d="M284 720v-106h-85v106h85zM278 533v-39q0 -71 -60 -128l-48 -45q-73 -66 -73 -143q0 -56 36.5 -88.5t98.5 -32.5q64 0 103.5 38t39.5 106q0 24 -4 47l75 -8q3 -22 3 -48q0 -89 -57.5 -144t-162.5 -55q-98 0 -154 48.5t-56 135.5q0 92 94 179l49 45q26 24 35.5 46.5
t9.5 58.5v27h71z" />
    <glyph glyph-name="semicolon.case" horiz-adv-x="244" 
d="M172 550v-112h-94v112h94zM94 -132l-19 36q32 16 42.5 36t10.5 57v3h-50v112h95v-106q0 -56 -17 -86.5t-62 -51.5z" />
    <glyph glyph-name="slash.case" horiz-adv-x="442" 
d="M113 -86h-66l282 877h66z" />
    <glyph glyph-name="underscore.case" horiz-adv-x="422" 
d="M0 -17h422v-50h-422v50z" />
    <glyph glyph-name="asterisk.ss04" horiz-adv-x="300" 
d="M150 710l-31 -93h-97l79 -57l-30 -93l79 57l79 -57l-31 93l79 57h-97z" />
    <glyph glyph-name="colon.tf" horiz-adv-x="310" 
d="M202 500v-112h-94v112h94zM202 112v-112h-94v112h94z" />
    <glyph glyph-name="comma.tf" horiz-adv-x="310" 
d="M127 -132l-20 36q33 16 43.5 36t10.5 57v3h-51v112h95v-106q0 -56 -17 -86.5t-61 -51.5z" />
    <glyph glyph-name="period.tf" horiz-adv-x="310" 
d="M202 112v-112h-95v112h95z" />
    <glyph glyph-name="semicolon.tf" horiz-adv-x="310" 
d="M205 500v-112h-94v112h94zM126 -132l-19 36q32 16 42.5 36t10.5 57v3h-50v112h95v-106q0 -56 -17 -86.5t-62 -51.5z" />
    <glyph glyph-name="slash.tf" 
d="M201 -117h-65l282 877h65z" />
    <glyph glyph-name="underscore.tf" 
d="M0 -99h620v-49h-620v49z" />
    <glyph glyph-name="braceleft.case" horiz-adv-x="353" 
d="M275 -86q-65 0 -105.5 35.5t-40.5 100.5v179q0 52 -13 76.5t-59 25.5v56q46 1 58.5 23t12.5 75v172q0 69 43.5 106.5t115.5 37.5h21v-51h-14q-47 0 -73.5 -25t-26.5 -75v-159q0 -52 -14.5 -85.5t-53.5 -45.5q67 -26 67 -138v-161q0 -48 27 -72t70 -24h21v-51h-36z" />
    <glyph glyph-name="braceright.case" horiz-adv-x="353" 
d="M78 -86h-36v51h21q43 0 70 24t27 72v161q0 112 67 138q-39 12 -53.5 45.5t-14.5 85.5v159q0 50 -26.5 75t-73.5 25h-14v51h21q72 0 115.5 -37.5t43.5 -106.5v-172q0 -53 12.5 -75t58.5 -23v-56q-46 -1 -59 -25.5t-13 -76.5v-179q0 -65 -40.5 -100.5t-105.5 -35.5z" />
    <glyph glyph-name="bracketleft.case" horiz-adv-x="333" 
d="M105 -75v871h186v-58h-123v-755h123v-58h-186z" />
    <glyph glyph-name="bracketright.case" horiz-adv-x="333" 
d="M228 -75h-186v58h123v755h-123v58h186v-871z" />
    <glyph glyph-name="parenleft.case" horiz-adv-x="298" 
d="M233 -103q-80 96 -125.5 218t-45.5 247q0 124 46 241t126 206l51 -27q-79 -102 -115.5 -203t-36.5 -219q0 -119 36.5 -223t115.5 -211z" />
    <glyph glyph-name="parenright.case" horiz-adv-x="298" 
d="M65 -103l-52 29q79 107 115.5 211t36.5 223q0 118 -36.5 219t-115.5 203l51 27q80 -89 126 -206t46 -241q0 -125 -45.5 -247t-125.5 -218z" />
    <glyph glyph-name="parenleft.tf" 
d="M369 -135q-80 96 -125.5 218t-45.5 247q0 123 46 240t127 207l51 -28q-80 -101 -116.5 -202.5t-36.5 -219.5q0 -119 36.5 -223t116.5 -210z" />
    <glyph glyph-name="parenright.tf" 
d="M251 -135l-52 29q79 106 115.5 210t36.5 223q0 118 -36.5 219.5t-115.5 202.5l51 28q80 -90 126 -207t46 -240q0 -125 -45.5 -247t-125.5 -218z" />
    <glyph glyph-name="emdash.case" horiz-adv-x="800" 
d="M52 382h695v-53h-695v53z" />
    <glyph glyph-name="endash.case" horiz-adv-x="517" 
d="M52 382h412v-53h-412v53z" />
    <glyph glyph-name="hyphen.case" horiz-adv-x="394" 
d="M52 389h289v-66h-289v66z" />
    <glyph glyph-name="hyphen.tf" 
d="M115 311h389v-66h-389v66z" />
    <glyph glyph-name="guillemotleft.case" horiz-adv-x="500" 
d="M207 145l-170 208l171 208h74l-166 -208l166 -208h-75zM394 145l-170 208l171 208h74l-166 -208l166 -208h-75z" />
    <glyph glyph-name="guillemotright.case" horiz-adv-x="500" 
d="M106 145h-75l166 208l-166 208h74l171 -208zM293 145h-75l166 208l-166 208h74l171 -208z" />
    <glyph glyph-name="guilsinglleft.case" horiz-adv-x="314" 
d="M207 145l-170 208l171 207h74l-166 -207l166 -208h-75z" />
    <glyph glyph-name="guilsinglright.case" horiz-adv-x="314" 
d="M107 145h-75l166 208l-166 208h74l171 -208z" />
    <glyph glyph-name="parenleft.subs" horiz-adv-x="256" 
d="M196 -236q-60 69 -93.5 157t-33.5 179q0 184 127 324l48 -17q-115 -140 -115 -307q0 -170 115 -318z" />
    <glyph glyph-name="parenright.subs" horiz-adv-x="256" 
d="M60 -236l-48 19q115 147 115 317q0 167 -115 307l48 17q127 -140 127 -324q0 -91 -33.5 -179t-93.5 -157z" />
    <glyph glyph-name="parenleft.sups" horiz-adv-x="256" 
d="M196 214q-60 69 -93.5 157t-33.5 179q0 184 127 324l48 -17q-115 -140 -115 -307q0 -170 115 -317z" />
    <glyph glyph-name="parenright.sups" horiz-adv-x="256" 
d="M60 214l-48 19q115 147 115 317q0 167 -115 307l48 17q127 -140 127 -324q0 -91 -33.5 -179t-93.5 -157z" />
    <glyph glyph-name="uni0E3F.case" horiz-adv-x="654" 
d="M449 371q70 -11 107 -54t37 -114q0 -96 -61 -149.5t-171 -53.5h-12v-87h-45v87h-199v710h199v76h45v-76q107 -1 166.5 -49t59.5 -133q0 -62 -32.5 -102.5t-93.5 -54.5zM179 647v-250h125v250h-125zM497 522q0 59 -37.5 91.5t-110.5 33.5v-250q71 1 109.5 33t38.5 92z
M179 64h125v273h-125v-273zM356 64q78 0 119 37t41 108q0 62 -39 95t-112 33h-16v-273h7z" />
    <glyph glyph-name="uni0E3F.tf" 
d="M414 356q69 -10 106 -54t37 -112q0 -90 -57.5 -140t-166.5 -50h-9v-107h-45v107h-178v695h178v91h45v-91q105 -2 160 -48.5t55 -129.5q0 -59 -32 -102.5t-93 -58.5zM279 633h-108v-251h108v251zM465 511q0 60 -34 90t-107 32v-251q72 2 106.5 36.5t34.5 92.5zM171 62h108
v258h-108v-258zM327 62q80 0 118 33t38 101q0 59 -36.5 91.5t-109.5 32.5h-13v-258h3z" />
    <glyph glyph-name="uni0E3F.tf.tf.case" 
d="M414 366q69 -10 106 -54t37 -112q0 -95 -57.5 -147.5t-166.5 -52.5h-9v-87h-45v87h-178v710h178v76h45v-76q105 -2 160 -50t55 -133q0 -59 -32 -102.5t-93 -58.5zM279 648h-108v-256h108v256zM465 521q0 63 -33.5 94t-107.5 33v-256q72 2 106.5 36.5t34.5 92.5zM171 62
h108v268h-108v-268zM327 62q80 0 118 35.5t38 108.5q0 59 -36.5 91.5t-109.5 32.5h-13v-268h3z" />
    <glyph glyph-name="uni20BA.case" horiz-adv-x="560" 
d="M477 239l67 -15q-47 -224 -273 -224h-161v276l-78 -23v57l78 23v88l-78 -23v57l78 23v232h74v-210l256 75v-57l-256 -75v-88l256 75v-57l-256 -75v-232h76q173 0 217 173z" />
    <glyph glyph-name="uni20BA.tf" 
d="M493 239l67 -15q-45 -224 -258 -224h-146v279l-78 -24v56l78 24v89l-78 -24v56l78 24v215h74v-193l226 69v-56l-226 -69v-89l226 69v-56l-226 -69v-235h61q160 0 202 173z" />
    <glyph glyph-name="uni20BA.tf.tf.case" 
d="M493 239l67 -15q-45 -224 -258 -224h-146v279l-78 -24v56l78 24v89l-78 -24v56l78 24v230h74v-208l226 69v-56l-226 -69v-89l226 69v-56l-226 -69v-235h61q160 0 202 173z" />
    <glyph glyph-name="uni20BD.case" horiz-adv-x="570" 
d="M313 298h-128v-103h174v-51h-174v-144h-74v144h-71v51h71v103h-71v54h71v358h202q108 0 171.5 -54.5t63.5 -150.5q0 -94 -63.5 -150.5t-171.5 -56.5zM185 644v-292h125q73 0 117 41.5t44 107.5q0 67 -43.5 105t-117.5 38h-125z" />
    <glyph glyph-name="uni20BD.tf" 
d="M336 292h-121v-97h167v-51h-167v-144h-74v144h-71v51h71v97h-70v54h70v349h195q65 0 113 -18.5t73.5 -49t37 -64t11.5 -69.5q0 -37 -11.5 -70.5t-37 -64t-73.5 -49t-113 -18.5zM215 629v-283h119q84 0 122 43t38 101q0 56 -37.5 97.5t-122.5 41.5h-119z" />
    <glyph glyph-name="uni20BD.tf.tf.case" 
d="M336 297h-121v-102h167v-51h-167v-144h-74v144h-71v51h71v102h-70v54h70v359h195q109 0 172 -55t63 -150t-64 -151.5t-171 -56.5zM215 644v-293h119q72 0 116 41.5t44 108.5q0 66 -43 104.5t-117 38.5h-119z" />
    <glyph glyph-name="uni20B9.case" horiz-adv-x="552" 
d="M540 710v-54h-193q76 -43 82 -136h111v-51h-112q-10 -86 -73 -132t-170 -46h-20l255 -291h-89l-259 301v47h122q143 0 160 121h-282v51h283q-5 65 -46.5 100.5t-113.5 35.5h-123v54h468z" />
    <glyph glyph-name="uni20B9.tf" 
d="M576 695v-54h-232q70 -39 81 -123h151v-51h-151q-8 -84 -67 -130t-162 -46h-15l251 -291h-89l-255 302v46h102q146 0 161 119h-263v51h262q-7 59 -48 91t-111 32h-103v54h488z" />
    <glyph glyph-name="uni20B9.tf.tf.case" 
d="M576 710v-54h-233q75 -43 82 -137h151v-51h-151q-9 -84 -68.5 -130.5t-160.5 -46.5h-15l251 -291h-89l-255 302v46h102q143 0 160 120h-262v51h263q-6 65 -47.5 101t-112.5 36h-103v54h488z" />
    <glyph glyph-name="uni20A9.case" horiz-adv-x="882" 
d="M857 710l-63 -258h63v-48h-75l-22 -91h97v-48h-109l-65 -265h-87l-66 265h-178l-66 -265h-87l-65 265h-109v48h97l-22 91h-75v48h63l-63 258h76l58 -258h180l66 258h72l66 -258h180l58 258h76zM415 521l-17 -69h86l-17 69q-17 72 -24 129h-4q-8 -68 -24 -129zM170 404
l20 -91h114l23 91h-157zM363 313h156l-23 91h-110zM692 313l20 91h-157l24 -91h113zM267 167l25 98h-91l21 -95q16 -76 20 -109h2q6 48 23 106zM660 170l21 95h-90l25 -98q16 -62 22 -106h3q2 22 19 109z" />
    <glyph glyph-name="uni20A9.tf" 
d="M579 408h-43l-10 -84h53v-46h-58l-31 -278h-95l-38 278h-95l-38 -278h-95l-31 278h-58v46h53l-10 84h-43v47h38l-27 240h62l25 -240h97l35 240h80l34 -240h98l24 240h62l-27 -240h38v-47zM300 558l-14 -103h47l-14 103q-6 42 -7 69h-5q-1 -27 -7 -69zM143 408l8 -84h65
l12 84h-85zM268 324h83l-12 84h-59zM468 324l9 84h-86l12 -84h65zM186 115l24 163h-54l17 -163l4 -47h3q4 34 6 47zM447 115l17 163h-54l23 -163q2 -13 6 -47h4q0 19 4 47z" />
    <glyph glyph-name="uni20A9.tf.tf.case" 
d="M579 408h-44l-9 -84h53v-46h-58l-31 -278h-95l-37 278h-97l-37 -278h-95l-31 278h-58v46h53l-9 84h-44v47h39l-28 255h62l26 -255h95l36 255h80l36 -255h95l25 255h62l-28 -255h39v-47zM300 573l-16 -118h51l-16 118q-6 42 -7 69h-5q-1 -27 -7 -69zM143 408l9 -84h64
l11 84h-84zM267 324h85l-11 84h-63zM468 324l8 84h-84l12 -84h64zM186 115l23 163h-52l16 -163q0 -9 1 -18t2 -17t1 -12h3q4 34 6 47zM447 115l16 163h-53l23 -163q2 -13 6 -47h4q0 5 4 47z" />
    <glyph glyph-name="currency.case" horiz-adv-x="552" 
d="M500 353q0 -88 -51 -150l54 -57l-34 -31l-53 56q-58 -44 -137 -44q-81 0 -141 46l-55 -59l-34 31l56 61q-48 62 -48 147q0 87 49 147l-58 62l34 30l57 -59q59 46 140 46q77 0 136 -43l54 57l34 -31l-54 -59q51 -61 51 -150zM279 186q69 0 112.5 46.5t43.5 120.5
t-43.5 120.5t-112.5 46.5t-113.5 -46.5t-44.5 -120.5t44.5 -120.5t113.5 -46.5z" />
    <glyph glyph-name="dollar.case" horiz-adv-x="613" 
d="M566 191q0 -89 -62 -145t-170 -62v-71h-51v71q-101 7 -165.5 64t-80.5 157l75 14q32 -153 171 -169v293l-23 5q-100 22 -146 68.5t-46 123.5q0 79 59 130t156 56v74h51v-74q92 -7 148.5 -55.5t70.5 -136.5l-74 -20q-25 133 -145 149v-258l18 -4q112 -24 163 -73t51 -137z
M145 541q0 -49 32.5 -78.5t105.5 -46.5v249q-64 -4 -101 -35.5t-37 -88.5zM334 49q73 4 114 40.5t41 100.5q0 59 -34 90t-121 52v-283z" />
    <glyph glyph-name="Euro.case" horiz-adv-x="655" 
d="M568 181l56 -36q-35 -76 -100 -118t-152 -42q-123 0 -197 75t-96 203h-65v51h59q-2 36 -2 55q0 26 1 39h-58v50h63q19 127 94.5 198t202.5 71q172 0 245 -146l-60 -39q-57 120 -191 120q-90 0 -144 -53.5t-70 -150.5h351v-50h-357q-1 -12 -1 -38q0 -29 3 -56h355v-51
h-348q20 -99 76 -156t141 -57q60 0 111 32.5t83 98.5z" />
    <glyph glyph-name="sterling.case" horiz-adv-x="603" 
d="M518 164l66 -12q-9 -80 -52 -123.5t-113 -43.5q-41 0 -108.5 14t-118.5 14q-63 0 -153 -20l-16 52q145 46 145 191q0 43 -8 101h-112v53h101q-17 77 -17 133q0 94 54.5 149t149.5 55q168 0 199 -159l-72 -17q-20 115 -128 115q-125 0 -125 -140q0 -57 17 -136h187v-53
h-178q7 -45 7 -87q0 -133 -104 -184q36 9 82 9q39 0 100 -11t98 -11q43 0 69 29t30 82z" />
    <glyph glyph-name="currency.tf.case" 
d="M534 353q0 -88 -51 -150l54 -57l-34 -31l-53 56q-58 -44 -137 -44q-81 0 -141 46l-55 -59l-34 31l57 61q-49 60 -49 147t49 147l-57 62l33 30l57 -59q59 46 140 46q77 0 136 -43l54 57l34 -31l-54 -59q51 -61 51 -150zM313 186q69 0 113 46.5t44 120.5t-44 120.5
t-113 46.5t-113 -46.5t-44 -120.5t44 -120.5t113 -46.5z" />
    <glyph glyph-name="dollar.tf.case" 
d="M553 187q0 -94 -59 -146t-159 -56v-72h-39v73q-98 7 -158 67.5t-71 162.5l73 14q24 -165 156 -181v285l-37 10q-83 21 -126.5 70t-43.5 121q0 86 55.5 136.5t151.5 55.5v73h39v-74q90 -5 145.5 -57.5t62.5 -150.5l-73 -20q-10 153 -135 167v-269l38 -10
q91 -23 135.5 -68.5t44.5 -130.5zM285 409l11 -3v261q-63 -3 -100 -35.5t-37 -90.5q0 -101 126 -132zM335 47q70 2 108.5 36.5t38.5 100.5q0 58 -32 88.5t-102 48.5l-13 3v-277z" />
    <glyph glyph-name="Euro.tf.case" 
d="M526 177l55 -36q-30 -74 -88 -115t-135 -41q-110 0 -178 73.5t-87 204.5h-90v51h85q-2 34 -2 51q0 29 1 43h-84v50h89q19 130 89.5 199.5t185.5 69.5q149 0 213 -141l-59 -43q-48 119 -159 119q-79 0 -128.5 -51.5t-65.5 -152.5h274v-50h-279q-1 -13 -1 -42q0 -18 2 -52
h278v-51h-272q16 -104 66 -158.5t124 -54.5q51 0 95 32t71 95z" />
    <glyph glyph-name="sterling.tf.case" 
d="M507 164l66 -12q-10 -88 -56.5 -127.5t-109.5 -39.5q-35 0 -94.5 14t-105.5 14q-70 0 -152 -20l-16 52q144 46 144 191q0 47 -9 101h-111v53h100q-20 90 -20 141q0 94 54.5 145t143.5 51q79 0 128 -41.5t63 -118.5l-72 -17q-18 116 -120 116q-119 0 -119 -132
q0 -52 20 -144h172v-53h-162q7 -47 7 -87q0 -133 -103 -184q36 9 82 9q34 0 86.5 -11t83.5 -11q40 0 67.5 26.5t32.5 84.5z" />
    <glyph glyph-name="yen.tf.case" 
d="M567 710l-219 -369h188v-50h-189v-96h189v-50h-189v-145h-74v145h-189v50h189v96h-189v50h188l-219 369h83l145 -253q19 -33 28 -61h2q9 28 28 61l145 253h83z" />
    <glyph glyph-name="yen.case" horiz-adv-x="527" 
d="M524 710l-219 -363h181v-51h-185v-71h185v-50h-185v-175h-75v175h-185v50h185v71h-185v51h181l-220 363h83l131 -221q31 -54 46 -91h3q12 31 46 91l130 221h83z" />
    <glyph glyph-name="currency.tf" 
d="M534 303q0 -88 -51 -150l54 -57l-34 -31l-53 56q-58 -44 -137 -44q-81 0 -141 46l-55 -59l-34 31l57 61q-49 60 -49 147t49 147l-57 62l33 30l57 -59q59 46 140 46q77 0 136 -43l54 57l34 -31l-54 -59q51 -61 51 -150zM313 136q69 0 113 46.5t44 120.5t-44 120.5
t-113 46.5t-113 -46.5t-44 -120.5t44 -120.5t113 -46.5z" />
    <glyph glyph-name="plus.case" horiz-adv-x="575" 
d="M522 409v-60h-200v-208h-70v208h-200v60h200v197h70v-197h200z" />
    <glyph glyph-name="minus.case" horiz-adv-x="575" 
d="M52 346v65h470v-65h-470z" />
    <glyph glyph-name="multiply.case" 
d="M548 568l-191 -191l191 -190l-47 -48l-191 191l-191 -191l-47 47l191 191l-191 191l47 47l191 -190l190 190z" />
    <glyph glyph-name="divide.case" horiz-adv-x="575" 
d="M285 519q-20 0 -33.5 13t-13.5 34t13 33.5t34 12.5t34 -12.5t13 -33.5t-13.5 -34t-33.5 -13zM52 346v62h470v-62h-470zM285 141q-20 0 -33.5 13t-13.5 34t13.5 34t33.5 13q21 0 34 -13t13 -34t-13.5 -34t-33.5 -13z" />
    <glyph glyph-name="equal.case" horiz-adv-x="575" 
d="M52 439v65h470v-65h-470zM52 254v65h470v-65h-470z" />
    <glyph glyph-name="notequal.case" 
d="M525 439h-176l-46 -120h222v-65h-247l-50 -132h-47l50 132h-176v65h201l46 120h-247v65h272l49 128h47l-49 -128h151v-65z" />
    <glyph glyph-name="greater.case" 
d="M101 135v67l387 175l-387 175v65l465 -212v-58z" />
    <glyph glyph-name="less.case" 
d="M519 135l-465 212v58l465 212v-65l-387 -175l387 -175v-67z" />
    <glyph glyph-name="greaterequal.case" 
d="M84 183v67l387 175l-387 175v65l465 -212v-58zM542 112v-62h-460v62h460z" />
    <glyph glyph-name="lessequal.case" 
d="M536 183l-465 212v58l465 212v-65l-387 -175l387 -175v-67zM78 112h460v-62h-460v62z" />
    <glyph glyph-name="plusminus.case" 
d="M343 411h202v-60h-202v-169h-69v169h-199v60h199v172h69v-172zM75 50v65h470v-65h-470z" />
    <glyph glyph-name="approxequal.case" 
d="M421 419q-38 0 -112.5 25t-107.5 25q-76 0 -126 -40v65q47 40 126 40q46 0 117 -25t103 -25q75 0 124 40v-65q-42 -40 -124 -40zM421 234q-38 0 -112.5 25t-107.5 25q-76 0 -126 -40v65q47 40 126 40q46 0 117 -25t103 -25q75 0 124 40v-65q-42 -40 -124 -40z" />
    <glyph glyph-name="asciitilde.case" 
d="M408 285q-39 0 -74 21t-65.5 42t-56.5 21q-60 0 -77 -74l-58 9q12 59 47.5 92t88.5 33q30 0 59 -13t48 -28.5t43 -28.5t45 -13q60 0 77 74l58 -10q-11 -59 -46.5 -92t-88.5 -33z" />
    <glyph glyph-name="logicalnot.case" 
d="M73 417h458v-236h-66v170h-392v66z" />
    <glyph glyph-name="infinity.case" horiz-adv-x="613" 
d="M433 513q54 0 87.5 -37.5t33.5 -96.5q0 -57 -34.5 -96t-86.5 -39q-78 0 -127 83q-26 -42 -55 -62.5t-71 -20.5q-54 0 -87.5 37t-33.5 96q0 58 34.5 97t86.5 39q78 0 127 -83q26 42 55 62.5t71 20.5zM187 304q32 0 51 17.5t40 56.5q-22 38 -42.5 56.5t-51.5 18.5
q-30 0 -48 -20.5t-18 -54.5t18.5 -54t50.5 -20zM429 304q30 0 48 20t18 54t-18 54.5t-50 20.5t-51 -17.5t-40 -55.5q21 -39 41.5 -57.5t51.5 -18.5z" />
    <glyph glyph-name="emptyset.case" horiz-adv-x="552" 
d="M503 563l-55 -59q50 -61 50 -150q0 -100 -61.5 -163t-160.5 -63q-81 0 -139 44l-55 -58l-33 31l55 59q-50 61 -50 150q0 100 61.5 163t160.5 63q81 0 139 -44l54 57zM118 354q0 -60 30 -103l225 239q-40 31 -97 31q-70 0 -114 -46.5t-44 -120.5zM433 354q0 62 -29 103
l-225 -239q40 -31 97 -31q70 0 113.5 46.5t43.5 120.5z" />
    <glyph glyph-name="plus.tf.case" 
d="M545 409v-60h-200v-208h-70v208h-200v60h200v197h70v-197h200z" />
    <glyph glyph-name="minus.tf.case" 
d="M75 346v65h470v-65h-470z" />
    <glyph glyph-name="divide.tf.case" 
d="M308 519q-20 0 -33.5 13t-13.5 34t13 33.5t34 12.5t34 -12.5t13 -33.5t-13.5 -34t-33.5 -13zM75 346v62h470v-62h-470zM308 141q-20 0 -33.5 13t-13.5 34t13.5 34t33.5 13q21 0 34 -13t13 -34t-13.5 -34t-33.5 -13z" />
    <glyph glyph-name="equal.tf.case" 
d="M55 439v65h470v-65h-470zM55 254v65h470v-65h-470z" />
    <glyph glyph-name="emptyset.tf.case" 
d="M537 563l-55 -59q50 -61 50 -150q0 -100 -61.5 -163t-160.5 -63q-81 0 -139 44l-54 -58l-34 31l55 59q-50 61 -50 150q0 100 62 163t160 63q81 0 139 -44l54 57zM153 354q0 -58 29 -103l225 239q-40 31 -97 31q-70 0 -113.5 -46.5t-43.5 -120.5zM467 354q0 60 -29 103
l-224 -239q40 -31 96 -31q70 0 113.5 46.5t43.5 120.5z" />
    <glyph glyph-name="plus.tf" 
d="M545 359v-60h-200v-208h-70v208h-200v60h200v197h70v-197h200z" />
    <glyph glyph-name="minus.tf" 
d="M75 296v65h470v-65h-470z" />
    <glyph glyph-name="divide.tf" 
d="M308 469q-20 0 -33.5 13t-13.5 34t13 33.5t34 12.5t34 -12.5t13 -33.5t-13.5 -34t-33.5 -13zM75 296v62h470v-62h-470zM308 91q-20 0 -33.5 13t-13.5 34t13.5 34t33.5 13q21 0 34 -13t13 -34t-13.5 -34t-33.5 -13z" />
    <glyph glyph-name="equal.tf" 
d="M55 389v65h470v-65h-470zM55 204v65h470v-65h-470z" />
    <glyph glyph-name="emptyset.tf" 
d="M537 513l-55 -59q50 -61 50 -150q0 -100 -61.5 -163t-160.5 -63q-81 0 -139 44l-54 -58l-34 31l55 59q-50 61 -50 150q0 100 62 163t160 63q81 0 139 -44l54 57zM153 304q0 -58 29 -103l225 239q-40 31 -97 31q-70 0 -113.5 -46.5t-43.5 -120.5zM467 304q0 60 -29 103
l-224 -239q40 -31 96 -31q70 0 113.5 46.5t43.5 120.5z" />
    <glyph glyph-name="uni21BB.alt" horiz-adv-x="984" 
d="M850 352h85l-113 -151l-113 151h90v10q0 141 -85 223t-214 82q-143 0 -242 -97l-34 39q109 109 283 109q145 0 244 -97t99 -259v-10zM482 39q143 0 243 98l34 -39q-109 -109 -283 -109q-145 0 -244 97t-99 259v7h-83l112 151l113 -151h-91v-7q0 -141 84.5 -223.5
t213.5 -82.5z" />
    <glyph glyph-name="arrowup.ss03" horiz-adv-x="783" 
d="M362 646l-218 -225l-39 42l288 287l286 -287l-40 -42l-217 225v-681h-60v681z" />
    <glyph glyph-name="uni2197.ss03" horiz-adv-x="927" 
d="M769 616l-623 -624l-41 42l624 624l-313 -4v56h406v-407h-57z" />
    <glyph glyph-name="arrowright.ss03" horiz-adv-x="1086" 
d="M876 301h-771v58h771l-223 217l40 41l288 -287l-288 -288l-41 41z" />
    <glyph glyph-name="uni2198.ss03" horiz-adv-x="927" 
d="M769 82l-4 313h57v-407h-406v56l313 -4l-624 624l41 42z" />
    <glyph glyph-name="arrowdown.ss03" horiz-adv-x="783" 
d="M362 64v681h60v-681l217 225l40 -42l-286 -287l-288 287l39 42z" />
    <glyph glyph-name="uni2199.ss03" horiz-adv-x="927" 
d="M158 82l623 624l41 -42l-624 -624l313 4v-56h-406v407h57z" />
    <glyph glyph-name="arrowleft.ss03" horiz-adv-x="1086" 
d="M210 301l224 -218l-41 -41l-288 288l288 287l40 -41l-223 -217h771v-58h-771z" />
    <glyph glyph-name="uni2196.ss03" horiz-adv-x="927" 
d="M158 616l4 -313h-57v407h406v-56l-313 4l624 -624l-41 -42z" />
    <glyph glyph-name="at.case" horiz-adv-x="837" 
d="M428 -31q-171 0 -274.5 103.5t-103.5 274.5q0 170 103.5 277t277.5 107q168 0 262 -99t94 -265q0 -103 -40 -163.5t-108 -60.5q-85 0 -105 85q-18 -41 -57 -66t-88 -25q-61 0 -101 33t-40 84q0 55 39 85.5t123 42.5l117 15v8q0 62 -21.5 87t-74.5 25q-95 0 -103 -86h-64
q4 64 49 101t119 37q82 0 118.5 -40.5t36.5 -131.5v-112q0 -50 13.5 -72t44.5 -22q39 0 62 47t23 127q0 148 -76.5 232.5t-220.5 84.5q-151 0 -238 -92t-87 -243q0 -147 90.5 -237t238.5 -90q99 0 192 41l22 -45q-95 -47 -223 -47zM398 188q57 0 93 38t36 98v27l-103 -13
q-59 -8 -84 -27t-25 -54q0 -30 23 -49.5t60 -19.5z" />
    <glyph glyph-name="section.case" horiz-adv-x="479" 
d="M377 221q43 -37 43 -98q0 -66 -47 -103t-130 -37q-87 0 -140 42t-61 116l70 13q11 -57 43 -83.5t90 -26.5q102 0 102 78q0 31 -18.5 50t-68.5 39l-108 43q-115 46 -115 133q0 67 57 100q-44 40 -44 99q0 66 46.5 103.5t128.5 37.5q84 0 134 -39t57 -109l-70 -14
q-10 52 -39.5 76.5t-82.5 24.5q-102 0 -102 -78q0 -32 20 -52.5t73 -41.5l113 -45q104 -41 104 -130q0 -66 -55 -98zM180 315l118 -48q19 -8 42 -20q24 21 24 58q0 31 -16 50.5t-54 35.5l-117 49q-23 9 -46 21q-27 -23 -27 -58q0 -30 18 -50.5t58 -37.5z" />
    <glyph glyph-name="bar.case" horiz-adv-x="259" 
d="M100 -87v877h59v-877h-59z" />
    <glyph glyph-name="brokenbar.case" horiz-adv-x="258" 
d="M159 800v-378h-59v378h59zM159 301v-378h-59v378h59z" />
    <glyph glyph-name="dagger.case" horiz-adv-x="488" 
d="M278 482v-542h-69v542h-136v58h136v220h69v-220h137v-58h-137z" />
    <glyph glyph-name="daggerdbl.case" horiz-adv-x="488" 
d="M415 482h-137v-264h136v-58h-136v-220h-69v220h-135v58h135v264h-136v58h136v220h69v-220h137v-58z" />
    <glyph glyph-name="bar.tf" horiz-adv-x="310" 
d="M125 -117v877h60v-877h-60z" />
    <glyph glyph-name="plus.subs" horiz-adv-x="451" 
d="M403 122v-44h-153v-153h-50v153h-152v44h152v145h50v-145h153z" />
    <glyph glyph-name="minus.subs" horiz-adv-x="451" 
d="M48 77v46h355v-46h-355z" />
    <glyph glyph-name="multiply.subs" horiz-adv-x="486" 
d="M423 239l-144 -140l144 -139l-35 -36l-144 140l-145 -140l-35 35l144 140l-144 140l35 34l145 -140l144 140z" />
    <glyph glyph-name="divide.subs" horiz-adv-x="451" 
d="M223 199q-15 0 -25.5 10t-10.5 26q0 15 10.5 25t25.5 10q16 0 26 -9.5t10 -25.5t-10 -26t-26 -10zM48 77v45h355v-45h-355zM223 -72q-15 0 -25.5 9.5t-10.5 25.5t10.5 26t25.5 10q16 0 26 -10t10 -26t-10 -25.5t-26 -9.5z" />
    <glyph glyph-name="plus.sups" horiz-adv-x="451" 
d="M403 572v-44h-153v-153h-50v153h-152v44h152v145h50v-145h153z" />
    <glyph glyph-name="minus.sups" horiz-adv-x="451" 
d="M48 527v46h355v-46h-355z" />
    <glyph glyph-name="multiply.sups" horiz-adv-x="486" 
d="M423 689l-144 -140l144 -139l-35 -36l-144 140l-145 -140l-35 35l144 140l-144 140l35 34l145 -140l144 140z" />
    <glyph glyph-name="divide.sups" horiz-adv-x="451" 
d="M223 649q-15 0 -25.5 10t-10.5 26q0 15 10.5 25t25.5 10q16 0 26 -9.5t10 -25.5t-10 -26t-26 -10zM48 527v45h355v-45h-355zM223 378q-15 0 -25.5 9.5t-10.5 25.5t10.5 26t25.5 10q16 0 26 -10t10 -26t-10 -25.5t-26 -9.5z" />
    <glyph glyph-name="caronaccentcomb" horiz-adv-x="181" 
d="M70 540l-16 29q22 10 30.5 23.5t8.5 38.5h-42v79h80v-72q0 -40 -14.5 -62.5t-46.5 -35.5z" />
    </font>
</defs>
</svg>
